<?xml version="1.0" encoding="utf-8"?>
<!-- Generator: Adobe Illustrator 26.0.3, SVG Export Plug-In . SVG Version: 6.00 Build 0)  -->
<svg version="1.1" xmlns="http://www.w3.org/2000/svg" xmlns:xlink="http://www.w3.org/1999/xlink" x="0px" y="0px"
	 viewBox="100 100 1000 900" style="enable-background:new 0 0 1200 1200;" xml:space="preserve">
<style type="text/css">
	.st0{display:none;}
	.st1{display:inline;fill:#E9E9E9;}
	.st2{display:inline;fill:#DCDDDE;}
	.st3{fill:#FDE664;}
	.st4{fill:url(#SVGID_1_);}
	.st5{fill:url(#SVGID_00000091008507197877151380000012184131243402923428_);}
	.st6{fill:url(#SVGID_00000088135021107674238550000003438638751993557899_);}
	.st7{fill:#FFFFFF;}
	.st8{fill:url(#SVGID_00000053503864921993384080000006407156956036458917_);}
	.st9{fill:url(#SVGID_00000107569527321180195350000007578761358963983752_);}
	.st10{fill:url(#SVGID_00000169526444029447821490000003580684505056193156_);}
	.st11{fill:url(#SVGID_00000178916975288990941500000003516844456600305581_);}
	.st12{fill:url(#SVGID_00000104704313306026100660000008866127406440464792_);}
	.st13{fill:#BEC0C2;}
</style>
<g id="background" class="st0">
	<path class="st1" d="M0,0v1200h1200V0H0z M633.2,504.5c-2.1,2-4.3,3.8-6.6,5.4c-1.7,3.5-4.8,6.3-8.6,7.2
		c-5.3,1.3-10.6,2.2-15.8,2.4c-0.9,0.2-1.7,0.4-2.6,0.7c-3,0.9-6,0.6-8.6-0.6c-2.9,0-5.8-0.2-8.8-0.5c-3.6-0.3-6.9-1.7-9.4-4
		c-5.3-0.6-10.5-1.5-15.6-2.6c-7.1-1.6-11.3-9.8-9.4-16.6c2-7.3,9.5-11,16.6-9.4c9.2,2.1,17.5,2.9,27.6,2.4
		c8.2-0.4,17.9-2.3,24.8-5.7c6.2-3,13-2,17.4,3.5C638.3,491.9,638,499.9,633.2,504.5z"/>
</g>
<g id="bulb">
	<g id="Layer_2_00000083048528352642646110000001575196533364094636_" class="st0">
		<rect class="st2" width="1200" height="1200"/>
	</g>
	<g id="Layer_3">
		<path class="st3" d="M799,543.3c-0.6-2.9-1.1-5.8-1.5-8.7c-0.2-1.2-0.5-2.5-0.8-3.7c-1.2-4.1-2.2-8.2-3.2-12.3
			c-6.4-21.8-16.7-42.1-30.1-60.2c-4.9-5.8-10-11.4-15.2-17c-5.8-5.8-11.6-11.6-17.3-17.5c-0.2-0.2-0.4-0.4-0.7-0.5
			c-0.5-0.5-1.1-0.9-1.7-1.4c-6.2-5.1-12.7-9.8-19.5-14.2c-5.7-3.1-11.2-6.4-16.7-9.7c-25.2-13.2-53.7-21.5-83.9-23.9
			c-7.4,0.1-14.9-0.1-22.3-0.7c-1.5,0-3,0.1-4.5,0.1c-3,0.2-5.9,0.4-8.9,0.5c-0.4,0-0.7,0-1.1,0.1c-1.6,0.3-3.2,0.5-4.8,0.8
			c-22.3,5.3-44.5,10.8-65.8,19.3c-1.6,0.6-3.3,1-4.9,1.2c-5.4,3.2-10.8,6.4-16.2,9.6c-6.3,3.7-12.5,7.5-18.6,11.4
			c-3.2,2.1-6.3,4.2-9.4,6.4c-1.1,0.8-2.2,1.6-3.4,2.5c-6.7,5.8-13,12-18.8,18.5c-1.6,1.8-3.2,3.7-4.8,5.5c-2.5,3-4.8,6-7.1,9.1
			c-1,1.6-2,3.3-3,5c-4.5,7.6-8.4,15.5-12,23.5c-1,2.2-2,4.5-3,6.7c-0.1,0.3-0.2,0.5-0.3,0.7c0,0,0,0.1,0,0.1
			c-1.9,4.5-3.7,9-5.5,13.6c-1,2.5-2.1,4.7-3.3,6.7c-0.8,2.8-1.5,5.6-2.2,8.5c-2.1,8.5-3.7,17-5.1,25.6c0,0.1,0,0.3-0.1,0.4
			c0,0.1,0,0.1,0,0.2c-0.1,0.8-0.2,1.6-0.3,2.5c-0.4,13.1,0.1,26.1,1.4,39.2c0.3,3.3,0.6,6.7,1.1,10c0.1,0.8,0.3,1.8,0.4,2.2
			c0.3,2.2,0.7,4.4,1,6.6c0.5,3.2,1.1,6.3,1.7,9.5c3.1,9.2,6,18.4,9,27.6c5,9.6,10,19.2,14.7,28.9c37.1,56.1,103.2,93.4,178.6,93.4
			c55.7,0,106.4-20.4,144-53.7c9-8.8,17-18.6,25.8-27.5c0.8-1,1.5-2,2.3-3c7.7-12.5,14.9-25.4,22.3-38.2c0.5-1.1,1-2.2,1.4-3.3
			c1.6-5.9,3.6-12.3,6.5-18.1c5.2-17.2,8-35.4,8-54.2C801.2,561.8,800.4,552.5,799,543.3z"/>
		<path class="st3" d="M590.9,643.9c-49.9,0-90.4,56.1-90.4,125.3c0,4.7,0.2,9.3,0.6,13.8c1.3,2,2.2,4.2,2.8,6.5
			c4.7,19.1,11.4,37.7,17.2,56.5c3.8,6.2,7.8,12.3,12,18.3c0.1,0.1,0.2,0.3,0.3,0.4c4.1,3.7,8.3,7.3,12.4,10.9l4.9,3.3
			c1.4,0.5,2.8,1.1,4,1.9c6.2,1.9,12.5,3.5,18.8,4.7c2,0.4,4.4,1.1,6.5,1.1c-1-0.1-2-0.3-3-0.4c1.2,0.2,2.5,0.3,3.7,0.4
			c3.7,0.4,7.4,0.7,11.2,0.8c2.1,0.1,4.1,0.1,6.2,0c0.9,0,1.7-0.1,2.6-0.2c2.8-0.3,2.3-0.2-1.5,0.3c1.4,1,8.2-1.6,10.1-2.1
			c4.8-1.2,9.6-2.5,14.4-3.8c2.7-1.5,5.5-3,8.2-4.6c2.7-1.5,5.2-3.2,7.8-5c1.1-0.9,2.2-1.8,3.2-2.8c2-1.8,3.9-3.7,5.7-5.7
			c0.8-0.9,1.6-1.8,2.4-2.7c0.1-0.1,0.2-0.2,0.2-0.3c6-9.2,11.7-18.2,16.5-28.2c1.1-2.2,2.1-4.4,3.1-6.6c1.3-6.2,2.9-12.2,5-18.1
			c0.8-7.8,2.4-15.6,4.8-23.3c0.4-5,0.7-10.1,0.7-15.3C681.3,700,640.8,643.9,590.9,643.9z"/>
		<g>
			<g>
				<path class="st3" d="M468.9,724.2c18.2,25.4,36.8,51.5,43.4,82.6c2,9.4,16.5,5.4,14.5-4c-6.9-32.3-26.1-59.8-44.9-86.2
					C476.3,708.9,463.3,716.4,468.9,724.2L468.9,724.2z"/>
			</g>
		</g>
		<g>
			<g>
				<path class="st3" d="M448.8,708c21.6,17.2,40.3,37.8,55,61.1c7.2,11.3,13.5,23.3,18.7,35.7c5.6,13.4,11.8,28.7,9,43.4
					c-1.8,9.4,12.7,13.5,14.5,4c3.2-16.8-1.5-32.9-7.8-48.4c-5.5-13.7-12-26.9-19.7-39.5c-15.7-25.5-35.7-48.3-59.1-66.9
					c-3.2-2.5-7.5-3.1-10.6,0C446.1,700,445.6,705.5,448.8,708L448.8,708z"/>
			</g>
		</g>
		<g>
			<g>
				<path class="st3" d="M487.8,733.3c14.1,30.1,25.1,61.6,32.8,93.9c2.2,9.4,16.7,5.4,14.5-4c-8-33.6-19.6-66.2-34.3-97.5
					C496.6,717,483.7,724.6,487.8,733.3L487.8,733.3z"/>
			</g>
		</g>
		<g>
			<g>
				<path class="st3" d="M486.1,743.1c5.1,11.8,9.5,23.9,13.4,36.1c2.9,9.2,17.4,5.2,14.5-4c-4.3-13.5-9.3-26.7-14.9-39.7
					c-1.6-3.8-7-4.5-10.3-2.7C484.9,735,484.5,739.4,486.1,743.1L486.1,743.1z"/>
			</g>
		</g>
		<g>
			<g>
				<path class="st3" d="M459.1,712.7c21.3,22.2,40.1,46.4,56.3,72.6c5.1,8.2,18,0.7,13-7.6c-16.8-27.2-36.5-52.6-58.6-75.6
					C463,695.1,452.4,705.7,459.1,712.7L459.1,712.7z"/>
			</g>
		</g>
		<g>
			<g>
				<path class="st3" d="M459.9,717.3c20.3,19.2,38.3,40.7,53.6,64.1c5.3,8,18.2,0.5,13-7.6c-16-24.5-34.7-47.1-56-67.2
					C463.5,700.1,452.9,710.7,459.9,717.3L459.9,717.3z"/>
			</g>
		</g>
		<g>
			<g>
				<path class="st3" d="M447.9,711.6c30.8,23.8,56,54.5,73.9,89c4.4,8.6,17.4,1,13-7.6c-19.2-37-46.3-69-79.3-94.4
					c-3.2-2.5-8.4-0.5-10.3,2.7C442.9,705.2,444.7,709.1,447.9,711.6L447.9,711.6z"/>
			</g>
		</g>
		<g>
			<g>
				<path class="st3" d="M450.6,707.5c12.2,15.8,24.3,31.7,36.1,47.7c5.7,7.8,11.4,15.6,17,23.4c3,4.2,6,8.4,8.9,12.6
					c2,2.8,6.8,7.8,6.2,11.5c-1.6,9.4,12.8,13.5,14.5,4c2-11.5-5.3-19.8-11.6-28.6c-6.5-9.2-13.1-18.3-19.7-27.4
					c-13.3-18.2-26.9-36.1-40.7-53.9c-2.5-3.2-8-2.6-10.6,0C447.4,700,448.1,704.3,450.6,707.5L450.6,707.5z"/>
			</g>
		</g>
		<g>
			<g>
				<path class="st3" d="M487.3,747.8c9.2,21.9,18.3,43.8,27.5,65.7c1.5,3.7,5,6.4,9.2,5.2c3.5-1,6.8-5.5,5.2-9.2
					c-9.2-21.9-18.3-43.8-27.5-65.7c-1.5-3.7-5-6.4-9.2-5.2C489.1,739.6,485.8,744.1,487.3,747.8L487.3,747.8z"/>
			</g>
		</g>
		<g>
			<g>
				<path class="st3" d="M488.4,746.6c10.1,25.8,18.6,52.1,25.5,78.9c2.4,9.3,16.9,5.4,14.5-4c-6.9-26.8-15.4-53.1-25.5-78.9
					c-1.5-3.8-5-6.4-9.2-5.2C490,738.4,486.9,742.8,488.4,746.6L488.4,746.6z"/>
			</g>
		</g>
		<g>
			<g>
				<path class="st3" d="M507.1,802.3c1.2,3.8,2.4,7.5,3.6,11.3c1.1,3.8,5.3,6.5,9.2,5.2c3.8-1.2,6.5-5.2,5.2-9.2
					c-1.1-3.8-2.3-7.6-3.6-11.3c-1.2-3.7-5.2-6.5-9.2-5.2C508.6,794.2,505.8,798.3,507.1,802.3L507.1,802.3z"/>
			</g>
		</g>
		<g>
			<g>
				<path class="st3" d="M485,747c4.8,10.2,9.3,20.5,13.4,31c1.5,3.8,5,6.4,9.2,5.2c3.6-1,6.7-5.4,5.2-9.2
					c-4.6-11.7-9.5-23.2-14.9-34.5C493.8,730.8,480.9,738.4,485,747L485,747z"/>
			</g>
		</g>
		<g>
			<g>
				<path class="st3" d="M507.1,802.2c2.2,6.5,4.3,13.1,6.3,19.7c2.8,9.2,17.2,5.3,14.5-4c-2-6.6-4.1-13.2-6.3-19.7
					C518.5,789.1,504,793,507.1,802.2L507.1,802.2z"/>
			</g>
		</g>
		<g>
			<g>
				<path class="st3" d="M488,753.8c3.6,7.9,6.9,15.9,10.1,24c1.5,3.8,5,6.4,9.2,5.2c3.6-1,6.7-5.4,5.2-9.2
					c-3.7-9.3-7.5-18.5-11.6-27.6c-1.7-3.7-7-4.5-10.3-2.7C486.9,745.7,486.4,750.1,488,753.8L488,753.8z"/>
			</g>
		</g>
		<g>
			<g>
				<path class="st3" d="M526.4,816c-3.2-29.5-16.6-56-33.3-80.1c-8.5-12.2-17.7-24-26.7-35.9c-8.9-11.9-18.7-24-23.6-38.2
					c-3.1-9.1-17.6-5.2-14.5,4c4.8,13.8,13.1,25.7,21.8,37.3c8.9,12,18.1,23.7,26.8,35.8c16.4,23,31.4,48.5,34.5,77.1
					c0.4,4,3.1,7.5,7.5,7.5C522.6,823.5,526.9,820,526.4,816L526.4,816z"/>
			</g>
		</g>
		<g>
			<g>
				<path class="st3" d="M528.3,807c-9.2-57.5-52.3-100-92.8-138.2c-7-6.6-17.6,4-10.6,10.6C463.6,716,505,756,513.8,811
					c0.6,4,5.6,6.2,9.2,5.2C527.3,815.1,528.9,811.1,528.3,807L528.3,807z"/>
			</g>
		</g>
		<g>
			<g>
				<path class="st3" d="M446.4,713.1c14.8,12.6,28.4,26.6,40.3,42c2.5,3.2,6.4,4.9,10.3,2.7c3.2-1.8,5.2-7,2.7-10.3
					c-12.7-16.5-26.8-31.6-42.6-45C449.7,696.2,439,706.8,446.4,713.1L446.4,713.1z"/>
			</g>
		</g>
		<path class="st3" d="M590.9,643.9c-49.9,0-90.4,56.1-90.4,125.3c0,4.7,0.2,9.3,0.6,13.8c1.3,2,2.2,4.2,2.8,6.5
			c4.7,19.1,11.4,37.7,17.2,56.5c3.8,6.2,7.8,12.3,12,18.3c0.1,0.1,0.2,0.3,0.3,0.4c4.1,3.7,8.3,7.3,12.4,10.9l4.9,3.3
			c1.4,0.5,2.8,1.1,4,1.9c6.2,1.9,12.5,3.5,18.8,4.7c2,0.4,4.4,1.1,6.5,1.1c-1-0.1-2-0.3-3-0.4c1.2,0.2,2.5,0.3,3.7,0.4
			c3.7,0.4,7.4,0.7,11.2,0.8c2.1,0.1,4.1,0.1,6.2,0c0.9,0,1.7-0.1,2.6-0.2c2.8-0.3,2.3-0.2-1.5,0.3c1.4,1,8.2-1.6,10.1-2.1
			c4.8-1.2,9.6-2.5,14.4-3.8c2.7-1.5,5.5-3,8.2-4.6c2.7-1.5,5.2-3.2,7.8-5c1.1-0.9,2.2-1.8,3.2-2.8c2-1.8,3.9-3.7,5.7-5.7
			c0.8-0.9,1.6-1.8,2.4-2.7c0.1-0.1,0.2-0.2,0.2-0.3c6-9.2,11.7-18.2,16.5-28.2c1.1-2.2,2.1-4.4,3.1-6.6c1.3-6.2,2.9-12.2,5-18.1
			c0.8-7.8,2.4-15.6,4.8-23.3c0.4-5,0.7-10.1,0.7-15.3C681.3,700,640.8,643.9,590.9,643.9z"/>
		<g>
			<g>
				<path class="st3" d="M699.9,716.7c-18.9,26.4-38,53.9-44.9,86.2c-2,9.4,12.4,13.4,14.5,4c6.7-31,25.3-57.2,43.4-82.6
					C718.5,716.4,705.5,708.9,699.9,716.7L699.9,716.7z"/>
			</g>
		</g>
		<g>
			<g>
				<path class="st3" d="M722.4,697.4c-23.4,18.7-43.4,41.4-59.1,66.9c-7.7,12.6-14.2,25.8-19.7,39.5c-6.2,15.5-11,31.6-7.8,48.4
					c1.8,9.5,16.3,5.5,14.5-4c-2.8-14.5,3.2-29.5,8.7-42.7c5.2-12.7,11.7-24.8,19-36.4c14.8-23.3,33.4-43.9,55-61.1
					c3.2-2.5,2.6-7.9,0-10.6C729.9,694.3,725.5,694.9,722.4,697.4L722.4,697.4z"/>
			</g>
		</g>
		<g>
			<g>
				<path class="st3" d="M681,725.8c-14.7,31.3-26.2,63.9-34.3,97.5c-2.2,9.4,12.2,13.4,14.5,4c7.8-32.3,18.7-63.8,32.8-93.9
					C698.1,724.7,685.2,717,681,725.8L681,725.8z"/>
			</g>
		</g>
		<g>
			<g>
				<path class="st3" d="M682.7,735.5c-9.2,21.3-16.7,43.3-22.2,65.9c-2.3,9.4,12.2,13.4,14.5,4c5.2-21.3,12-42.2,20.7-62.3
					c1.6-3.8,1.1-8-2.7-10.3C689.9,730.9,684.3,731.8,682.7,735.5L682.7,735.5z"/>
			</g>
		</g>
		<g>
			<g>
				<path class="st3" d="M712,702.1c-22.2,23-41.8,48.4-58.6,75.6c-5.1,8.2,7.9,15.8,13,7.6c16.2-26.2,35-50.4,56.3-72.6
					C729.3,705.7,718.7,695.1,712,702.1L712,702.1z"/>
			</g>
		</g>
		<g>
			<g>
				<path class="st3" d="M711.2,706.7c-21.2,20.1-40,42.7-56,67.2c-5.3,8.1,7.7,15.6,13,7.6c15.3-23.4,33.3-44.9,53.6-64.1
					C728.9,710.7,718.2,700.1,711.2,706.7L711.2,706.7z"/>
			</g>
		</g>
		<g>
			<g>
				<path class="st3" d="M726.3,698.6c-32.9,25.4-60.1,57.4-79.3,94.4c-4.4,8.6,8.5,16.2,13,7.6c17.9-34.5,43-65.2,73.9-89
					c3.2-2.5,4.9-6.4,2.7-10.3C734.8,698.2,729.5,696.2,726.3,698.6L726.3,698.6z"/>
			</g>
		</g>
		<g>
			<g>
				<path class="st3" d="M679.9,750.8c-7.1,9.7-13.8,19.7-21.2,29.1c-6.2,7.9-12.2,16.4-10.1,26.9c1.9,9.5,16.3,5.5,14.5-4
					c-0.5-2.8,1.8-6,3.3-8.2c2.2-3.4,4.9-6.5,7.4-9.7c6.5-8.7,12.7-17.8,19.2-26.6c2.4-3.3,0.5-8.3-2.7-10.3
					C686.4,745.8,682.3,747.5,679.9,750.8L679.9,750.8z"/>
			</g>
		</g>
		<g>
			<g>
				<path class="st3" d="M720.6,696.9c-11.8,15.2-23.5,30.6-35,46.2c-2.4,3.3-0.5,8.3,2.7,10.3c3.8,2.3,7.9,0.5,10.3-2.7
					c10.7-14.5,21.6-28.9,32.7-43.1c2.5-3.2,3.1-7.5,0-10.6C728.6,694.3,723.1,693.7,720.6,696.9L720.6,696.9z"/>
			</g>
		</g>
		<g>
			<g>
				<path class="st3" d="M680,743.9c-9.2,21.9-18.3,43.8-27.5,65.7c-1.6,3.8,1.7,8.2,5.2,9.2c4.3,1.2,7.7-1.5,9.2-5.2
					c9.2-21.9,18.3-43.8,27.5-65.7c1.6-3.8-1.7-8.2-5.2-9.2C684.9,737.4,681.5,740.1,680,743.9L680,743.9z"/>
			</g>
		</g>
		<g>
			<g>
				<path class="st3" d="M678.9,742.6c-10.2,26-18.7,52.5-25.7,79.5c-2.4,9.4,12.1,13.3,14.5,4c6.9-27,15.5-53.6,25.7-79.5
					c1.5-3.8-1.6-8.2-5.2-9.2C683.9,736.2,680.4,738.9,678.9,742.6L678.9,742.6z"/>
			</g>
		</g>
		<g>
			<g>
				<path class="st3" d="M667.7,777.1c-4.1,10.7-7.7,21.6-11,32.5c-2.8,9.3,11.7,13.2,14.5,4c3.3-11,7-21.8,11-32.5
					C685.6,772,671.1,768.1,667.7,777.1L667.7,777.1z"/>
			</g>
		</g>
		<g>
			<g>
				<path class="st3" d="M683.8,739.5c-3.9,8.2-7.5,16.4-11,24.7c-1.6,3.7,1.7,8.2,5.2,9.2c4.3,1.2,7.7-1.5,9.2-5.2
					c3-7.1,6.2-14.2,9.5-21.1C700.9,738.4,687.9,730.8,683.8,739.5L683.8,739.5z"/>
			</g>
		</g>
		<g>
			<g>
				<path class="st3" d="M667.2,778.7c-4.9,12.9-9.3,25.9-13.3,39.1c-2.8,9.3,11.7,13.2,14.5,4c4-13.2,8.4-26.2,13.3-39.1
					C685.1,773.7,670.6,769.8,667.2,778.7L667.2,778.7z"/>
			</g>
		</g>
		<g>
			<g>
				<path class="st3" d="M680.8,746.2c-2.4,5.2-4.7,10.5-6.9,15.8c-1.6,3.7,1.7,8.2,5.2,9.2c4.3,1.2,7.7-1.5,9.2-5.2
					c1.7-4.1,3.5-8.2,5.4-12.3c1.7-3.7,1.1-8.1-2.7-10.3C687.8,741.6,682.5,742.5,680.8,746.2L680.8,746.2z"/>
			</g>
		</g>
		<g>
			<g>
				<path class="st3" d="M670.3,816c3.1-28.6,18.1-54.2,34.5-77.1c8.7-12.1,17.9-23.8,26.8-35.8c8.7-11.7,17-23.5,21.8-37.3
					c3.2-9.1-11.3-13.1-14.5-4c-4.8,13.9-14.3,25.8-23.1,37.5c-9.1,12.2-18.6,24.1-27.2,36.6c-16.7,24.1-30.2,50.6-33.3,80.1
					c-0.4,4,3.8,7.5,7.5,7.5C667.3,823.5,669.9,820,670.3,816L670.3,816z"/>
			</g>
		</g>
		<g>
			<g>
				<path class="st3" d="M668,811c8.8-55,50.2-95,88.9-131.6c7-6.6-3.6-17.2-10.6-10.6c-40.4,38.2-83.6,80.7-92.8,138.2
					c-0.6,4,1,8,5.2,9.2C662.3,817.3,667.3,815,668,811L668,811z"/>
			</g>
		</g>
		<g>
			<g>
				<path class="st3" d="M724.7,702.4c-12.8,10.8-24.5,22.7-35.2,35.6c-6.1,7.4,4.4,18,10.6,10.6c10.7-12.9,22.4-24.8,35.2-35.6
					C742.7,706.8,732.1,696.2,724.7,702.4L724.7,702.4z"/>
			</g>
		</g>
	</g>
	<g id="Layer_4">
		
			<linearGradient id="SVGID_1_" gradientUnits="userSpaceOnUse" x1="593.1416" y1="197.8766" x2="593.1416" y2="914.3148" gradientTransform="matrix(1 0 0 -1 0 1200)">
			<stop  offset="0.3263" style="stop-color:#FDE664;stop-opacity:0.5"/>
			<stop  offset="1" style="stop-color:#F15A2B"/>
		</linearGradient>
		<path class="st4" d="M803.1,568.9c-0.9-6.2-1.7-12.4-2.6-18.6c-1.4-6-2.6-12-3.4-18.1c-3-9.3-4.6-18.9-6.9-28.5
			c-0.7-1.9-1.4-3.9-2.2-5.8c-0.3-0.5-0.7-1-1-1.5c-3.7-6.6-7.2-13.3-10.5-20c-0.3-0.5-0.6-1-0.9-1.5c-1.5-2.1-2.9-4.3-4.2-6.4
			c-0.2-0.3-0.4-0.6-0.7-1c-0.2-0.3-0.8-1.2-1.4-2.1c-1.3-1.9-2.9-3.7-4.4-5.4c-5.3-6.4-10.8-12.4-16.4-18.5
			c-5.8-5.9-11.8-11.8-17.5-17.8c-2.9-2.4-5.8-4.8-8.6-7.3c-3.3-2.3-6.6-4.6-9.8-6.9c-9.5-5.1-18.7-10.7-27.9-16.2
			c-7-3.1-13.8-6.6-20.6-10.2c-7.8-2.3-15.6-4.5-23.4-6.7c-6.3-0.6-12.6-1.6-18.8-2.9c-12.2,0.7-24.5,0.7-36.7-0.3
			c-4.3,0.4-8.7,0.7-13,0.8c-1.7,0.3-3.5,0.6-5.2,0.9c-22.2,5.3-44.4,10.8-65.8,19.3c-1.6,0.6-3.3,1-4.9,1.2
			c-5.4,3.2-10.8,6.4-16.1,9.6c-6.3,3.7-12.5,7.5-18.6,11.4c-3.2,2.1-6.3,4.2-9.4,6.4c-1.4,1-2.8,2-4.1,3c-0.4,0.4-0.9,0.7-1.3,1
			c-1.5,1.2-3,2.3-4.5,3.2c0,0-0.1,0.1-0.1,0.1c-7.6,8.2-14.9,16.7-22.1,25.2c-1.7,2.6-3.4,5.3-5,8c-4.5,7.6-8.4,15.5-12,23.5
			c-1,2.2-2,4.5-3,6.7c-0.1,0.3-0.2,0.5-0.3,0.7c0,0,0,0.1,0,0.1c-1.9,4.5-3.7,9-5.5,13.6c-1,2.5-2.1,4.7-3.3,6.7
			c-0.8,2.8-1.5,5.6-2.2,8.5c-2.1,8.5-3.7,17-5.1,25.6c0,0.1,0,0.3-0.1,0.4c0,0.1,0,0.1,0,0.2c-0.1,0.8-0.2,1.6-0.3,2.5
			c-0.4,13.1,0.1,26.1,1.4,39.2c0.3,3.3,0.6,6.7,1.1,10c0.1,0.8,0.3,1.8,0.4,2.2c0.3,2.2,0.7,4.4,1,6.6c0.5,3.2,1.1,6.3,1.7,9.5
			c3.1,9.1,6,18.4,8.9,27.6c5.8,10.9,11.5,21.9,16.7,33.1c0.1,0.1,0.2,0.2,0.3,0.4c0.2,0.3,1.2,1.5,1.8,2.3c0.4,0.5,0.9,1.1,1,1.2
			c1.1,1.4,2.3,2.8,3.5,4.2c1.4,1.7,2.6,3.4,3.6,5.2c0.7,0.8,1.5,1.7,2.2,2.5c4,4.5,8.1,8.9,12.4,13.1c2.8,2.8,5.6,5.5,8.5,8.3
			c1.7,1,3.3,2.1,4.8,3.4c4.8,4.3,9.5,8.8,14,13.4c0.4,0.4,0.8,0.8,1.2,1.2c6.2,6.4,12,13.1,17.3,20.2c5,6.6,8.1,14.1,11.2,21.7
			c0,0,0,0,0,0.1c0,0,0,0.1,0.1,0.1c3.7,3.2,6.6,7.4,7.8,12.2c4.7,19.1,11.4,37.7,17.2,56.5c3.8,6.2,7.8,12.3,12,18.3
			c0.1,0.1,0.2,0.3,0.3,0.4c4.1,3.7,8.3,7.3,12.4,10.9l4.9,3.3c1.4,0.5,2.8,1.1,4,1.9c6.2,1.9,12.5,3.5,18.8,4.7
			c2,0.4,4.4,1.1,6.5,1.1c-1-0.1-2-0.3-3-0.4c1.2,0.2,2.5,0.3,3.7,0.4c3.7,0.4,7.4,0.7,11.2,0.8c2.1,0.1,4.1,0.1,6.2,0
			c0.9,0,1.7-0.1,2.6-0.2c2.8-0.3,2.3-0.2-1.5,0.3c1.4,1,8.2-1.6,10.1-2.1c4.8-1.2,9.6-2.5,14.4-3.8c2.7-1.5,5.5-3,8.2-4.6
			c2.7-1.5,5.2-3.2,7.8-5c1.1-0.9,2.2-1.8,3.2-2.8c2-1.8,3.9-3.7,5.7-5.7c0.8-0.9,1.6-1.8,2.4-2.7c0.1-0.1,0.2-0.2,0.2-0.3
			c6-9.2,11.7-18.2,16.5-28.2c1.1-2.2,2.1-4.4,3.1-6.7c1.3-6.2,2.9-12.2,5-18c2.9-27.4,15.5-56.2,39.1-70.8c5.8-7.3,12.4-14,19-20.5
			c9.8-9.5,18.4-20.2,28.1-29.8c8.5-13.6,16.2-27.7,24.3-41.5c1.9-7,4.3-14.8,7.9-21.7c1.7-5.3,3.5-10.6,4.8-16
			c0.1-0.4,0.2-0.8,0.2-1.2c0.5-2.8,0.9-5.6,1.4-8.5c0-0.1,0-0.2,0-0.3c0.1-1.2,0.3-2.3,0.4-3.4c0.8-6.6,1.6-13.3,2.4-19.9
			C803.3,572.5,803.2,570.7,803.1,568.9z"/>
		
			<linearGradient id="SVGID_00000103986517322110114000000010368651131383650985_" gradientUnits="userSpaceOnUse" x1="590.1865" y1="487.9974" x2="590.1865" y2="93.7285" gradientTransform="matrix(1 0 0 -1 0 1200)">
			<stop  offset="0" style="stop-color:#FCDD5D"/>
			<stop  offset="0.2419" style="stop-color:#F3F0E4;stop-opacity:0.6992"/>
			<stop  offset="0.4341" style="stop-color:#F1F2F2"/>
		</linearGradient>
		<path style="fill:url(#SVGID_00000103986517322110114000000010368651131383650985_);" d="M442,712c1.8,1.8,3.6,3.5,5.4,5.2
			c1.7,1,3.3,2.1,4.8,3.4c4.8,4.3,9.5,8.8,14,13.4c0.4,0.4,0.8,0.8,1.2,1.2c6.2,6.4,12,13.1,17.3,20.2c5,6.6,8.1,14.1,11.2,21.7
			c0,0,0,0,0,0.1c0,0,0,0.1,0.1,0.1c3.7,3.2,6.6,7.4,7.8,12.2c4.7,19.1,11.4,37.7,17.2,56.5c3.8,6.2,7.8,12.3,12,18.3
			c0.1,0.1,0.2,0.3,0.3,0.4c4.1,3.7,8.3,7.3,12.4,10.9l4.9,3.3c1.4,0.5,2.8,1.1,4,1.9c6.2,1.9,12.5,3.5,18.8,4.7
			c2,0.4,4.4,1.1,6.5,1.1c-1-0.1-2-0.3-3-0.4c1.2,0.2,2.5,0.3,3.7,0.4c3.7,0.4,7.4,0.7,11.2,0.8c2.1,0.1,4.1,0.1,6.2,0
			c0.9,0,1.7-0.1,2.6-0.2c2.8-0.3,2.3-0.2-1.5,0.3c1.4,1,8.2-1.6,10.1-2.1c4.8-1.2,9.6-2.5,14.4-3.8c2.7-1.5,5.5-3,8.2-4.6
			c2.7-1.5,5.2-3.2,7.8-5c1.1-0.9,2.2-1.8,3.2-2.8c2-1.8,3.9-3.7,5.7-5.7c0.8-0.9,1.6-1.8,2.4-2.7c0.1-0.1,0.2-0.2,0.2-0.3
			c6-9.2,11.7-18.2,16.5-28.2c1.1-2.2,2.1-4.4,3.1-6.7c1.3-6.2,2.9-12.2,5-18c2.9-27.4,15.5-56.2,39.1-70.8c5.8-7.3,12.4-14,19-20.5
			c1.5-1.5,3-3,4.5-4.5L442,712L442,712z"/>
		
			<linearGradient id="SVGID_00000160167904918634985360000009644403251963283367_" gradientUnits="userSpaceOnUse" x1="355.6415" y1="487.9604" x2="355.6415" y2="93.6915" gradientTransform="matrix(1 0 0 -1 0 1200)">
			<stop  offset="0" style="stop-color:#FCDD5D"/>
			<stop  offset="0.2419" style="stop-color:#F3F0E4;stop-opacity:0.6992"/>
			<stop  offset="0.4341" style="stop-color:#F1F2F2"/>
		</linearGradient>
		<path style="fill:url(#SVGID_00000160167904918634985360000009644403251963283367_);" d="M354.6,1100.9c0.9,1.8,1.7,3.6,2.6,5.4
			h6.3c-5.6-8.3-10.8-17-15.8-25.7C349.8,1087.4,352.1,1094.2,354.6,1100.9z"/>
	</g>
</g>
<g id="wire">
	<path class="st7" d="M606.8,770c-3.1-1.5-5.7-3.7-7.9-6.5c0.7-1,1.4-2.1,2-3.3c5.8-10.5,6.5-22.8,4.9-34.5
		c-1.1-8-3.6-29.2-16.3-24.3c-11.4,4.4-13.2,20.6-12,30.9c1.2,10,3.8,20.8,8.7,30c-6.9,6-16.5,8.5-26.5,7.7
		c-1.4-3.2-2.8-6.4-4.4-9.6c-3.1-6.2-6.5-12.3-10.3-18.1c-3.3-5-6.9-11.1-11.7-14.9c-12.3-9.5-21.8,8-20.7,18.6
		c1.4,13.2,11.9,22.4,23.3,27.6c5.1,2.3,10.8,4.1,16.6,5.2c11.6,30.6,13.9,64.7,5.8,96.7c-1.6,6.2,8.1,8.9,9.6,2.7
		c6.6-26.1,6.8-53.5,0.9-79.7c-1.4-6.3-3.2-12.5-5.3-18.6c10.5,0.1,20.7-2.5,28.6-9c3.3,3.7,7.3,6.6,11.7,8.5
		C604.8,776.4,605.8,773.2,606.8,770z M526.1,754.2c-2.9-3.9-4.5-9.2-3.2-14c0.5-2,2-5.6,4.4-4.7c2.1,0.8,4.3,5,5.5,6.7
		c5.8,8,10.8,16.6,15,25.5C539.5,765.2,531,761,526.1,754.2z M595.8,745.7c-0.6,2.8-1.5,5.4-2.6,7.7c-3.3-7.9-5.6-16.9-5.9-25.3
		c-0.2-4.2,0.2-8.5,2.1-12.3c0.4-0.8,0.9-1.6,1.4-2.3c0.5-0.6,2-1.5,1.7-2.1c0.9,1.1,1.5,5.4,1.8,6.6
		C596.5,726.8,597.7,736.5,595.8,745.7z"/>
	<path class="st7" d="M649.3,728.3c-4.8,3.7-8.4,9.9-11.7,14.9c-3.8,5.8-7.3,11.8-10.3,18.1c-1.5,3.2-3,6.4-4.4,9.6
		c-8.3,0.6-16.4-0.9-22.8-4.9c-2.5,0.9-5.1,1.4-7.9,1.5c-0.6,1.4-1.2,2.8-1.9,4.3c-0.1,0.3-0.2,0.5-0.4,0.8c0.2-0.2,0.4-0.4,0.6-0.6
		c7.9,6.5,18.1,9.1,28.6,9c-2.1,6.1-3.9,12.3-5.3,18.6c-5.9,26.2-5.7,53.6,0.9,79.7c1.6,6.2,11.2,3.6,9.6-2.7
		c-8.1-32-5.8-66,5.8-96.7c5.8-1.1,11.4-2.9,16.6-5.2c11.5-5.2,22-14.4,23.3-27.6C671.1,736.3,661.6,718.8,649.3,728.3z M656.6,755
		c-5,6.8-13.5,11-21.7,13.5c4.2-8.9,9.2-17.5,15-25.5c1.2-1.7,3.5-5.9,5.5-6.7c2.4-0.9,3.8,2.7,4.4,4.7
		C661.1,745.8,659.5,751,656.6,755z"/>
</g>
<g id="shine">
	<g>
		
			<linearGradient id="SVGID_00000075151174196191213640000006907226029049245060_" gradientUnits="userSpaceOnUse" x1="38.0256" y1="430.6763" x2="218.2768" y2="430.6763" gradientTransform="matrix(0.7264 0.6873 -0.6873 0.7264 535.0283 -105.0083)">
			<stop  offset="0" style="stop-color:#FDD25A"/>
			<stop  offset="0.517" style="stop-color:#F6EAAA"/>
			<stop  offset="1" style="stop-color:#FFFFFF"/>
		</linearGradient>
		<path style="fill:url(#SVGID_00000075151174196191213640000006907226029049245060_);" d="M335.8,188.7
			c-44.8,31.1-89.3,63.2-124.1,104L383,373.3L335.8,188.7z"/>
	</g>
	<g>
		
			<linearGradient id="SVGID_00000141446493649599046450000006935154058324552866_" gradientUnits="userSpaceOnUse" x1="608.276" y1="239.5071" x2="790.0506" y2="239.5071" gradientTransform="matrix(0.1125 0.9936 -0.9936 0.1125 759.5229 -519.9236)">
			<stop  offset="0" style="stop-color:#FDD25A"/>
			<stop  offset="0.517" style="stop-color:#F6EAAA"/>
			<stop  offset="1" style="stop-color:#FFFFFF"/>
		</linearGradient>
		<path style="fill:url(#SVGID_00000141446493649599046450000006935154058324552866_);" d="M671.6,122.4c-54-5.5-108.4-10-161-1.6
			l79.8,173.6L671.6,122.4z"/>
	</g>
	<g>
		
			<linearGradient id="SVGID_00000174567674531994161440000000354930562332221859_" gradientUnits="userSpaceOnUse" x1="866.1924" y1="216.4155" x2="1047.5167" y2="216.4155" gradientTransform="matrix(-0.5856 0.8106 -0.8106 -0.5856 1607.4908 -346.6136)">
			<stop  offset="0" style="stop-color:#FDD25A"/>
			<stop  offset="0.517" style="stop-color:#F6EAAA"/>
			<stop  offset="1" style="stop-color:#FFFFFF"/>
		</linearGradient>
		<path style="fill:url(#SVGID_00000174567674531994161440000000354930562332221859_);" d="M977.6,293
			c-36.3-40.9-73.6-81.4-118-111.1l-56.2,182.8L977.6,293z"/>
	</g>
	<g>
		
			<linearGradient id="SVGID_00000092451124691031901380000010454423250178320036_" gradientUnits="userSpaceOnUse" x1="-260.854" y1="503.8166" x2="-81.2252" y2="503.8166" gradientTransform="matrix(-0.9759 0.2183 -0.2183 -0.9759 919.6091 1090.9639)">
			<stop  offset="0" style="stop-color:#FDD25A"/>
			<stop  offset="0.517" style="stop-color:#F6EAAA"/>
			<stop  offset="1" style="stop-color:#FFFFFF"/>
		</linearGradient>
		<path style="fill:url(#SVGID_00000092451124691031901380000010454423250178320036_);" d="M1061.9,625.9
			c-0.4-55.1-1.8-110.4-15.7-162.5l-161.6,99L1061.9,625.9z"/>
	</g>
	<g>
		
			<linearGradient id="SVGID_00000095313149552274287570000015561550925864485519_" gradientUnits="userSpaceOnUse" x1="132.7536" y1="544.6216" x2="312.1279" y2="544.6216">
			<stop  offset="0" style="stop-color:#FDD25A"/>
			<stop  offset="0.517" style="stop-color:#F6EAAA"/>
			<stop  offset="1" style="stop-color:#FFFFFF"/>
		</linearGradient>
		<path style="fill:url(#SVGID_00000095313149552274287570000015561550925864485519_);" d="M152.8,463.6
			c-11.4,53.8-22,108.1-19.7,162l179.1-60.8L152.8,463.6z"/>
	</g>
</g>
<g id="metal">
	<rect x="525.9" y="874" class="st13" width="134.6" height="27.6"/>
	<rect x="525.9" y="908.2" class="st13" width="134.6" height="27.6"/>
	<rect x="525.9" y="942.5" class="st13" width="134.6" height="27.6"/>
	<path class="st13" d="M585.8,957.8c-9.4-0.6-18.7-1.2-28.1-1.5c-3.3-0.1-6.6-0.2-9.9-0.1c-1.3,0-2.6,0.1-3.9,0.2
		c-0.3,1.9-0.5,3.8-0.5,5.8c0,22.3,22.3,40.3,49.8,40.3c27.5,0,49.8-18.1,49.8-40.3c0-0.2,0-0.5,0-0.7
		C623.9,960.6,604.8,959.1,585.8,957.8z"/>
</g>
<g id="face">
	<path class="st7" d="M736.2,464c-25.3-27.1-69.8-26.6-94.1,1.7c-3.5,4.1-4,10.1,0,14.1c3.6,3.6,10.6,4.1,14.1,0
		c17.4-20.3,47.4-21.3,65.8-1.7C730.8,487.5,744.9,473.4,736.2,464z"/>
	<path class="st7" d="M547.8,464.2c-25.3-27.1-69.8-26.6-94.1,1.7c-3.5,4.1-4,10.1,0,14.1c3.6,3.6,10.6,4.1,14.1,0
		c17.4-20.3,47.4-21.3,65.8-1.7C542.5,487.8,556.6,473.6,547.8,464.2z"/>
	<path class="st7" d="M529.6,534.5c36.1,26.2,99.6,25.7,134.2-1.6c5-4,5.7-9.8,0-13.7c-5.1-3.5-15.1-4-20.2,0
		c-24.8,19.6-67.7,20.6-93.9,1.6C537.2,511.7,517.1,525.4,529.6,534.5z"/>
</g>
</svg>
