<svg xmlns="http://www.w3.org/2000/svg" xmlns:xlink="http://www.w3.org/1999/xlink" viewBox="0 0 700 500"><defs><style>.cls-1,.cls-11,.cls-12{fill:none;}.cls-2{clip-path:url(#clip-path);}.cls-3{fill:#ffd581;}.cls-4{fill:#87222b;}.cls-5{fill:#a32934;}.cls-6{fill:#793816;}.cls-7{fill:#57280f;}.cls-8{fill:#d3dce3;}.cls-9{fill:#fff;}.cls-10{fill:#2c5b6d;}.cls-11{stroke:#2c5b6d;stroke-width:0.87px;}.cls-11,.cls-12{stroke-miterlimit:10;}.cls-12{stroke:#fff;stroke-linecap:round;stroke-width:4px;}.cls-13{fill:#120a05;}</style><clipPath id="clip-path"><path class="cls-1" d="M148.55,247.92C243,174.39,177.23,107.43,367.74,45c74.7-24.48,183.86-3.88,177,89s-50,87.38,9.56,129.85-8.95,142.89-82.87,181.79c-83.23,43.81-190.89-18.09-264.31,0C65.3,480.56,69.2,309.66,148.55,247.92Z"/></clipPath></defs><title>Young Black Female Student with an Idea01</title><g id="_55" data-name="55"><g class="cls-2"><path class="cls-3" d="M148.55,247.92C243,174.39,177.23,107.43,367.74,45c74.7-24.48,183.86-3.88,177,89s-50,87.38,9.56,129.85-8.95,142.89-82.87,181.79c-83.23,43.81-190.89-18.09-264.31,0C65.3,480.56,69.2,309.66,148.55,247.92Z"/><path d="M299.26,279.16c3.44-4.6,49,17.42,52.73,13.67,24.65-24.78,35.81-14.74,84.07-14-8.56-23.42-22.22-142-68.65-151.62-37.54-7.82-80.9,15.61-87.42,44C275.42,191.08,284.73,251.9,299.26,279.16Z"/><path class="cls-4" d="M312.54,440.69c.12,7.54-15.95,15.95-23.92,16.39-1.24.07-3-4.16-4.95-11.39C272.89,406.51,254,279.18,258.5,270.58a7.53,7.53,0,0,1,2.39-2.77c6.87-4.77,20.43,4.32,20.43,4.32S312.06,409.5,312.54,440.69Z"/><path class="cls-5" d="M283.68,445.7c-10.87,6.36-33.63,10.5-39.8,9.8-.89-.1-1.44-.31-1.55-.62-1.11-3.1-37.88-169.23-23.7-177.49s42.14-9.72,42.14-9.72l.12.15a7.53,7.53,0,0,0-2.39,2.77C254,279.18,272.89,406.51,283.68,445.7Z"/><path class="cls-4" d="M273.9,464.62c-21,2.53-30-7.53-30-7.53v-1.59c6.17.71,28.93-3.43,39.8-9.8,2,7.23,3.7,11.46,4.95,11.39A23,23,0,0,1,273.9,464.62Z"/><path class="cls-6" d="M379,250.9a32.78,32.78,0,0,1-1-3.35c-11,8.59-27.48,9.7-42.68,7.26-7.1,5.87-24.45,8.39-27.35,8.77l-.42.05s.66,1.34,1.95,3.5l6.06,16.45s24.84,26.74,56.32,22.12,34.38-42.84,34.38-42.84S382.67,260.76,379,250.9Z"/><path class="cls-7" d="M378,247.55a56,56,0,0,1-1.48-10.07c-4.85,5.26-11.47,9.77-20.12,10.14-7.2.3-12.89-3.6-17.18-8.61.6,5.37.35,11.22-2.63,14.58a11.55,11.55,0,0,1-1.27,1.22C350.5,257.25,367,256.14,378,247.55Z"/><path class="cls-6" d="M327.64,232.63a59.53,59.53,0,0,0,13.87,13.58c5.95,4,13.45,6.8,21.94,5.12,7.07-1.4,11.68-6.53,14.67-12.41,5-9.85,5.53-21.81,5.53-21.81s4.94-9.57,3-17.75S382.14,189,380,191.74h0c-6.54-14.33-8.33-21.72-17.25-26.26-7.69-3.91-26.17.81-34,6.61s-16.28,15.34-8.56,40.28c-4.78-2.53-6.61-2.37-7.29-1.3-.51.79-.38,2.09-.36,3.15C312.62,216.72,319.14,234.41,327.64,232.63Z"/><path class="cls-8" d="M459.15,318.6,453,321l-19,7.48-11.07,4.35-.73,6.34v122L293,459.88l-1.33-22.6c4.89-9.59,8.62-23.27,11.42-38.78q.43-2.37.83-4.8v0c3.82-23.23,5.71-49.9,6.43-73,.77-25.07.17-45.92-.86-53.55,5.7,9.61,23.67,35.43,49.93,31.11,32.17-5.29,46.83-35.38,46.83-35.38a44,44,0,0,1,21.51,4.4c12.26,6.09,19.89,17.51,24.56,28A93.48,93.48,0,0,1,459.15,318.6Z"/><path class="cls-5" d="M310.33,320.68c-.72,23.09-2.61,49.77-6.43,73v0q-.4,2.43-.83,4.8c-2.8,15.51-6.53,29.19-11.42,38.78.12-.75.22-1.76.3-3,.27-4,.39-10.41.4-18.45,0-14.42-.34-34.06-.84-54.35-.24-9.68-.5-19.51-.78-29-.88-30.14-1.87-57.5-2.14-64.69l1-.58-6.75-8.38c3.64.4,20.54,2.38,25.13,4.75a4,4,0,0,1,.76.49c.27.23.53,1.29.77,3.06C310.5,274.76,311.1,295.61,310.33,320.68Z"/><polygon points="295.19 293.53 322.87 293.53 342.81 336.72 312.24 338.05 295.19 293.53"/><path class="cls-6" d="M335.61,338.05c2.1,2,1.33,7-3.21,7.42.44,4.65-10.3,6.86-13.4,9.19s-5.09,8.86-8.32,16.61a99,99,0,0,0-6.78,22.4v0c-.25,1.33-.49,2.74-.73,4.24,0,.19-.06.38-.1.57-1.11,5.59-5.49,12-10.72,17.32-6.45,6.51-14.18,11.23-18.64,10.39-8.2-1.55-12.18-14-12.4-31,0-1.57.4-6.5.67-6.8,6.11-6.72,15.69-11.39,20.15-14.47,2.83-1.95,6.33-7.2,9.38-12.46,3.88-6.71,7-13.45,7-13.45a47,47,0,0,0-.89-7.53c-.88-4.87,1.22-16.5,2.81-17.39a42.49,42.49,0,0,1,9.9-2.42c3.95-.52,8-.5,9.89,1.09,4.1,3.43-1.22,6.68-1.22,6.68s20.93-3,22,1.4S336.72,336.06,335.61,338.05Z"/><path class="cls-7" d="M290.72,332.48l-32.35-6.85c-.08,1.61-.15,3.19-.2,4.76a143.57,143.57,0,0,0,32.7,7.16C290.82,335.85,290.77,334.16,290.72,332.48Z"/><path class="cls-6" d="M291.5,361.47c-.19-8-.41-16-.64-23.92a143.57,143.57,0,0,1-32.7-7.16A284.42,284.42,0,0,0,260.59,380c10.71-2.32,19.9-8.69,28.8-15C290.11,363.83,290.82,362.65,291.5,361.47Z"/><path class="cls-7" d="M260.59,380c.51,3.55,1,6.38,1.38,8.39,6.11-6.72,15.69-11.39,20.15-14.47,2.19-1.51,4.79-5,7.27-9C280.48,371.31,271.3,377.69,260.59,380Z"/><path class="cls-8" d="M290.72,332.48l-32.35-6.85c.47-9.22,1.38-19.17,2.93-29.67,2.47-16.8,14.4-21.71,14.4-21.71h0L288.55,267c0,.23,0,.5,0,.81C288.85,275,289.84,302.34,290.72,332.48Z"/><path class="cls-6" d="M451.6,409.58c-5.66.35-11.91-2.55-17.15-6.62-6.14-22.26-.38-61.13-.46-74.46q0-.46,0-.87c-.07-2.39-.19-4.44-.36-6.25-.8-8.6-2.74-11.51-6.05-17.24-4-6.94-4.67-18.29-4.67-20.82s2.54-9.74,4.27-13.88a8,8,0,0,0,.57-2.17c.39-3.28-1.11-6.15.1-7.57,1.47-1.73,5.07,1.73,5.07,1.73s.53-7.61.53-11.34,2.27-10.15,5.21-10.15,1.2,21.76,1.2,21.76,3.34,4,3.91,5.87,5.7,5.07,8.91,8,4.54,5.34.53,16.82c-.35,1-.64,2-.9,2.9-2.29,8.57-.83,15.27.71,25.72.24,1.66.49,3.41.72,5.27,1.87,14.95,9.88,31.23,12,44.58S464.68,408.77,451.6,409.58Z"/><path class="cls-7" d="M434.45,403c-6.87-5.34-11.23-12.72-11.68-17.4-.58-6-.17-29.76-.58-46.36l.73-6.34L434,328.5C434.07,341.83,428.31,380.69,434.45,403Z"/><polygon class="cls-4" points="289.57 267.21 288.58 267.79 288.58 267.79 276.81 273.63 276.82 273.08 282.12 260.28 282.72 258.82 282.75 258.75 282.81 258.83 282.81 258.83 289.57 267.21"/><path class="cls-9" d="M466.35,136.07a20.43,20.43,0,1,0-38,10.48,54.27,54.27,0,0,1,6.73,18.53h21.61a55.75,55.75,0,0,1,6.81-18.66A20.32,20.32,0,0,0,466.35,136.07Z"/><path class="cls-10" d="M434.3,161.57h23.25a0,0,0,0,1,0,0v5.5a8.62,8.62,0,0,1-8.62,8.62h-6a8.62,8.62,0,0,1-8.62-8.62v-5.5a0,0,0,0,1,0,0Z"/><path class="cls-11" d="M444.1,161.57V137.31a3.33,3.33,0,0,0-3.33-3.33h-1.84a3.33,3.33,0,0,0-3.33,3.33h0a3.33,3.33,0,0,0,3.33,3.33h9.23"/><path class="cls-11" d="M448,161.57V137.31a3.33,3.33,0,0,1,3.33-3.33h1.84a3.33,3.33,0,0,1,3.33,3.33h0a3.33,3.33,0,0,1-3.33,3.33h-9.23"/><path d="M312.93,211.07c.68-1.07,2.51-1.23,7.29,1.3-6.71-21.7,20.93-46,20.93-46s29.34,5.57,38.92,27.07l-.05-1.68c0-.3,4.56-23-8.76-36.82-5-5.22-15.24-10.89-22.5-11-11.54-.18-38.06,8-45.25,17.65C296.18,171.38,300.59,196.17,312.93,211.07Z"/></g><line class="cls-12" x1="414.07" y1="87.04" x2="424.07" y2="105.04"/><line class="cls-12" x1="436.07" y1="66.04" x2="439.07" y2="102.71"/><line class="cls-12" x1="454.4" y1="81.71" x2="450.74" y2="102.71"/><line class="cls-12" x1="479.74" y1="79.71" x2="461.74" y2="106.71"/><path class="cls-13" d="M335.29,165.37a17.44,17.44,0,0,0-4.92-1.44,11.17,11.17,0,0,0-4.83.11,1.47,1.47,0,0,0-.7.44.53.53,0,0,0,0,.45,2.78,2.78,0,0,0,.38.82l.73,1a12.06,12.06,0,0,1,2.22,5.33,7.17,7.17,0,0,1-.33,3.21,7.81,7.81,0,0,1-1.72,2.78,11.16,11.16,0,0,1-2.42,1.9,23.1,23.1,0,0,1-2.54,1.24c-1.59.71-3.17,1.38-4.52,2.11a6.84,6.84,0,0,0-1.58,1.14c-.34.39-.34.53-.33.76a3.32,3.32,0,0,0,.5,1.3c.3.52.83,1.24,1.31,1.91a45.76,45.76,0,0,1,3.14,4.51,7.12,7.12,0,0,1,.73,1.88,4.82,4.82,0,0,1,.1,1.4,4.34,4.34,0,0,1-.43,1.57,5.2,5.2,0,0,1-1.73,2,9.72,9.72,0,0,1-1.6.89c-1,.43-1.8.7-2.67,1l-2.49.82a27.71,27.71,0,0,0-4.26,1.68,2.9,2.9,0,0,0-.42.29.75.75,0,0,0,.15-.22,1.61,1.61,0,0,0,.17-.75,1.4,1.4,0,0,0-.15-.64,3.6,3.6,0,0,0,.48.42,13,13,0,0,0,3.83,1.68l1.26.39a12.2,12.2,0,0,1,1.61.61,4.29,4.29,0,0,1,1.54,1.17,3.49,3.49,0,0,1,.54.94,3.35,3.35,0,0,1,.22,1.35,3.52,3.52,0,0,1-.64,1.86,4.89,4.89,0,0,1-1.14,1.15,9.21,9.21,0,0,1-.8.53,19.61,19.61,0,0,1-5.63,2.21l-2.51.57a6.19,6.19,0,0,0-.79.24c-.17.06-.11.09,0-.09a.83.83,0,0,0,.2-.41,1.4,1.4,0,0,0,0,.47,11,11,0,0,0,.57,1.94,16.87,16.87,0,0,0,2,3.9,8.48,8.48,0,0,0,1.31,1.46,12,12,0,0,0,1.77,1.26c.19.12.42.26.68.45l.43.33a5,5,0,0,1,.53.52,3.88,3.88,0,0,1,.92,1.82,4.15,4.15,0,0,1,0,1.77,7.2,7.2,0,0,1-.77,1.86c-.27.48-.54.89-.8,1.28-1.8,2.56-2.69,5.17-1.68,7.28a5,5,0,0,0,1,1.49,6,6,0,0,0,1.46,1.1,6.85,6.85,0,0,0,1.92.52c.76.13,1.57.17,2.58.31a7.87,7.87,0,0,1,.86.17,3.73,3.73,0,0,1,1.21.53,2.61,2.61,0,0,1,.73.75,2.52,2.52,0,0,1,.39,1.05,3.09,3.09,0,0,1-.18,1.46,6.62,6.62,0,0,1-.85,1.57,9.73,9.73,0,0,1-1,1.19c-1.39,1.37-2.86,2.36-4,3.39a5.59,5.59,0,0,0-.69.72c-.17.22-.2.35-.22.33s0,.12.18.32a3.89,3.89,0,0,0,.82.58,13.57,13.57,0,0,0,2.22.94,17.88,17.88,0,0,0,2.38.64,16.4,16.4,0,0,0,5,.1,5.34,5.34,0,0,1,1.41,0,1.42,1.42,0,0,1,.72.39,1.67,1.67,0,0,1,.36.67,8.46,8.46,0,0,1,.07,2.65,9.36,9.36,0,0,0-.5-2.49.82.82,0,0,0-.75-.56,4.86,4.86,0,0,0-1.17.19,16.67,16.67,0,0,1-10.71-.49,6.25,6.25,0,0,1-1.39-.77,3,3,0,0,1-1.18-1.82,3.23,3.23,0,0,1,.45-2.13,7.94,7.94,0,0,1,.94-1.29c1.28-1.44,2.63-2.5,3.59-3.67a6.24,6.24,0,0,0,.6-.84,3.09,3.09,0,0,0,.32-.74s0-.08,0,.19a1.18,1.18,0,0,0,.43.75c.13.1.12.07,0,.06l-.42,0a16.53,16.53,0,0,1-5.72-.73,7.77,7.77,0,0,1-1.54-.81,10.52,10.52,0,0,1-1.29-1,9.52,9.52,0,0,1-2.1-2.61,9.16,9.16,0,0,1-1.08-3.28,10.59,10.59,0,0,1,.11-3.35,15.76,15.76,0,0,1,2.36-5.6c.2-.33.4-.66.53-.94a2.09,2.09,0,0,0,.21-.53,1,1,0,0,0,0,.48,1.67,1.67,0,0,0,.32.69c.2.19-.12-.06-.45-.23a17.51,17.51,0,0,1-2.52-1.65,14.07,14.07,0,0,1-2.27-2.29,20.56,20.56,0,0,1-2.89-5.23,16.53,16.53,0,0,1-.93-3,7.25,7.25,0,0,1-.12-2.12,5.08,5.08,0,0,1,1.14-2.78,5.71,5.71,0,0,1,2.15-1.55,11.6,11.6,0,0,1,1.68-.56l2.55-.6a15.64,15.64,0,0,0,4-1.54l.29-.18s.05-.08-.21.26a2.39,2.39,0,0,0-.41,1.26,2.64,2.64,0,0,0,.17,1,2.72,2.72,0,0,0,.19.39,2.66,2.66,0,0,0,.19.27c.48.53.51.42.48.43a7.27,7.27,0,0,0-.82-.31l-1.22-.39a18.33,18.33,0,0,1-5.56-2.65,8.84,8.84,0,0,1-1.43-1.33,5.64,5.64,0,0,1-.74-1.14,4.43,4.43,0,0,1-.45-1.82,4.22,4.22,0,0,1,.47-2,4.91,4.91,0,0,1,.92-1.25,7.67,7.67,0,0,1,1.68-1.23,16.87,16.87,0,0,1,2.83-1.2c.89-.3,1.76-.55,2.6-.8l2.47-.71c.78-.23,1.62-.49,2.22-.73a5.08,5.08,0,0,0,.69-.33c.15-.09.12-.12,0,.09a.72.72,0,0,0-.07.43,1.86,1.86,0,0,0-.2-.54,18.72,18.72,0,0,0-1.18-1.93l-1.43-2.19c-.48-.77-.95-1.47-1.46-2.48a7.47,7.47,0,0,1-.87-3.64,5.25,5.25,0,0,1,.59-2.19A6,6,0,0,1,312,181.3a11.06,11.06,0,0,1,2.72-1.74,46.32,46.32,0,0,1,5.06-1.9,20,20,0,0,0,2.22-.84,7.76,7.76,0,0,0,1.78-1.13,4.29,4.29,0,0,0,1.55-3.39A9.54,9.54,0,0,0,324,168a7.23,7.23,0,0,1-1.14-2.79,2.35,2.35,0,0,1,.71-1.94,3.19,3.19,0,0,1,1.57-.75,8.64,8.64,0,0,1,2.83,0,17.45,17.45,0,0,1,7.34,2.89Z"/><path class="cls-13" d="M338.75,164.42a35.61,35.61,0,0,0-3.4-4.48,25.71,25.71,0,0,0-1.94-2,9.69,9.69,0,0,0-2.11-1.53c-.32-.18-.75-.2-.61-.15s.08-.1,0,.53a2.25,2.25,0,0,1-.54,1.12,2.35,2.35,0,0,1-1.11.65,5.47,5.47,0,0,1-1.8.1c-1-.09-1.94-.25-2.77-.27a2.67,2.67,0,0,0-1.8.39,2.37,2.37,0,0,0-.62,1.48,22.71,22.71,0,0,0-.25,2.62,24.15,24.15,0,0,0,.39,5.24c.08.43.17.86.27,1.3s.21.83.32,1.45a3.54,3.54,0,0,1,0,.38v.11a2,2,0,0,1-.17.88,2.08,2.08,0,0,1-1,1.07,2.27,2.27,0,0,1-1.22.22,2.84,2.84,0,0,1-.6-.15l-.22-.09-.3-.15-.7-.41c-.4-.24-.77-.46-1.14-.65a6.92,6.92,0,0,0-2-.76,1.49,1.49,0,0,0-.6,0,.38.38,0,0,0-.2.13,3,3,0,0,0-.57,1.28,5.94,5.94,0,0,0-.26,2,9.68,9.68,0,0,0,.37,2.18,16.65,16.65,0,0,1,.37,1.64,5.12,5.12,0,0,1,0,1.43,4,4,0,0,1-.66,1.75,6.92,6.92,0,0,1-.59.71c-.19.16-.37.31-.57.45a5.72,5.72,0,0,1-1.05.6,7.37,7.37,0,0,1-2.09.6,14.26,14.26,0,0,1-3.49,0,24.68,24.68,0,0,0-2.47-.22h-.09a1.41,1.41,0,0,0,.69-.39,1.7,1.7,0,0,0,.53-.93c0-.15,0-.19,0-.12a4.13,4.13,0,0,0,.24.76,9.89,9.89,0,0,0,.43,1,14.56,14.56,0,0,0,1.24,2,25.91,25.91,0,0,1,1.8,2.66,5.32,5.32,0,0,1,.63,3.08,4.68,4.68,0,0,1-.65,1.78,6.43,6.43,0,0,1-.47.67l-.46.46a5.88,5.88,0,0,1-.88.72,6.19,6.19,0,0,1-.85.54,12,12,0,0,1-1.7.8,20.8,20.8,0,0,1-3.17.85c-.47.1-.9.18-1.23.27s-.27.09-.41.12l-.14.06a.88.88,0,0,0,.36-.44c0-.06.05-.11,0-.11a.59.59,0,0,1,0,.19,6.16,6.16,0,0,0,.46,1.7,9.57,9.57,0,0,0,1.19,1.86,8,8,0,0,1,1.1,1.93,5.25,5.25,0,0,1,.16,3.16,7.24,7.24,0,0,1-.44,1.2c-.16.33-.33.61-.51.91a12.87,12.87,0,0,1-1.07,1.46,24.18,24.18,0,0,1-4.84,4.16A12.41,12.41,0,0,0,294,215.6l-.07.07s0,0,0,0,.08-.15.07-.29a1,1,0,0,0-.05-.5.15.15,0,0,1,0,.06s.09.12.13.18.21.28.34.42a11.29,11.29,0,0,0,.8.82c.58.56,1.29,1.12,2.09,1.84a10.33,10.33,0,0,1,2.38,2.93,7.46,7.46,0,0,1,.71,2,6.67,6.67,0,0,1,.15,1,5.72,5.72,0,0,1,0,1.18,4.66,4.66,0,0,1-.27,1.32,5.17,5.17,0,0,1-.59,1.21,7.77,7.77,0,0,1-.76,1c-.25.23-.53.49-.77.68-1,.75-1.84,1.21-2.25,1.54-.14.09-.12.12-.2.16s0,0,0,0,0-.09,0-.1,0,0,0,0a.21.21,0,0,1,0,.08,3.31,3.31,0,0,0,.64,1.31,3,3,0,0,0,1.42.85c.34.12.82.25,1.38.44a4.73,4.73,0,0,1,2.21,1.47,6.2,6.2,0,0,1,.45.73,7.26,7.26,0,0,1,.23.72,2.53,2.53,0,0,1,.1.65l0,.6a8.08,8.08,0,0,1-.34,1.92,10.66,10.66,0,0,1-1.57,3.07c-.62.85-1.26,1.6-1.82,2.29a6.93,6.93,0,0,0-1.05,1.56s-.12-.09,0,.05a.37.37,0,0,1,.05.1l.17.13a2.14,2.14,0,0,0,.37.27,5,5,0,0,0,2.06.66,26.8,26.8,0,0,0,2.73.08,4.58,4.58,0,0,1,1,.14,2.31,2.31,0,0,1,.71.33,1.88,1.88,0,0,1,.63.74,2.42,2.42,0,0,1,.18,1.37,5.42,5.42,0,0,1-.21.89,21.39,21.39,0,0,1-1.23,2.74,22.52,22.52,0,0,1-1.53,2.5l-.83,1.16a5.89,5.89,0,0,0-.64,1l0,.1s0-.09,0-.08,0,0,0,0a2.17,2.17,0,0,0,.44.33,12.85,12.85,0,0,0,1.21.61c1.69.77,3.49,1.39,5.27,2a51,51,0,0,1-5.58-1.16,12.24,12.24,0,0,1-1.4-.48,3.27,3.27,0,0,1-.75-.43,1.26,1.26,0,0,1-.22-.22,1,1,0,0,1-.17-.4,1.63,1.63,0,0,1,0-.6,6,6,0,0,1,.64-1.5l.66-1.24c.42-.82.79-1.65,1.12-2.49a19.69,19.69,0,0,0,.82-2.52,2.93,2.93,0,0,0,.06-.5c0-.12-.05-.18,0,0s.3.3.24.28h-.38a26.81,26.81,0,0,1-2.92.23,7.88,7.88,0,0,1-3.37-.76,5.5,5.5,0,0,1-.82-.48l-.41-.28-.42-.43a3.28,3.28,0,0,1-.7-1.14,3.52,3.52,0,0,1-.18-1.39,4.2,4.2,0,0,1,.26-1.15,5.31,5.31,0,0,1,.4-.88,14.23,14.23,0,0,1,.85-1.38c.56-.82,1.08-1.55,1.51-2.27a7.49,7.49,0,0,0,.85-2,4,4,0,0,0,.1-.87c0-.18-.07-.22.05,0s.13.12-.18,0-.78-.18-1.34-.34a7.64,7.64,0,0,1-3.45-1.9c-.24-.25-.46-.52-.68-.78a9.13,9.13,0,0,1-.55-.83,5.35,5.35,0,0,1-.46-.91,4.46,4.46,0,0,1-.36-1.07l-.12-.62a4.27,4.27,0,0,1,0-.71,4.13,4.13,0,0,1,.3-1.47,5.24,5.24,0,0,1,.69-1.24,7.65,7.65,0,0,1,.79-.84c1-.9,1.86-1.34,2.33-1.77.12-.1.18-.18.28-.26s.1-.12.11-.16,0,0,0-.12a2.48,2.48,0,0,0-.09-.62,2.15,2.15,0,0,0-.26-.64,5.22,5.22,0,0,0-1.26-1.35c-.62-.52-1.41-1.11-2.22-1.82-.41-.35-.82-.74-1.21-1.16-.2-.2-.39-.43-.58-.66a4.14,4.14,0,0,1-.3-.38l-.35-.54a4.9,4.9,0,0,1-.73-3.18,4.85,4.85,0,0,1,.54-1.62,5.06,5.06,0,0,1,.38-.62l.38-.48a15.89,15.89,0,0,1,2.63-2.29,18.86,18.86,0,0,0,3.69-3.22,5,5,0,0,0,.82-1.27,0,0,0,0,0,0,0,.37.37,0,0,0,0,.13.5.5,0,0,1,0,.13s0,.1,0,.09-.11-.19-.34-.49a15.25,15.25,0,0,1-1.82-2.91,10.47,10.47,0,0,1-.64-1.79c-.07-.31-.16-.59-.22-.93s-.1-.68-.14-1a12.24,12.24,0,0,1,0-1.23,6.77,6.77,0,0,1,.36-1.48,5.17,5.17,0,0,1,2.2-2.51,7.74,7.74,0,0,1,1.14-.52c.31-.1.68-.22.94-.28.58-.14,1.08-.23,1.54-.32a15.48,15.48,0,0,0,2.29-.56A6.17,6.17,0,0,0,303,191a1.66,1.66,0,0,0,.35-.21c.1-.07.23-.15.22-.16l.05,0a.29.29,0,0,0-.08.09s-.17.3-.14.48c0,.48.07.52,0,.37-.2-.4-.8-1.2-1.37-2a20.31,20.31,0,0,1-1.68-2.83,12.14,12.14,0,0,1-.66-1.62,8.94,8.94,0,0,1-.47-2,5.35,5.35,0,0,1,0-1.52,4,4,0,0,1,1.14-2.17,4.09,4.09,0,0,1,1.95-1,5.88,5.88,0,0,1,1.31-.12,26,26,0,0,1,3.15.37,9.45,9.45,0,0,0,2.15.12,2.11,2.11,0,0,0,.63-.14c.06,0,.25-.09.18-.08s0,0,0,0a.38.38,0,0,0-.14.16c0,.06-.1.15-.12.24a2,2,0,0,1,0,.21c0,.16,0,.05,0,0,0-.24-.11-.61-.22-1.12a13.22,13.22,0,0,1-.39-3.4,10.88,10.88,0,0,1,.68-3.52,7,7,0,0,1,2.33-3.47,5.07,5.07,0,0,1,2.38-1,6.13,6.13,0,0,1,2.21.14,11.24,11.24,0,0,1,3.2,1.41c.45.28.88.57,1.27.83l.5.34s.08,0,0,0l-.06,0a1.45,1.45,0,0,0-.43-.1,2,2,0,0,0-1.14.21,2.08,2.08,0,0,0-.94,1,1.92,1.92,0,0,0-.16.8v0s0,.1,0,0l-.19-1.33c-.07-.49-.13-1-.17-1.49a27.81,27.81,0,0,1,.07-6,26.06,26.06,0,0,1,.54-3,6.61,6.61,0,0,1,.66-1.73,4.25,4.25,0,0,1,1.46-1.55,4.46,4.46,0,0,1,1.95-.62,7.33,7.33,0,0,1,1.72.06c1,.15,2,.43,2.82.59a4,4,0,0,0,1,.1c.18-.06.08.1.2-.13,0,0,0,0,0-.09l.06-.24a3,3,0,0,1,.18-.51,1.83,1.83,0,0,1,1-1,1.9,1.9,0,0,1,1.25,0,3.71,3.71,0,0,1,.82.41,11,11,0,0,1,2.21,2.08,24.94,24.94,0,0,1,1.73,2.32A31.47,31.47,0,0,1,338.75,164.42Z"/><path class="cls-13" d="M335.29,154.17a49.68,49.68,0,0,1-3.55-3.75,19.82,19.82,0,0,0-3.62-3.41,2.69,2.69,0,0,0-1.91-.51,2.84,2.84,0,0,0-1.56,1.1,9.8,9.8,0,0,0-1.23,2c-.19.35-.34.74-.51,1.11s-.35.83-.56,1.24a13.08,13.08,0,0,1-1.48,2.43,6.75,6.75,0,0,1-5.6,2.79c-1,0-1.86-.06-2.44,0a1.49,1.49,0,0,0-1.09.56,5.46,5.46,0,0,0-.86,1.58,10.79,10.79,0,0,1-1.58,2.75,6.93,6.93,0,0,1-3,2.18c-.57.21-1.1.34-1.45.43s-.46.19-.27.1.23-.26.2-.1a5.34,5.34,0,0,0-.06.72,18.93,18.93,0,0,0,.11,2.19,15.16,15.16,0,0,1,.1,1.52,8.12,8.12,0,0,1-.21,1.88,6.08,6.08,0,0,1-.9,2.05,5.8,5.8,0,0,1-1.72,1.64,8.47,8.47,0,0,1-3.61,1.14,26.06,26.06,0,0,1-2.9.1h-1.19a5.29,5.29,0,0,0-.72.06s0,0,.27-.12a2,2,0,0,0,.83-1,1.61,1.61,0,0,0,.11-.79c0-.08,0,0,0,0a5.11,5.11,0,0,0,.36.7,11.49,11.49,0,0,1,.77,1.59,7.23,7.23,0,0,1,.37,4.18,8.32,8.32,0,0,1-1.78,3.5c-1.44,1.7-2.88,2.75-3.64,3.69a1.83,1.83,0,0,0-.47.78,1.38,1.38,0,0,0,.2.58l.19.31.21.32c.08.13.17.27.25.41a7.32,7.32,0,0,1,.79,2,6,6,0,0,1,0,2.57,6.39,6.39,0,0,1-1,2.19,10.79,10.79,0,0,1-2.49,2.48c-.8.59-1.54,1.07-2.16,1.51a8.34,8.34,0,0,0-1,.85,1.27,1.27,0,0,0,.08-.82c-.08-.29-.14-.26,0-.14a3.33,3.33,0,0,0,.52.51l.6.5c.23.2.46.42.68.65a7.57,7.57,0,0,1,1.86,3.54,9.12,9.12,0,0,1,0,3.63,16.83,16.83,0,0,1-.87,2.92c-.69,1.76-1.48,3.32-2,4.73a8.1,8.1,0,0,0-.55,1.8,2,2,0,0,0,0,.44.26.26,0,0,0,0,.16l0,.06,0,0,0,0,.08.07a7.2,7.2,0,0,1,.7.64,6,6,0,0,1,1.17,1.68,6.46,6.46,0,0,1,.42,3.78,20.93,20.93,0,0,1-.71,2.75,9.66,9.66,0,0,0-.46,2,1.38,1.38,0,0,0,.29,1.09,2.8,2.8,0,0,0,.61.53l.09.07.18.11c.13.08.26.17.39.26a4,4,0,0,1,.8.77,3,3,0,0,1,.56,2.66,5,5,0,0,1-.85,1.67c-.61.83-1.21,1.43-1.74,2-1.09,1.21-1.84,2.37-1.62,3.43s1.39,2.35,2.69,3.28q.49.37,1,.71l1.12.71a2.74,2.74,0,0,1,1.05,1.37,3.94,3.94,0,0,1,.18,1.54,29.12,29.12,0,0,1-1.33,5.09,8.31,8.31,0,0,0-.38,2.46,2.76,2.76,0,0,0,1,2.18,2.89,2.89,0,0,1-1.4-2.14,8.8,8.8,0,0,1,.07-2.64,34.74,34.74,0,0,0,.72-5,1.64,1.64,0,0,0-.78-1.56c-.09-.05-.33-.16-.53-.25l-.6-.28q-.6-.29-1.19-.62a12.78,12.78,0,0,1-2.27-1.63,6.11,6.11,0,0,1-1.74-2.61,5.07,5.07,0,0,1,.18-3.36,11.65,11.65,0,0,1,1.46-2.55c.53-.73,1.08-1.4,1.44-2a1.74,1.74,0,0,0,.28-.62c0-.07,0,.27,0,.24l-.15-.09-.15-.08-.28-.15a6.47,6.47,0,0,1-1.44-1,5.25,5.25,0,0,1-1.15-1.65,5.72,5.72,0,0,1-.43-1.92,11.45,11.45,0,0,1,.35-3.09,17.39,17.39,0,0,0,.43-2.27,2,2,0,0,0-.19-1.25,1.54,1.54,0,0,0-.34-.38,2.79,2.79,0,0,0-.27-.21l-.36-.28c-.14-.12-.28-.24-.42-.38a5,5,0,0,1-1.23-2.05,6.1,6.1,0,0,1-.25-2.11,12.28,12.28,0,0,1,.67-3.18c.62-1.81,1.34-3.35,1.83-4.81a6.55,6.55,0,0,0,.48-3.51,2,2,0,0,0-.57-.93l-.26-.23-.41-.3a9.11,9.11,0,0,1-1.38-1.23A5.28,5.28,0,0,1,280,202.2a4.51,4.51,0,0,1,0-1.79,4.87,4.87,0,0,1,.55-1.5,7.07,7.07,0,0,1,1.39-1.7,15.74,15.74,0,0,1,1.23-1c.77-.57,1.45-1,2-1.49a5.56,5.56,0,0,0,1.16-1.11c.15-.28,0,0,.06-.13a1.61,1.61,0,0,0-.16-.35l-.09-.14-.14-.22c-.16-.26-.33-.51-.48-.78s-.3-.58-.43-.9a7.59,7.59,0,0,1-.33-1,6.39,6.39,0,0,1-.1-2.41,7.58,7.58,0,0,1,1.85-3.73c1.49-1.67,2.87-2.64,3.63-3.59a2.62,2.62,0,0,0,.6-1,1.37,1.37,0,0,0-.1-.86,5.55,5.55,0,0,0-.35-.73,10.42,10.42,0,0,1-.77-1.61,6.09,6.09,0,0,1-.31-1.22,4.18,4.18,0,0,1,.21-2.06,3.8,3.8,0,0,1,.72-1.18,4,4,0,0,1,.94-.76,4.82,4.82,0,0,1,1.48-.54,8.64,8.64,0,0,1,1.84-.14c.5,0,1,0,1.38.05a21.56,21.56,0,0,0,2.25,0,3.66,3.66,0,0,0,1.29-.25c.15-.1.17,0,.3-.38a2.75,2.75,0,0,0,.11-.67c0-.3,0-.52,0-1.05a18.63,18.63,0,0,1,0-2.95,8.62,8.62,0,0,1,.38-1.81,4.53,4.53,0,0,1,1.57-2.22,5,5,0,0,1,2.1-.85c.49-.09.8-.14,1-.2a2.37,2.37,0,0,0,1.19-.7,6.53,6.53,0,0,0,1.11-1.61,8.73,8.73,0,0,1,2-2.69,5.35,5.35,0,0,1,3.56-1.35c1.13,0,2,.18,2.7.23a4.19,4.19,0,0,0,1.83-.19,7.14,7.14,0,0,0,3-2.89c.23-.33.42-.69.63-1s.43-.79.68-1.17a11.73,11.73,0,0,1,1.72-2.23,4.47,4.47,0,0,1,2.8-1.42,4.19,4.19,0,0,1,2.87,1.05,18.84,18.84,0,0,1,3.41,4.06C333.28,151.4,334.21,152.83,335.29,154.17Z"/><polygon class="cls-6" points="338.77 168.59 341.15 157.78 341.55 158.98 336.14 152.88 335.8 152.49 335.94 152.12 339.58 142.67 337.39 152.55 337.19 151.79 343.45 157.02 343.93 157.42 343.85 158.22 342.72 169.22 338.77 168.59"/><path class="cls-13" d="M333.66,143.33c-2-1.29-3.93-2.74-5.91-4a23.23,23.23,0,0,0-3-1.63,6.27,6.27,0,0,0-1.42-.45,1.07,1.07,0,0,0-.82.08,2.26,2.26,0,0,0-.16.45c0,.08,0,.17-.05.26l-.14.54a5.72,5.72,0,0,1-.47,1.14,6.3,6.3,0,0,1-1.61,1.92,9.14,9.14,0,0,1-2,1.18c-1.28.57-2.52.9-3.37,1.28a1.93,1.93,0,0,0-.72.46c0,.07.1-.12.1,0a2.24,2.24,0,0,0,.07.33l0,.12.06.3a4.33,4.33,0,0,1,.08.94,4,4,0,0,1-.73,2.24,4.49,4.49,0,0,1-1.58,1.35,8.13,8.13,0,0,1-2.54.78c-.73.12-1.4.17-2,.21-1.28.07-2.48.06-3.61.1a15.51,15.51,0,0,0-2.9.29c-.32.06-.46.25-.14,0a1.43,1.43,0,0,0,.36-.65c.05-.21,0-.3,0-.27a2.59,2.59,0,0,0,.1.27l.2.5c.07.22.15.42.21.66a5.94,5.94,0,0,1,0,3.48,5.75,5.75,0,0,1-2.19,2.87,10,10,0,0,1-2.25,1.16c-1.37.51-2.58.77-3.63,1.08a14,14,0,0,0-1.38.45,5.6,5.6,0,0,0-.57.28,1.08,1.08,0,0,0,.18-.31.88.88,0,0,0,.06-.39c0-.06,0,0,0,.08l.14.39a6.73,6.73,0,0,1,.22.73,6.26,6.26,0,0,1-.09,3.26,7.2,7.2,0,0,1-1.41,2.52,15.26,15.26,0,0,1-3.32,2.79c-1.07.7-2.11,1.28-3,1.86a10,10,0,0,0-1.09.8c-.28.23-.33.4-.29.13a.66.66,0,0,0-.06-.36s0,0,0,0v0l.19.31a5.08,5.08,0,0,1,.66,3.14,9.86,9.86,0,0,1-1.76,4.19c-1.42,2.14-3,3.87-4,5.66a4,4,0,0,0-.66,2.33,2.1,2.1,0,0,0,.41,1,7.1,7.1,0,0,1,1.12,1.9,6.85,6.85,0,0,1,.1,4.18c-.3,1.25-.79,2.33-1.08,3.41a5.55,5.55,0,0,0-.09,3.21,6.55,6.55,0,0,0,2,2.76,6.53,6.53,0,0,1-2.7-2.45,6.32,6.32,0,0,1-.61-3.77c.12-1.25.37-2.43.48-3.52a4,4,0,0,0-1.29-3.83,4.91,4.91,0,0,1-1.31-2.1,5.62,5.62,0,0,1-.15-2.46,9.53,9.53,0,0,1,.58-2.1,68,68,0,0,1,3.52-6.4,5.74,5.74,0,0,0,.83-2.36c0-.23-.06-.21-.1-.27s0,0-.05-.06L279,175a4.74,4.74,0,0,1-.41-.82,4.18,4.18,0,0,1-.23-2.11,5.5,5.5,0,0,1,1.53-2.86,14.19,14.19,0,0,1,1.65-1.45c1.05-.8,2-1.46,2.9-2.12a10,10,0,0,0,2-1.85,1.48,1.48,0,0,0,.29-.58.48.48,0,0,0,0-.25l-.22-.56a6.16,6.16,0,0,1-.37-1.65,5,5,0,0,1,.31-2.13,5,5,0,0,1,1.16-1.77,7.5,7.5,0,0,1,2.45-1.55,19.51,19.51,0,0,1,2-.68c1.22-.35,2.33-.64,3.18-1a4.37,4.37,0,0,0,.91-.43c.17-.12,0-.06,0,.14s0,.21-.06,0c0,0,0-.12-.06-.18l-.12-.33a7.39,7.39,0,0,1-.41-1.43,5.17,5.17,0,0,1,0-2,4.49,4.49,0,0,1,1.19-2.19,6,6,0,0,1,3-1.54,18.1,18.1,0,0,1,4.18-.27l3.5.1c.54,0,1.06,0,1.5,0a5.39,5.39,0,0,0,.88-.13s-.07,0-.2.25a1,1,0,0,0-.18.58c0,.05,0,.07,0,.05h0s0-.09,0-.13l0-.32a6.19,6.19,0,0,1,0-1.44,5,5,0,0,1,.46-1.67,4.69,4.69,0,0,1,1.1-1.43,6.38,6.38,0,0,1,2.37-1.24c1.38-.41,2.48-.56,3.41-.86a3.62,3.62,0,0,0,2-1.15,2.74,2.74,0,0,0,.29-.46c0-.1.07-.15.13-.3s.14-.38.23-.58a4.38,4.38,0,0,1,.8-1.19,3.39,3.39,0,0,1,1.39-.89,4,4,0,0,1,2.67.15,8.94,8.94,0,0,1,1.83,1,20.72,20.72,0,0,1,2.88,2.38C330.58,139.69,332.11,141.51,333.66,143.33Z"/><path class="cls-13" d="M333.66,135c-1.26-1.17-2.45-2.4-3.68-3.58a22.21,22.21,0,0,0-3.79-3.18,3.54,3.54,0,0,0-1.9-.59,2.34,2.34,0,0,0-1.5.82,6.62,6.62,0,0,0-.67.83c-.28.35-.54.74-.85,1.09a11.39,11.39,0,0,1-2.11,2,9.13,9.13,0,0,1-2.73,1.34,12,12,0,0,1-2.93.44c-.93,0-1.81,0-2.47.07a2.63,2.63,0,0,0-.75.17.78.78,0,0,0-.34.27,3.79,3.79,0,0,0-.59,1.44l-.17.68a6.42,6.42,0,0,1-.32.86,5,5,0,0,1-1.31,1.74,4.69,4.69,0,0,1-2.11,1,6.7,6.7,0,0,1-1.91.07,17.18,17.18,0,0,1-2.9-.6c-.84-.23-1.63-.46-2.28-.57s-1.13,0-.91,0,.19-.12.16-.07a4.39,4.39,0,0,0-.11.48,6,6,0,0,0-.08.88,14.42,14.42,0,0,1-.13,1.53,10.56,10.56,0,0,1-1,3.24,9.22,9.22,0,0,1-2.18,2.84,13.39,13.39,0,0,1-5.75,2.75c-.92.23-1.82.4-2.54.57a4.88,4.88,0,0,0-.72.21s.08,0,.4-.3a2.12,2.12,0,0,0,.5-.79,2.22,2.22,0,0,0,.12-.94,1.45,1.45,0,0,0-.15-.56l.24.34a12.53,12.53,0,0,1,.85,1.4,7.29,7.29,0,0,1,.92,4.06,5.74,5.74,0,0,1-.79,2.42,7.11,7.11,0,0,1-1.38,1.66,15.53,15.53,0,0,1-2.6,1.8c-.78.45-1.47.84-2,1.21a3.21,3.21,0,0,0-.94.85c-.05.13-.06.06,0,.39a3.2,3.2,0,0,0,.2.6c0,.12.11.25.17.38l.11.2.05.1a4.09,4.09,0,0,1,.28.63,4.17,4.17,0,0,1,.14,2.18,5.81,5.81,0,0,1-.4,1.25,10.88,10.88,0,0,1-.86,1.54c-.56.84-1.09,1.53-1.58,2.21a14.54,14.54,0,0,0-2.1,3.51,1.29,1.29,0,0,0-.09.64.47.47,0,0,0,.11.19v0l.1.12.2.25a6.31,6.31,0,0,1,.37.54,5.7,5.7,0,0,1,.55,1.19,7.28,7.28,0,0,1,0,4.1,18.8,18.8,0,0,1-1,2.83c-.74,1.67-1.5,3.15-2,4.52A7.67,7.67,0,0,0,274,192a1.72,1.72,0,0,0,.11,1,2,2,0,0,0,.84.76l.39.2.7.35a8,8,0,0,1,1.53,1,6.63,6.63,0,0,1,2.08,3.32A9.85,9.85,0,0,1,280,202c-.14,1.94-.5,3.59-.43,4.82a2.35,2.35,0,0,0,.34,1.25,2.51,2.51,0,0,0,1.18.82l.26.1a3.47,3.47,0,0,1,.68.3,2.7,2.7,0,0,1,.8.71,2.51,2.51,0,0,1,.47,1.12,3,3,0,0,1-.18,1.55,5.37,5.37,0,0,1-.41.84,26.78,26.78,0,0,1-1.58,2.24,14.08,14.08,0,0,0-2.29,3.93,3.7,3.7,0,0,0,.63,3.64,6.23,6.23,0,0,0,.74.81c.13.13.29.25.43.38a3.38,3.38,0,0,1,.63.69,4.48,4.48,0,0,1,.56,3,13.68,13.68,0,0,1-1.79,5,16.62,16.62,0,0,0,.39-5,3,3,0,0,0-.73-1.81,1.46,1.46,0,0,0-.29-.2c-.2-.13-.39-.26-.58-.4a8.51,8.51,0,0,1-1.11-1,6.45,6.45,0,0,1-1.61-2.69,6.76,6.76,0,0,1-.11-3.19,16.13,16.13,0,0,1,2.32-5.15c.45-.73.93-1.47,1.2-2.05a1.53,1.53,0,0,0,.12-.32c0-.06,0,0,0,.29a1.27,1.27,0,0,0,.22.54,1.2,1.2,0,0,0,.31.3l.09.06-.35-.1a6.53,6.53,0,0,1-3.11-1.85,6.35,6.35,0,0,1-1.46-3.46,45.6,45.6,0,0,1,.08-5.4,5.18,5.18,0,0,0-.24-1.77,1.72,1.72,0,0,0-.68-.89,3.19,3.19,0,0,0-.61-.34l-.46-.19c-.25-.1-.51-.22-.77-.35a7.21,7.21,0,0,1-2.92-2.61,6.85,6.85,0,0,1-.93-4,12.65,12.65,0,0,1,.64-3.19c.61-1.87,1.37-3.45,1.94-4.93a13.35,13.35,0,0,0,.64-2,2.08,2.08,0,0,0,.06-1,.1.1,0,0,0,0,0h0l-.09-.1a6.37,6.37,0,0,1-1.23-2,6.84,6.84,0,0,1-.12-4.38,18,18,0,0,1,2.93-5.35c.51-.71,1-1.38,1.39-2a5.26,5.26,0,0,0,.39-.69c0-.06,0-.08,0,0a1.8,1.8,0,0,0,.09.92,2,2,0,0,0,.15.33l-.1-.18-.19-.36c-.12-.26-.25-.51-.36-.79a9,9,0,0,1-.54-1.84,6.77,6.77,0,0,1,0-2.27,6.22,6.22,0,0,1,.85-2.26,8.84,8.84,0,0,1,2.72-2.67c.88-.58,1.69-1,2.39-1.41a10.54,10.54,0,0,0,1.63-1.06,1.53,1.53,0,0,0,.27-.28s0,0,0,0a1.8,1.8,0,0,0-.28-.85,6.81,6.81,0,0,0-.47-.79l-.15-.22c-.11-.16-.21-.3-.32-.5a4.35,4.35,0,0,1-.59-1.75,3.56,3.56,0,0,1,1-2.9,4.42,4.42,0,0,1,1.49-1,9.19,9.19,0,0,1,1.74-.48c.94-.18,1.73-.29,2.47-.45a8.18,8.18,0,0,0,3.5-1.39,4.34,4.34,0,0,0,1.53-2.78,9.07,9.07,0,0,0,.12-1,10.87,10.87,0,0,1,.24-1.66,6.49,6.49,0,0,1,.75-1.92,4.72,4.72,0,0,1,2-1.83,5.1,5.1,0,0,1,2.36-.47,8.4,8.4,0,0,1,1.75.26c1,.25,1.85.57,2.64.84a13.71,13.71,0,0,0,2.07.6,2.85,2.85,0,0,0,.65,0l.21,0a.64.64,0,0,0,.24-.27,3.48,3.48,0,0,0,.16-.32l.07-.2.12-.35a7.11,7.11,0,0,1,1.79-3,4.55,4.55,0,0,1,1.82-1.05,6.39,6.39,0,0,1,1.76-.25c1,0,1.87.11,2.64.15a7,7,0,0,0,4.07-.86,8.6,8.6,0,0,0,1.77-1.34c.29-.25.54-.55.82-.84a8.89,8.89,0,0,1,1.08-1,4.47,4.47,0,0,1,3.11-1.09,5.1,5.1,0,0,1,2.8,1.25,23,23,0,0,1,3.52,4Z"/><path class="cls-13" d="M343.09,163.63a17,17,0,0,1,3.81-4.5,14.72,14.72,0,0,1,2.5-1.72,7.51,7.51,0,0,1,1.48-.61,3.31,3.31,0,0,1,1.88,0,2.18,2.18,0,0,1,1,.65,2.67,2.67,0,0,1,.52,1,5,5,0,0,1,.15,1.8,15.78,15.78,0,0,0-.06,2.77,6,6,0,0,0,1.83,4.3,6.31,6.31,0,0,0,4.39,1.17c.81,0,1.81-.17,2.78-.27s2-.22,3-.28a15.76,15.76,0,0,1,3.31.07,7.61,7.61,0,0,1,1.93.53,5.33,5.33,0,0,1,1.94,1.41,5.52,5.52,0,0,1,1.11,2.12,7.9,7.9,0,0,1,.28,2,13.57,13.57,0,0,1-.09,1.75l-.18,1.51-.4,2.91a11.76,11.76,0,0,0-.16,2.37c0,.25.11.31,0,.09s-.37-.31-.25-.27a3.37,3.37,0,0,0,.75,0c.33,0,.77-.06,1.22-.12,1.8-.23,3.71-.6,5.75-.88a22.9,22.9,0,0,1,3.31-.24,8.52,8.52,0,0,1,2.14.28,5.08,5.08,0,0,1,1.45.65,4.17,4.17,0,0,1,1.47,1.66,4.38,4.38,0,0,1,.42,2,5.73,5.73,0,0,1-.23,1.44,9,9,0,0,1-.84,1.94,15.3,15.3,0,0,1-2.16,2.87c-.76.82-1.55,1.54-2.24,2.18-.34.31-.67.63-.82.82s-.09.18.1-.21a2.37,2.37,0,0,0,.08-1.55,2.52,2.52,0,0,0-.52-1,2,2,0,0,0-.28-.27l-.22-.16c-.46-.26-.41-.17-.34-.18l.41,0c.34,0,.81,0,1.19,0a14.41,14.41,0,0,0,2.42-.26c.84-.15,1.71-.37,2.75-.6a13.68,13.68,0,0,1,1.84-.29,5.89,5.89,0,0,1,2.84.41,5.2,5.2,0,0,1,2.46,2.28,8.4,8.4,0,0,1,.79,2.15,19.84,19.84,0,0,1,.41,3.43,18.91,18.91,0,0,1-.77,6.83,14.39,14.39,0,0,1-1.58,3.28l-.82,1.21c-.07.11-.14.24-.09.14a1.65,1.65,0,0,0,.05-.87,1.26,1.26,0,0,0-.26-.62s0,0,0,0l.1.1a8.82,8.82,0,0,0,.86.63l.57.36.7.47a17.25,17.25,0,0,1,1.37,1,12.07,12.07,0,0,1,4.11,6.23,9.73,9.73,0,0,1,.11,4,10.88,10.88,0,0,1-1.36,3.59,8.4,8.4,0,0,1-1.23,1.65,10.23,10.23,0,0,1-1.48,1.26,21.71,21.71,0,0,1-2.8,1.62c-.4.2-.78.42-.86.48a2.07,2.07,0,0,0,.26-.48,1.86,1.86,0,0,0,.08-.85,1.51,1.51,0,0,0-.19-.52c-.12-.17-.11-.11,0,0a3.41,3.41,0,0,0,.32.27,5.06,5.06,0,0,0,.88.5,22.46,22.46,0,0,0,2.49.9,24.21,24.21,0,0,1,3,1.11,5.49,5.49,0,0,1,1.93,1.44,3.53,3.53,0,0,1,.74,1.64,3.68,3.68,0,0,1-.13,1.65,5.65,5.65,0,0,1-1.1,1.92,12.45,12.45,0,0,1-1.2,1.25,20.19,20.19,0,0,1-5.35,3.52,24.42,24.42,0,0,1-2.93,1.08l-1.39.41c-.41.11-.87.32-.83.27a.82.82,0,0,0,.14-.26.7.7,0,0,0,0-.36c0-.12,0,0,0,.13a6.33,6.33,0,0,0,.71,1,6,6,0,0,0,1.8,1.59,4.18,4.18,0,0,0,2.33.34,4.77,4.77,0,0,1,1.8.16,2.93,2.93,0,0,1,1.54,1.27,8.78,8.78,0,0,1,1,3,5.06,5.06,0,0,1,0,1.65,2.69,2.69,0,0,1-.81,1.53c-.84.76-1.82,1-2.29,1.73a3.68,3.68,0,0,0-.09,2.73,3.75,3.75,0,0,1-.31-2.94c.48-1,1.56-1.45,2-2.11a2.45,2.45,0,0,0,.21-2.32,7.37,7.37,0,0,0-1.13-2.36c-.52-.6-.82-.53-1.83-.4a6.34,6.34,0,0,1-3.41-.2,8.32,8.32,0,0,1-2.8-1.92,9,9,0,0,1-1.14-1.28,3,3,0,0,1-.53-1.21,2.11,2.11,0,0,1,.1-1.08,2.29,2.29,0,0,1,.56-.84,5.47,5.47,0,0,1,1.78-1l1.37-.53a21.07,21.07,0,0,0,2.46-1.15,16.51,16.51,0,0,0,4.12-3.24,8.41,8.41,0,0,0,.75-.92,1.87,1.87,0,0,0,.32-.62s0,.06,0,.21a.82.82,0,0,0,.12.34c.06.08-.15-.09-.46-.2a21.84,21.84,0,0,0-2.49-.72,26.62,26.62,0,0,1-3.05-.91,9.87,9.87,0,0,1-1.71-.84,8.32,8.32,0,0,1-.85-.61,4.43,4.43,0,0,1-1-1.13,3.26,3.26,0,0,1-.44-1.2,3.11,3.11,0,0,1,.15-1.57,3.88,3.88,0,0,1,1.16-1.61,11.09,11.09,0,0,1,1.6-1.09,21.74,21.74,0,0,0,2.2-1.38,5,5,0,0,0,.71-.65,3.18,3.18,0,0,0,.47-.72A4.8,4.8,0,0,0,397,219a6.63,6.63,0,0,0-2.42-3.21,11.67,11.67,0,0,0-1-.68l-1.18-.74a14.19,14.19,0,0,1-1.51-1.08c-.14-.11-.29-.26-.43-.4s-.32-.34-.47-.52a4.46,4.46,0,0,1-.9-1.92,4.27,4.27,0,0,1,.23-2.29,6.8,6.8,0,0,1,.59-1.15l.79-1.22a8.4,8.4,0,0,0,.91-2,13.33,13.33,0,0,0,.45-4.72,14.34,14.34,0,0,0-.28-2.36,2.81,2.81,0,0,0-.2-.58,1,1,0,0,0,.39.3c.26.09.22,0,0,0a8.06,8.06,0,0,0-1,.16c-.86.18-1.88.43-3,.61a20.32,20.32,0,0,1-3.39.31c-.59,0-1.1,0-1.73-.06a9.88,9.88,0,0,1-1-.14,4.79,4.79,0,0,1-1.72-.65l-.37-.27a3.9,3.9,0,0,1-.41-.4,3.34,3.34,0,0,1-.77-2.68,3.9,3.9,0,0,1,.11-.5c0-.13.09-.25.14-.38a5.08,5.08,0,0,1,.92-1.4c.49-.54.88-.88,1.26-1.23.74-.67,1.4-1.26,2-1.87a9.69,9.69,0,0,0,1.38-1.76,5.13,5.13,0,0,0,.35-.72c0-.07,0-.09,0,0a1.42,1.42,0,0,0,.16.61,1.49,1.49,0,0,0,.51.58c.14.08.17.07.12.06a3,3,0,0,0-.75-.11,17.74,17.74,0,0,0-2.51.1c-1.83.17-3.75.48-5.83.67-.52,0-1,.09-1.69.09a7.88,7.88,0,0,1-2.15-.25,5,5,0,0,1-1.37-.6,4.22,4.22,0,0,1-1.27-1.23,5,5,0,0,1-.8-2.68,16,16,0,0,1,.39-3.43l.57-2.85.25-1.38a9.3,9.3,0,0,0,.13-1.15,2.44,2.44,0,0,0-.22-1.36A1.89,1.89,0,0,0,369,172a13.88,13.88,0,0,0-2.51-.23c-.91,0-1.87,0-2.84,0s-1.92.08-3.05,0a11.82,11.82,0,0,1-3.34-.59,7.65,7.65,0,0,1-3.07-1.9,7.49,7.49,0,0,1-1.75-3.1,10.87,10.87,0,0,1-.37-3.27,17.84,17.84,0,0,1,.38-3,3.63,3.63,0,0,0,.05-1.1c-.06-.3-.11-.41-.29-.52a1.76,1.76,0,0,0-1-.08,6.13,6.13,0,0,0-1.27.35,14.21,14.21,0,0,0-2.5,1.29A17.77,17.77,0,0,0,343.09,163.63Z"/><path class="cls-13" d="M339.56,164.24a31.6,31.6,0,0,1,.35-5.68,22.89,22.89,0,0,1,.59-2.82,11,11,0,0,1,1.12-2.79,3.63,3.63,0,0,1,.55-.69,1.8,1.8,0,0,1,1-.53,1.73,1.73,0,0,1,1.27.4,2.82,2.82,0,0,1,.37.37l.15.19.08.08c.21.18.14.1.35.07a3.87,3.87,0,0,0,.92-.52c.7-.5,1.43-1.14,2.31-1.71a5.28,5.28,0,0,1,3.45-1,5,5,0,0,1,3.21,2,23.07,23.07,0,0,1,1.75,2.44,27.62,27.62,0,0,1,2.59,5.41c.16.47.32.95.47,1.42l.4,1.3c0,.07,0,0,0,0h0a1.72,1.72,0,0,0-.43-.59,1.87,1.87,0,0,0-1.15-.46,1.79,1.79,0,0,0-1,.26,1.24,1.24,0,0,0-.31.24l0,0s0,0,0,0l.31-.53c.23-.41.49-.85.78-1.29a10.88,10.88,0,0,1,2.24-2.61,6,6,0,0,1,1.88-1,4.87,4.87,0,0,1,2.46-.14,6.78,6.78,0,0,1,3.47,2.1,10.68,10.68,0,0,1,2.06,2.84,13.68,13.68,0,0,1,1.09,3.19c.11.5.21.88.29,1.13,0,0,.07.15,0,0l-.1-.14c0-.07-.15-.09-.17-.14a.27.27,0,0,0-.16-.07,0,0,0,0,1,0,0s.15,0,.23,0a2.31,2.31,0,0,0,.67-.16,10.34,10.34,0,0,0,1.93-1A26.29,26.29,0,0,1,377.3,162a5.73,5.73,0,0,1,1.2-.43,3.92,3.92,0,0,1,2.1.07,3.82,3.82,0,0,1,1.87,1.41,5.17,5.17,0,0,1,.65,1.32,8.71,8.71,0,0,1,.4,1.94,13.46,13.46,0,0,1,.1,1.72,20.26,20.26,0,0,1-.28,3.25,24.17,24.17,0,0,0-.35,2.43c0,.18.09.12-.14-.27,0-.17-.29-.31-.3-.35a.24.24,0,0,0-.09,0h.07a1.14,1.14,0,0,0,.28,0,1.74,1.74,0,0,0,.42,0,7.36,7.36,0,0,0,1,0,15.49,15.49,0,0,0,2.33-.47c.45-.11.94-.24,1.52-.36.26-.06.65-.1,1-.15a7.66,7.66,0,0,1,1.24,0,5.09,5.09,0,0,1,3,1.31,6.67,6.67,0,0,1,.94,1.17c.19.35.39.74.53,1.09l.31,1c.1.32.14.61.2.92a10.4,10.4,0,0,1,.19,1.88,15.39,15.39,0,0,1-.39,3.4,3.43,3.43,0,0,0-.09.6s0-.06,0-.09a.46.46,0,0,1,0-.13.37.37,0,0,0-.06-.11,0,0,0,0,0,0,0,5.3,5.3,0,0,0,1.3.78,20.09,20.09,0,0,0,4.72,1.27,15.78,15.78,0,0,1,3.38.94l.55.27a5.15,5.15,0,0,1,.62.41,4.75,4.75,0,0,1,1.94,4.52l-.09.65a4.49,4.49,0,0,1-.11.48c-.08.29-.14.58-.24.85-.17.56-.38,1.09-.59,1.59-.42,1-.87,1.88-1.2,2.61a4.87,4.87,0,0,0-.52,1.68,1.9,1.9,0,0,0,0,.62,2,2,0,0,0,.16.52s0,0,0,0,0,0,0,0,.08,0,.11.07.18.06.33.1c.58.16,1.51.2,2.88.58a7.93,7.93,0,0,1,1.13.44,5.58,5.58,0,0,1,1.25.88,4.5,4.5,0,0,1,1,1.29,4.68,4.68,0,0,1,.32.7c.06.21.12.43.17.65a4.84,4.84,0,0,1,.15,1.18,5.72,5.72,0,0,1,0,1.07,9.53,9.53,0,0,1-.14,1c-.09.36-.18.71-.29,1.06a8.13,8.13,0,0,1-2.4,3.4c-.46.4-.8.67-1.05.89s-.11.19,0-.2,0-.53,0-.42a3.48,3.48,0,0,0,.4.61,6.57,6.57,0,0,0,1.52,1.28c.67.43,1.46.83,2.34,1.33.22.12.44.24.69.4a8,8,0,0,1,.75.5l.39.29c.14.11.29.26.43.4a3.92,3.92,0,0,1,.43.46c.15.2.3.41.43.62a3.25,3.25,0,0,1,.35.77,3.11,3.11,0,0,1,.2.86,4.07,4.07,0,0,1-.15,1.62c-.07.23-.15.46-.23.68l-.27.5a6.34,6.34,0,0,1-.59.9,8.87,8.87,0,0,1-3,2.4,27.49,27.49,0,0,1-2.75,1.13c-.13.05-.22.11-.14,0a1.38,1.38,0,0,0,.26-.33,1.66,1.66,0,0,0,.21-.74c0-.49-.13-.55-.11-.53a1.89,1.89,0,0,0,.18.27,10.38,10.38,0,0,0,.8.86q.46.46.94.89a25.24,25.24,0,0,0,2,1.62l1.13.79c.2.14.42.29.67.48a4.87,4.87,0,0,1,.89.85,2.9,2.9,0,0,1,.49,1,2.38,2.38,0,0,1,0,1,2.57,2.57,0,0,1-.18.58,4.41,4.41,0,0,1-.65,1,14,14,0,0,1-1.13,1.18,57.9,57.9,0,0,1-4.52,3.72l.28-.3a10.2,10.2,0,0,0-.88,1.24s-.06.13,0,0a1,1,0,0,0-.17-.6.83.83,0,0,0-.22-.23l-.07,0a.68.68,0,0,0,.2.08c.46.14,1.18.29,1.84.52a8.62,8.62,0,0,1,2,1,8.25,8.25,0,0,1,2.82,3.25,13,13,0,0,1,1.22,3.82,15.21,15.21,0,0,1-.41,7.73,11.89,11.89,0,0,1-4.46,6,11.85,11.85,0,0,0,3.49-6.3,13.79,13.79,0,0,0-.43-7c-.61-2.28-1.78-4.39-3.55-5.3a6,6,0,0,0-1.43-.52c-.53-.13-1-.18-1.79-.32a3.76,3.76,0,0,1-.68-.2,2.17,2.17,0,0,1-.48-.26,2.09,2.09,0,0,1-.55-.56,2.17,2.17,0,0,1-.31-1.49,3.4,3.4,0,0,1,.24-.84,11.83,11.83,0,0,1,1.11-1.91l.07-.11.21-.19c1.37-1.21,2.76-2.49,3.95-3.77a10.32,10.32,0,0,0,.76-.92c.09-.12.16-.28.1-.18a1.05,1.05,0,0,0-.07.25,1.87,1.87,0,0,0,0,.64,1,1,0,0,0,.17.38c.09.11-.3-.19-.67-.39l-1.24-.74a24.55,24.55,0,0,1-2.49-1.77q-.6-.48-1.17-1a14.46,14.46,0,0,1-1.18-1.15,6.48,6.48,0,0,1-.66-.86,3.41,3.41,0,0,1-.54-1.85,2.87,2.87,0,0,1,.4-1.41,3.25,3.25,0,0,1,.73-.85,5.38,5.38,0,0,1,1.07-.67c1.1-.51,1.8-.76,2.42-1.14a4.06,4.06,0,0,0,1.35-1.2,1.34,1.34,0,0,0,.16-.3l.07-.12h0s0,.45.07.55a0,0,0,0,0,0,0l-.06,0-.09-.08-.18-.11c-.1-.07-.28-.17-.44-.26l-.54-.29c-.77-.4-1.68-.83-2.62-1.38a11.77,11.77,0,0,1-2.83-2.28,8.64,8.64,0,0,1-1.18-1.72c-.09-.2-.17-.41-.25-.61a3,3,0,0,1-.2-.71,7.5,7.5,0,0,1-.1-.85,6.51,6.51,0,0,1,.12-1,5.19,5.19,0,0,1,1.54-2.51l1.08-1a2.57,2.57,0,0,0,.83-1.16,3,3,0,0,0,0-1.22,0,0,0,0,1,0,0s0,.05,0,.07.07.12.13.18.06.08.1.08,0,0-.19,0c-.45-.13-1.41-.19-2.67-.47-.31-.07-.69-.2-1-.3a8.09,8.09,0,0,1-1.15-.57,5.47,5.47,0,0,1-1.1-.9,4.93,4.93,0,0,1-.84-1.14c-.11-.2-.21-.4-.31-.61a4.26,4.26,0,0,1-.2-.51,7,7,0,0,1-.29-1,7.73,7.73,0,0,1-.2-2.18,10.51,10.51,0,0,1,1-3.74c.43-1,.84-1.8,1.14-2.54a11.28,11.28,0,0,0,.39-1.06c.06-.17.09-.34.14-.51s.06-.21,0-.21a.09.09,0,0,1,0-.05c0-.12,0,.26.21.55.06.15.23.25.22.26s.07,0,0,0l-.08,0a11.91,11.91,0,0,0-2.07-.5,23.67,23.67,0,0,1-6.14-1.77,13.47,13.47,0,0,1-1.58-.88c-.29-.2-.55-.38-.84-.62a7.27,7.27,0,0,1-.9-.91,5.24,5.24,0,0,1-1.19-2.92,7.85,7.85,0,0,1,.19-2.2,9.84,9.84,0,0,0,.31-2.19,6.11,6.11,0,0,0-.29-1.76.71.71,0,0,1-.08-.18s0,0,.07.07a.8.8,0,0,0,.46.23h-.17c-.15,0-.23,0-.43.07s-.76.17-1.23.28a20.72,20.72,0,0,1-3.22.58,11.15,11.15,0,0,1-1.87,0,6.16,6.16,0,0,1-1-.13,5.88,5.88,0,0,1-1.09-.28l-.6-.22a6.38,6.38,0,0,1-.7-.4,4.58,4.58,0,0,1-1.31-1.31,5.18,5.18,0,0,1-.71-3,25,25,0,0,1,.52-3.16,14.88,14.88,0,0,0,.29-2.37,8.17,8.17,0,0,0,0-1.1,4.13,4.13,0,0,0-.12-.83c0-.08,0-.06.06,0a1.52,1.52,0,0,0,.78.55,1.24,1.24,0,0,0,.7.05l-.12,0c-.48.2-1.31.76-2.16,1.27a13.5,13.5,0,0,1-3.12,1.48,7.21,7.21,0,0,1-2.1.32,5.6,5.6,0,0,1-1.17-.1c-.23,0-.45-.09-.68-.16a6.83,6.83,0,0,1-.8-.37,3.86,3.86,0,0,1-1.28-1.24,4.9,4.9,0,0,1-.57-1.25,16,16,0,0,1-.35-1.63,9.18,9.18,0,0,0-.6-2.19,6.17,6.17,0,0,0-1.15-1.77,3,3,0,0,0-1.17-1,.59.59,0,0,0-.33,0,1.74,1.74,0,0,0-.6.29,7.26,7.26,0,0,0-1.53,1.57c-.25.33-.5.69-.76,1.08l-.46.66c-.07.09-.08.12-.2.25l-.15.17a2.62,2.62,0,0,1-.44.36,2.05,2.05,0,0,1-1.08.29,1.87,1.87,0,0,1-1.22-.49,1.78,1.78,0,0,1-.48-.66l0-.1a3.27,3.27,0,0,1-.11-.34c-.15-.59-.22-1-.33-1.44s-.21-.87-.32-1.3a24.33,24.33,0,0,0-1.93-4.93c-.4-.79-.87-1.54-1.35-2.28a2.43,2.43,0,0,0-1.31-1.15,2.88,2.88,0,0,0-1.89.46c-.75.39-1.5.93-2.38,1.45a5.3,5.3,0,0,1-1.63.67,2.2,2.2,0,0,1-1.22-.11,2.13,2.13,0,0,1-.91-.75c-.32-.52-.4-.5-.33-.52s-.35.15-.57.46a16.35,16.35,0,0,0-2.14,5A35.47,35.47,0,0,0,339.56,164.24Z"/><path class="cls-13" d="M338.31,153.49c.49-2,.72-4.09,1.08-6.17a19.86,19.86,0,0,1,.78-3.12,5.2,5.2,0,0,1,2.1-2.89,3.63,3.63,0,0,1,2-.46,6,6,0,0,1,1.81.41,13.82,13.82,0,0,1,3,1.65,19.74,19.74,0,0,0,2.49,1.6,6.3,6.3,0,0,0,2.43.78,3.74,3.74,0,0,0,2.16-.52,22,22,0,0,1,2.95-1.59,5.12,5.12,0,0,1,2.32-.27,5.88,5.88,0,0,1,2.1.68,10.39,10.39,0,0,1,1.61,1.05,9.52,9.52,0,0,0,1.08.73,3.34,3.34,0,0,0,1.87.54,5.59,5.59,0,0,0,1.09-.21,5.28,5.28,0,0,1,2.48-.17,3.88,3.88,0,0,1,1.54.7,4.05,4.05,0,0,1,.54.46,4.81,4.81,0,0,1,.42.46,10.12,10.12,0,0,1,1.1,1.69c.29.54.53,1.06.76,1.58l.32.77c.1.22.16.37.25.54a3.12,3.12,0,0,0,.51.75.81.81,0,0,0,.37.24,2.51,2.51,0,0,0,1.36-.23,22.51,22.51,0,0,0,2.47-1.19c.47-.25,1-.51,1.58-.78a7.74,7.74,0,0,1,1.1-.38,4.29,4.29,0,0,1,1.9-.1,3.49,3.49,0,0,1,1.38.58,3.61,3.61,0,0,1,1,1.06,4.63,4.63,0,0,1,.61,1.72,9.72,9.72,0,0,1,.06,2.19,2.82,2.82,0,0,0,.23,1.56,1.65,1.65,0,0,0,.35.39,4.3,4.3,0,0,0,.74.43,20.87,20.87,0,0,0,2.56.86,14.14,14.14,0,0,1,3.57,1.46,7,7,0,0,1,2,1.82,6.48,6.48,0,0,1,1.06,2.65,8.31,8.31,0,0,1,0,2.38c-.05.46-.06.47-.07.63a2.09,2.09,0,0,0,0,.31c0,.15,0,.15,0,.12s0,0,.16.1a7.3,7.3,0,0,0,2,.58c.94.18,2,.29,3.33.65a6.89,6.89,0,0,1,2.45,1.17,4.62,4.62,0,0,1,1.8,3.65,6.86,6.86,0,0,1-.59,2.71c-.14.34-.3.65-.45,1-.07.14-.13.27-.18.39a1.86,1.86,0,0,0-.11,1.2,4.5,4.5,0,0,0,.91,1.6,47.72,47.72,0,0,0,4.21,4.05,14.47,14.47,0,0,1,2.54,3,6.6,6.6,0,0,1,.91,2.64,5.69,5.69,0,0,1-.57,3.1l-.17.35a.93.93,0,0,0-.07.15,1.31,1.31,0,0,0-.07.21.61.61,0,0,0,0,.29,5.06,5.06,0,0,0,1,1.61,21.77,21.77,0,0,1,2.12,2.91,6.86,6.86,0,0,1,.84,2.47,6,6,0,0,1-.34,2.83,7.16,7.16,0,0,1-.55,1.14c-.1.18-.21.32-.31.48l-.23.34c-.06.08-.08.13-.06,0a1.3,1.3,0,0,0,0-.62,1.17,1.17,0,0,0-.27-.56c-.05-.05,0,0,.08.07a7.78,7.78,0,0,0,1,.58,24.67,24.67,0,0,1,3.06,1.69,8.24,8.24,0,0,1,1.68,1.51,6,6,0,0,1,1.21,2.34,7.3,7.3,0,0,1-.46,4.59,15.79,15.79,0,0,1-1.82,3.19c-.34.47-.69.92-1,1.36-.07.09,0,0-.05,0a3.57,3.57,0,0,0,.78,1.6c.53.77,1.19,1.6,1.83,2.55a10.34,10.34,0,0,1,1.65,3.49,5.68,5.68,0,0,1,0,2.36l-.15.59-.14.39-.28.77c-.38,1-.8,2-1.21,3a26.79,26.79,0,0,0-1.06,2.72,3.51,3.51,0,0,0-.11,2.13,5,5,0,0,0,1.41,2c.33.32.71.63,1.1.93l.61.46c.23.19.48.35.7.57a6,6,0,0,1,1.95,3.2,7.05,7.05,0,0,1-.27,3.54c-.67,2.13-1.71,3.93-2.51,5.83a12.43,12.43,0,0,0-1.29,6,12.36,12.36,0,0,1,.44-6.27c.58-2,1.4-4,1.75-5.92a5.6,5.6,0,0,0-.06-2.65,3.8,3.8,0,0,0-1.47-1.9c-.16-.14-.37-.24-.55-.36l-.68-.42c-.47-.3-.93-.61-1.39-1a7.77,7.77,0,0,1-2.44-2.88,6.39,6.39,0,0,1-.27-4,29,29,0,0,1,1-3.19c.34-1,.66-1.94.93-2.9l.2-.72.09-.35a1.3,1.3,0,0,1,0-.17,1.88,1.88,0,0,0-.1-.74,7.57,7.57,0,0,0-1.21-2l-2-2.42a12.17,12.17,0,0,1-1.05-1.58,5.56,5.56,0,0,1-.73-2.43,4.55,4.55,0,0,1,.92-2.93c.28-.39.55-.78.8-1.17a11.08,11.08,0,0,0,1.16-2.29,2.39,2.39,0,0,0,.15-1.52,2.1,2.1,0,0,0-.92-.92,21.39,21.39,0,0,0-2.46-1.22,12.77,12.77,0,0,1-1.72-.93,5.66,5.66,0,0,1-1.1-.94,4.15,4.15,0,0,1-1-1.93,4.21,4.21,0,0,1,.16-2.16,5.55,5.55,0,0,1,.67-1.33c.15-.22.16-.25.2-.31a1.8,1.8,0,0,0,.11-.18,1.59,1.59,0,0,0,.12-.28.38.38,0,0,0,0-.24,1.74,1.74,0,0,0-.21-.45,19.47,19.47,0,0,0-1.66-2.05,9.82,9.82,0,0,1-2.17-3.73,6.44,6.44,0,0,1-.13-2.81,7,7,0,0,1,.36-1.28,5.66,5.66,0,0,1,.25-.57l.13-.27c.06-.12,0,0,0-.08s0,0,0,.07,0-.06-.15-.27a9.44,9.44,0,0,0-1.55-1.69A48,48,0,0,1,404,185a10.33,10.33,0,0,1-2.07-3.84,7.86,7.86,0,0,1,.31-4.92,10.56,10.56,0,0,1,.48-1c.09-.16.17-.32.22-.45s.14-.48.13-.31a1.27,1.27,0,0,0,.14.52,1.24,1.24,0,0,0,.33.43c.15.1-.05,0-.38-.13-.67-.2-1.7-.35-2.8-.56a12.3,12.3,0,0,1-3.89-1.31,6.25,6.25,0,0,1-2.12-2,6.12,6.12,0,0,1-.93-2.82,7.9,7.9,0,0,1,0-1.25c0-.36.12-.86.11-.92a2.73,2.73,0,0,0,0-.73c-.08-.28,0-.19-.39-.51a10.54,10.54,0,0,0-2.2-.92,24.73,24.73,0,0,1-3.31-1.27,9.47,9.47,0,0,1-1.89-1.26,7.06,7.06,0,0,1-1.59-2,8.18,8.18,0,0,1-.71-4.53,5.56,5.56,0,0,0,0-.93c0-.06,0,0,.13.24a1.67,1.67,0,0,0,.47.49,1.78,1.78,0,0,0,.66.28c.37.05.41,0,.35,0a2.4,2.4,0,0,0-.38.12c-.35.14-.78.34-1.24.56a22.05,22.05,0,0,1-3.23,1.36,8.87,8.87,0,0,1-2.15.39,5.93,5.93,0,0,1-2.6-.45,5.73,5.73,0,0,1-2.12-1.59,7.9,7.9,0,0,1-1.15-1.89c-.14-.3-.26-.64-.35-.9l-.24-.68c-.17-.44-.34-.88-.52-1.27a6.25,6.25,0,0,0-.53-1c-.17-.23-.19-.21,0-.16s-.08,0-.61.09a9.3,9.3,0,0,1-2,.22,7.22,7.22,0,0,1-4-1.37,13.55,13.55,0,0,1-1.43-1.14,6.89,6.89,0,0,0-.94-.74,2.44,2.44,0,0,0-.82-.37,1.55,1.55,0,0,0-.77,0,24,24,0,0,0-2.64,1.2,6.65,6.65,0,0,1-3.91.54,9,9,0,0,1-3.37-1.42,22.13,22.13,0,0,1-2.58-2,11.84,11.84,0,0,0-2.33-1.64,2.72,2.72,0,0,0-2.24-.33,3.8,3.8,0,0,0-1.68,1.92,19.77,19.77,0,0,0-1.08,2.84C339.63,149.51,339.13,151.56,338.31,153.49Z"/><path class="cls-13" d="M335.17,143c1.14-3.38,2.06-6.81,4-10a6.68,6.68,0,0,1,2.08-2.25,3,3,0,0,1,1.93-.44,3.46,3.46,0,0,1,1.77.82c.11.1.22.19.32.29l.25.24a2.82,2.82,0,0,0,.38.32,2.71,2.71,0,0,0,.84.42,4.63,4.63,0,0,0,2,.1c.76-.1,1.57-.29,2.49-.47a7.57,7.57,0,0,1,3.37-.09,4,4,0,0,1,2,1.23,5.23,5.23,0,0,1,1,1.78l.14.43a.57.57,0,0,0,0,.11s0,0,0,0a.64.64,0,0,0-.17-.15s0,0,0,0a7,7,0,0,0,1.73-.57c.72-.31,1.48-.7,2.25-1.11s1.58-.83,2.43-1.24a16,16,0,0,1,2.9-1.12A6.24,6.24,0,0,1,369,131a4.23,4.23,0,0,1,1.43.38,3.9,3.9,0,0,1,1.34,1,5,5,0,0,1,1.06,2.38c.06.33.09.69.11.94a3.41,3.41,0,0,0,.06.38,1,1,0,0,0,.13.32s-.06-.09-.05-.09a2.69,2.69,0,0,0,.37.05,6,6,0,0,0,.88,0c.69-.07,1.5-.23,2.37-.4a25.67,25.67,0,0,1,2.94-.45,8.48,8.48,0,0,1,1.95.06,5.17,5.17,0,0,1,2.56,1.12,5,5,0,0,1,1.57,2.56,6.57,6.57,0,0,1,.19,1.14c0,.24,0,.21,0,.26s0,.07,0,.1c.08.24.07.18.3.38a4.63,4.63,0,0,0,1.45.59c1.37.36,3.07.5,5,.83a10.85,10.85,0,0,1,3.48,1.1,5,5,0,0,1,2.15,2.3,4.78,4.78,0,0,1,.4,1.7,5.43,5.43,0,0,1,0,.75l0,.34,0,.17s0,0,0,0a.42.42,0,0,0,0-.15,2,2,0,0,0,.16.22,7.52,7.52,0,0,0,1.43,1.15c1.27.86,2.85,1.71,4.49,2.79a16.55,16.55,0,0,1,2.54,2,7.64,7.64,0,0,1,2.17,3.67,6.37,6.37,0,0,1,.07,2.46c0,.19-.08.38-.12.57l-.13.46c0,.07-.05.14-.05.21a2.15,2.15,0,0,0,.16,1.11,15.31,15.31,0,0,0,2.43,3.63c1.08,1.32,2.29,2.69,3.44,4.26a16.89,16.89,0,0,1,2.88,5.59,10.33,10.33,0,0,1,.32,3.52c-.05.67-.13,1-.19,1.46l-.2,1.3a13.94,13.94,0,0,0-.29,4.28c.18.86,1.4,2.5,2.34,4,.49.76,1,1.54,1.44,2.32l.69,1.18c.23.44.48.87.68,1.34a17.47,17.47,0,0,1,1.53,5.71,24.34,24.34,0,0,1-.17,5.68,84.82,84.82,0,0,1-2.54,10.51c-1,3.41-1.92,6.82-2.66,10.31a86.3,86.3,0,0,1,1-10.66,97,97,0,0,0,1.23-10.43,16.75,16.75,0,0,0-1.93-9.34c-.18-.34-.41-.66-.62-1L418,196c-.49-.71-1-1.41-1.51-2.11l-1.6-2.13a11,11,0,0,1-1.64-2.9,9.91,9.91,0,0,1-.43-3.47c0-1,.11-1.92.19-2.82l.13-1.34c0-.42.11-1,.11-1.18a5.13,5.13,0,0,0-.24-1.74,11.84,11.84,0,0,0-2.17-3.71c-1-1.26-2.19-2.51-3.41-3.89a18.86,18.86,0,0,1-3.51-5.15,7.61,7.61,0,0,1-.34-5.19l0-.18v-.08a.39.39,0,0,0,0-.18,2.09,2.09,0,0,0-.58-.8,10.92,10.92,0,0,0-1.64-1.26c-1.32-.87-2.89-1.68-4.57-2.8a12.9,12.9,0,0,1-2.62-2.28,6.76,6.76,0,0,1-1.2-2.05,5.6,5.6,0,0,1-.26-2.77l0-.16h0s0,0,0,0a.55.55,0,0,0,0,.09,1.19,1.19,0,0,0,.11.41,1,1,0,0,0,.32.42,6,6,0,0,0-1.59-.45c-1.55-.3-3.41-.45-5.48-1a10,10,0,0,1-3.38-1.56,6.15,6.15,0,0,1-2.45-4c0-.18-.06-.38-.07-.56l0-.4c0-.1,0-.15,0-.17a1.38,1.38,0,0,0,.25.29c.18.15.29.12.14.09a3,3,0,0,0-.71,0,21,21,0,0,0-2.33.28c-.88.13-1.82.29-2.9.36a7.61,7.61,0,0,1-4-.66,4.94,4.94,0,0,1-2-1.87,5.78,5.78,0,0,1-.73-2.18,8.51,8.51,0,0,1-.07-.95v-.39c0-.2-.06-.22.08-.06s.49.28.45.24a1.37,1.37,0,0,0-.55,0,11.61,11.61,0,0,0-2.11.67c-.77.31-1.56.66-2.38,1s-1.67.73-2.6,1.07a12.16,12.16,0,0,1-1.51.45,6.64,6.64,0,0,1-1.91.18,4.08,4.08,0,0,1-1.28-.3,3.29,3.29,0,0,1-1.24-.91,3.57,3.57,0,0,1-.66-1.19c-.07-.18-.11-.39-.14-.53l0-.21a2.17,2.17,0,0,0-.2-.58.42.42,0,0,0-.22-.21,4.6,4.6,0,0,0-1.91,0c-.84.08-1.77.24-2.79.25a7.29,7.29,0,0,1-3.2-.59,5.26,5.26,0,0,1-1.43-1,5.19,5.19,0,0,1-.57-.6l-.35-.43c-.46-.43-.62-.54-1.18-.33a5.41,5.41,0,0,0-1.69,1.45,27.77,27.77,0,0,0-2.81,4.36C336.82,139.84,336,141.44,335.17,143Z"/><path class="cls-13" d="M328.69,138.73a4.09,4.09,0,0,1,1-2.45c.52-.72,1.09-1.41,1.66-2.07s1.12-1.33,1.6-2a6,6,0,0,0,1-2,1.26,1.26,0,0,0-.44-1.36,2.91,2.91,0,0,0-.37-.28l-.22-.15c-.12-.09-.23-.16-.34-.27a3.12,3.12,0,0,1-.7-.81,2.13,2.13,0,0,1-.24-1.6,2.41,2.41,0,0,1,.78-1.21,4.1,4.1,0,0,1,.82-.55,8.08,8.08,0,0,1,1.48-.58,16.79,16.79,0,0,1,2.8-.54,30.29,30.29,0,0,1,11,.8A12.73,12.73,0,0,1,354,126.5a6.81,6.81,0,0,0,.81.78.75.75,0,0,0,.37.18.61.61,0,0,0,.2-.05,2.64,2.64,0,0,0,.56-.31,13.47,13.47,0,0,0,1.65-1.44c.61-.59,1.24-1.25,2.08-1.93a8.1,8.1,0,0,1,1.54-1,4.93,4.93,0,0,1,2.47-.51,4.75,4.75,0,0,1,2.52,1,6.76,6.76,0,0,1,1.43,1.46,13.55,13.55,0,0,1,.87,1.38,8.82,8.82,0,0,0,.54.83,5.09,5.09,0,0,0,1.24,1.2,4.71,4.71,0,0,0,3.23.62,14.53,14.53,0,0,0,2.14-.42c.78-.2,1.56-.45,2.63-.69a7.9,7.9,0,0,1,1-.15,4.81,4.81,0,0,1,1.57.09,3.74,3.74,0,0,1,1.3.58,3.56,3.56,0,0,1,1.11,1.29,4.08,4.08,0,0,1,.41,2.08,9.45,9.45,0,0,1-.12,1c0,.17,0,.33-.07.49a5.78,5.78,0,0,0,0,.84,1.66,1.66,0,0,0,.08.48c0,.07,0,0,0,0a2.68,2.68,0,0,0,.79.24,22.12,22.12,0,0,0,2.27.22,19.09,19.09,0,0,1,3.06.4,8.6,8.6,0,0,1,1.88.67,6.55,6.55,0,0,1,1.91,1.46,7.13,7.13,0,0,1,1.68,4.08,10.58,10.58,0,0,1,0,1.77v.21a2,2,0,0,0,0-.37,1.93,1.93,0,0,0-.16-.6.92.92,0,0,0-.2-.32,3.45,3.45,0,0,0,.51.38c.27.18.61.37,1,.57a34.87,34.87,0,0,1,4.85,3,9.18,9.18,0,0,1,2.49,2.92,6.21,6.21,0,0,1,.41,4.69c-.08.26,0,.15-.05.17a.06.06,0,0,0,0,0,.07.07,0,0,0,0,0,.64.64,0,0,0,.08.25,6.22,6.22,0,0,0,1.06,1.39c1,1.08,2.39,2.19,3.75,3.51a18.19,18.19,0,0,1,2,2.3,8.2,8.2,0,0,1,1.55,3.5,6.47,6.47,0,0,1-.76,4.17,9,9,0,0,1-1,1.5l-.45.5a2.61,2.61,0,0,0-.26.3,2.19,2.19,0,0,0-.49,1.08,3.61,3.61,0,0,0,.3,1.53c.49,1.3,1.5,2.72,2.33,4.65a7.34,7.34,0,0,1,.63,3.59,5.94,5.94,0,0,1-1.7,3.45,8.19,8.19,0,0,1-.62.57l-.16.14s0,0,0,0a1.1,1.1,0,0,0,.11-.19,1.21,1.21,0,0,0,.12-.55,1.12,1.12,0,0,0-.11-.49c-.11-.18-.11-.12,0-.06a12.18,12.18,0,0,0,1.81,1.3,18.5,18.5,0,0,1,4.43,3.6,7.06,7.06,0,0,1,1.44,2.9,6.27,6.27,0,0,1-.17,3.22,9,9,0,0,1-.57,1.39c-.21.42-.53.92-.6,1a2.7,2.7,0,0,0,0,1.94,16.25,16.25,0,0,0,2.5,4.43,13.5,13.5,0,0,1-3.8-3.84,5.81,5.81,0,0,1-.62-1.38,3.34,3.34,0,0,1-.06-1.75,13.1,13.1,0,0,1,.52-1.34,6.64,6.64,0,0,0,.3-1.07c.63-2.86-2.12-4.61-5.14-6.17a14.53,14.53,0,0,1-2.55-1.57,3.35,3.35,0,0,1-.85-1.08,2.58,2.58,0,0,1-.26-1.12,2.62,2.62,0,0,1,.29-1.17,3.18,3.18,0,0,1,.5-.71l.23-.23.08-.09a4.22,4.22,0,0,0,.31-.35,2,2,0,0,0,.49-1.2,3.44,3.44,0,0,0-.45-1.47c-.61-1.25-1.74-2.64-2.66-4.53a8.38,8.38,0,0,1-.86-3.53,7.56,7.56,0,0,1,1.73-4.52l.4-.49a3.87,3.87,0,0,0,.42-.66,1.2,1.2,0,0,0,.14-.88,6.8,6.8,0,0,0-2.16-2.72c-1.18-1.07-2.58-2.1-4-3.48a11.4,11.4,0,0,1-2.16-2.71,6.51,6.51,0,0,1-.73-2.23,5.76,5.76,0,0,1,0-1.33,6.18,6.18,0,0,1,.11-.66l.12-.46c0-.27,0-.18-.05-.38a3.75,3.75,0,0,0-1-1,33.61,33.61,0,0,0-4.09-2.42c-.41-.23-.83-.47-1.29-.76a8.8,8.8,0,0,1-1.55-1.22,4.88,4.88,0,0,1-1-1.38,4,4,0,0,1-.35-1.93v-.12a5.86,5.86,0,0,0,0-.84,1.52,1.52,0,0,0-.18-.71s-.18-.19-.73-.32a13.88,13.88,0,0,0-2.12-.29,26.38,26.38,0,0,1-2.93-.35,8.9,8.9,0,0,1-1.85-.56,6.23,6.23,0,0,1-2-1.38,5.93,5.93,0,0,1-1.32-2.19,7.46,7.46,0,0,1-.38-2.09,11.46,11.46,0,0,1,.07-1.77c0-.27.07-.54.12-.8s.05-.33.06-.32a1.63,1.63,0,0,0,.21.8,2.26,2.26,0,0,0,.69.8,2,2,0,0,0,.7.32c.32.06.31,0,.27,0l-.34,0c-.64.11-1.54.35-2.45.55a19.84,19.84,0,0,1-3,.44,11.57,11.57,0,0,1-3.4-.27,9.22,9.22,0,0,1-3.32-1.53,10.36,10.36,0,0,1-2.41-2.51,14,14,0,0,1-.83-1.39,9,9,0,0,0-.48-.86,3.72,3.72,0,0,0-.35-.45c-.07-.07,0,0,.13,0s.09-.05-.07,0a3.15,3.15,0,0,0-.68.38c-.55.38-1.18.93-1.86,1.51a16.92,16.92,0,0,1-2.43,1.81,6.49,6.49,0,0,1-1.83.74,4.63,4.63,0,0,1-2.39-.08,5.05,5.05,0,0,1-1.88-1.09,10.13,10.13,0,0,1-1-1.1,9.06,9.06,0,0,0-3.66-2.13,27.05,27.05,0,0,0-9.67-1.3,16.12,16.12,0,0,0-2.36.27,5.55,5.55,0,0,0-1,.28c-.28.08-.39.32-.25,0a.44.44,0,0,0,0-.34.44.44,0,0,0,.14.18,2.05,2.05,0,0,0,.16.15l.28.26a5.17,5.17,0,0,1,.58.62,3.81,3.81,0,0,1,.76,1.71,3.48,3.48,0,0,1-.23,1.81,7.16,7.16,0,0,1-1.73,2.4c-.65.65-1.34,1.21-2,1.77s-1.36,1.09-2,1.67A4.08,4.08,0,0,0,328.69,138.73Z"/><path class="cls-13" d="M335.17,159a22.55,22.55,0,0,1,3.38,3.31,19,19,0,0,1,2.67,4.07,8.67,8.67,0,0,1,.89,5.37,5.52,5.52,0,0,1-1.6,2.86,21.08,21.08,0,0,1-2.18,1.64c-1.35.89-2.72,1.68-3.75,2.45a5.44,5.44,0,0,0-1.12,1.1,1.76,1.76,0,0,0-.32.92,4,4,0,0,0,.11,1.3l.49,2.17a23.39,23.39,0,0,1,.71,5.16,11.18,11.18,0,0,1-1.6,5.88,13.36,13.36,0,0,1-1.69,2.29,12.77,12.77,0,0,1-2.17,2,14.65,14.65,0,0,1-2.46,1.39c-.75.33-1.5.67-1.53.67a1.56,1.56,0,0,0,.18-.47c0-.18,0-.12,0,.07a6.32,6.32,0,0,0,.44,1.66c.25.66.5,1.27.84,2.05a10.66,10.66,0,0,1,.84,2.68,8,8,0,0,1,0,2.94,8.38,8.38,0,0,1-1,2.63c-.88,1.53-2,2.62-2.57,3.75a2.35,2.35,0,0,0-.09,1.83,6.86,6.86,0,0,0,1.14,1.94,6.32,6.32,0,0,1-1.91-1.52,3.57,3.57,0,0,1-.71-2.64,9.23,9.23,0,0,1,.75-2.48,20.41,20.41,0,0,0,.77-2.06,5.06,5.06,0,0,0-.11-3.46,8.49,8.49,0,0,0-.87-1.61c-.38-.58-.9-1.32-1.3-2.06a11.27,11.27,0,0,1-1.15-2.68,4.93,4.93,0,0,1-.08-2.23,4.46,4.46,0,0,1,1.4-2.39,13.24,13.24,0,0,1,2.49-1.6,9.41,9.41,0,0,0,1.5-1,7,7,0,0,0,1.16-1.21,8,8,0,0,0,.55-.74,6.34,6.34,0,0,0,.46-.73,5.31,5.31,0,0,0,.58-1.42,6,6,0,0,0,.21-1.53,25,25,0,0,0-.44-4c-.13-.78-.25-1.47-.36-2.38a9.18,9.18,0,0,1,.13-3.31,7.17,7.17,0,0,1,1.73-3.18,9.47,9.47,0,0,1,2.44-1.83,45.39,45.39,0,0,1,4.42-1.92,12.91,12.91,0,0,0,1.75-.8,2.15,2.15,0,0,0,.85-1,6.32,6.32,0,0,0,0-3.71A27.26,27.26,0,0,0,335.17,159Z"/></g></svg>