<svg xmlns="http://www.w3.org/2000/svg" viewBox="0 0 700 500"><defs><style>.cls-1{fill:#ffd581;}.cls-12,.cls-13,.cls-2,.cls-4{fill:none;stroke-miterlimit:10;}.cls-2,.cls-4{stroke:#120803;}.cls-2{stroke-width:5px;}.cls-3{fill:#120803;}.cls-4{stroke-width:7px;}.cls-5{fill:#321709;}.cls-6{fill:#1e0e04;}.cls-7{fill:#a32934;}.cls-8{fill:#d3dce3;}.cls-9{fill:#2c5b6d;}.cls-10{fill:#254d5c;}.cls-11{fill:#fff;}.cls-12{stroke:#d3dce3;stroke-linecap:round;}.cls-12,.cls-13{stroke-width:2px;}.cls-13{stroke:#2c5b6d;}</style></defs><title>Teenage Black Female Student Studying</title><g id="_19" data-name="19"><path class="cls-1" d="M101.5,215.42C145.27,186.34,93.79,71.26,222.62,106c83.08,22.42,108.07-2.3,169.5-51.35s179.26-17.82,172.42,75-49,127.63,10.6,170.09,2.57,188.47-82.87,181.79-190.89-18.09-264.31,0C86.12,516.56,17.76,271.06,101.5,215.42Z"/><path d="M344.63,176.37c-.16,36,20.29,110.38-12.25,110.38-22.71,0-54.37,45.45-87,21.67-30.64-78-5.61-179.84-2-192.31,5-17.3,16.89-30.19,36.07-32.33C317.7,79.51,344.89,117.26,344.63,176.37Z"/><path class="cls-2" d="M299.67,110.87c1.3-6.75-25,9.89-22.83-4.67.86-5.81-2.83-13.5-5.83-6.17s-12.08,2.08-10,7.67c1.79,4.81-10.5,5.61-5.33,9.56s-.33,4.44-2.67,7.61-7.67,6.33-2.33,10.67,8.17,1.93,3.17,8-9.58,7.66-5.46,9.59,12.12-2.23,8.21,4.61-15.5,6.67-8.21,12.33,14.08,5.5,8.52,10.67-8.73,10-3.9,13.83,7.67,4.33,3.58,10.17-11.82,4.83-4.28,10.17,5.13,10.75,0,15.25-7.62,3.92,0,14.58,2.87,20.17,2.12,25.17,3.16-1.25,9.83,11.25-3.83,9.17-3.58,15.84S273,311.37,273,311.37"/><path class="cls-3" d="M275.67,114a10.25,10.25,0,0,0-1.64-1.89c-.61-.57-1.3-1-2-1.59a3,3,0,0,1-.85-1.1,2.52,2.52,0,0,1-.12-1.44,8.76,8.76,0,0,1,1-2.47c.42-.77.86-1.45,1.2-2.18a8.05,8.05,0,0,0,.73-2.19,2.17,2.17,0,0,0-.36-1.76,2.91,2.91,0,0,0-1.69-.82,15,15,0,0,0-4.66.09c-.77.12-1.68.27-2.55.35s-1.75.13-2.62.15c-1.73,0-3.46,0-5.07,0a11.85,11.85,0,0,0-2.21.16,2.06,2.06,0,0,0-.7.24.37.37,0,0,0-.19.22,3.16,3.16,0,0,0,0,1.39l.24,1.21a10.19,10.19,0,0,1,.15,1.53,6.11,6.11,0,0,1-.21,1.78,4.91,4.91,0,0,1-.93,1.8,12.2,12.2,0,0,1-2.3,1.95,6.41,6.41,0,0,0-1.39,1.35,6.64,6.64,0,0,0-.86,1.69,12.53,12.53,0,0,0-.5,2.07c-.13.79-.23,1.56-.27,2.28a4.51,4.51,0,0,0,.1,1.62c.06.11,0,.07.2.25a11.94,11.94,0,0,1,.94,1.07,8.19,8.19,0,0,1,1.38,3.27,14.52,14.52,0,0,1,.23,1.49,13.85,13.85,0,0,1,.1,1.56,6.71,6.71,0,0,1-1.21,3.77,9.17,9.17,0,0,1-2.56,2.39,42,42,0,0,1-4.82,2.44,12,12,0,0,0-1.79,1,1.77,1.77,0,0,0-.68.72,1.28,1.28,0,0,0,.07.65,6.63,6.63,0,0,0,.73,1.56c.82,1.4,1.67,2.77,2.57,4.19.45.72.91,1.45,1.38,2.28a12.32,12.32,0,0,1,1.29,3.07,7.9,7.9,0,0,1-.08,4,13.35,13.35,0,0,1-1.31,3,48,48,0,0,1-3,4.51c-1,1.41-2.14,2.76-3.15,4-.5.64-1,1.26-1.36,1.84a5.12,5.12,0,0,0-.7,1.32c0,.26,0-.16,0-.1a3.56,3.56,0,0,0,.8.8c.23.18.51.37.79.56l1,.62c.75.47,1.5.95,2.26,1.47a21.51,21.51,0,0,1,4.5,4,9.09,9.09,0,0,1,1.82,3.56,7.35,7.35,0,0,1,.15,2.4,7.5,7.5,0,0,1-.61,2.22,10.3,10.3,0,0,1-2.15,3.06,18.05,18.05,0,0,1-2.36,2c-.38.29-.82.56-1.16.8a3.16,3.16,0,0,0-.45.36c-.11.1-.09.13-.09.1a.3.3,0,0,0,.05-.15,3.27,3.27,0,0,0,.28.83,17.93,17.93,0,0,0,1,1.82c.82,1.35,1.83,2.84,2.7,4.54a24,24,0,0,1,1.2,2.7c.18.48.33,1,.48,1.47a8.7,8.7,0,0,1,.33,2.07,6.27,6.27,0,0,1-.52,2.75,6.09,6.09,0,0,1-1.77,2.27,11.41,11.41,0,0,1-3.19,1.67,8.67,8.67,0,0,0-3.12,1.53,1.79,1.79,0,0,0-.44.78,5,5,0,0,0-.17,1.46,13,13,0,0,0,.7,3.81,5.07,5.07,0,0,0,.69,1.32,2.44,2.44,0,0,0,.82.7,7.5,7.5,0,0,0,1.65.56c.41.11.88.23,1.51.45a6.45,6.45,0,0,1,2.23,1.33,5.6,5.6,0,0,1,1.56,2.66,7.64,7.64,0,0,1,.22,2.21,15.71,15.71,0,0,1-.5,3.17c-.24.94-.51,1.81-.8,2.67s-.62,1.75-1,2.61a30.54,30.54,0,0,1-2.69,4.94,35.09,35.09,0,0,1-3.45,4.32c-.61.66-1.22,1.28-1.79,1.87a15.81,15.81,0,0,0-1.35,1.51c-.13.17-.13.26-.08,0a1.37,1.37,0,0,0-.13-.84c-.07-.11,0,0,.14.14a5.74,5.74,0,0,0,.66.51,31.89,31.89,0,0,0,4,2.13c1.43.65,2.91,1.22,4.45,1.76l2.38.82a25.13,25.13,0,0,1,2.66,1,7.78,7.78,0,0,1,1.65,1,4.6,4.6,0,0,1,1.56,2.51,5,5,0,0,1-.19,2.64,8.51,8.51,0,0,1-.76,1.63,19.57,19.57,0,0,1-1.69,2.38,16.7,16.7,0,0,1-2.08,2.12,28.41,28.41,0,0,1-4.56,3.09c-1.5.86-3.07,1.6-4.18,2.36-.56.35-.85.8-.76.59s0-.24,0-.13a1.81,1.81,0,0,0,.31.51,16.14,16.14,0,0,0,3.42,2.76,16.77,16.77,0,0,0,8.61,2.6c1.59.09,3.19,0,5,0a8.83,8.83,0,0,1,3,.38,3,3,0,0,1,1.71,1.53,3.83,3.83,0,0,1,.29,1.92,11.15,11.15,0,0,1-.7,2.78c-.31.84-.66,1.63-1,2.42-.72,1.57-1.54,3.06-2.3,4.54-1.54,3-3,6-4.36,9.05-.68,1.53-1.31,3.08-1.86,4.66-.27.79-.53,1.59-.73,2.4a8.09,8.09,0,0,0-.36,2.47,8.21,8.21,0,0,1,.08-2.53c.12-.84.3-1.67.49-2.49.4-1.65.88-3.27,1.4-4.88,1.06-3.22,2.3-6.37,3.59-9.49.65-1.57,1.31-3.1,1.9-4.64.29-.77.56-1.54.78-2.3A8.75,8.75,0,0,0,258,280a1.07,1.07,0,0,0-.1-.55s0,0-.17,0a7,7,0,0,0-2,0c-1.6.13-3.34.34-5.12.37A20.25,20.25,0,0,1,240,277.1c-.77-.44-1.53-.9-2.29-1.43a13.53,13.53,0,0,1-2.28-1.92,6.2,6.2,0,0,1-1.08-1.59,4.13,4.13,0,0,1-.3-2.59,4.76,4.76,0,0,1,1.09-2.09,8.65,8.65,0,0,1,1.25-1.17c1.62-1.22,3.07-2,4.45-2.86a23.59,23.59,0,0,0,3.68-2.7,11.59,11.59,0,0,0,1.39-1.53,14.63,14.63,0,0,0,1.17-1.77,3.23,3.23,0,0,0,.28-.66c0-.15,0-.11,0,.16a1.46,1.46,0,0,0,.2.44,3.7,3.7,0,0,0-.51-.26c-1.14-.48-2.87-.93-4.49-1.43s-3.35-1.08-5-1.76a33,33,0,0,1-5-2.48,11.72,11.72,0,0,1-1.36-1,6.56,6.56,0,0,1-1.49-1.77,5,5,0,0,1-.55-1.55,4.73,4.73,0,0,1,0-1.72,6.23,6.23,0,0,1,1-2.24,19.88,19.88,0,0,1,1.92-2.32c.59-.63,1.14-1.22,1.66-1.81a28.77,28.77,0,0,0,2.76-3.62,26.3,26.3,0,0,0,3.37-8.26,9.39,9.39,0,0,0,.26-1.81.75.75,0,0,0,0-.29,1.21,1.21,0,0,0,.32.5c.18.17.24.15.06.09s-.51-.15-.91-.25a13.83,13.83,0,0,1-3.1-1.1,9.26,9.26,0,0,1-3-2.51,11.75,11.75,0,0,1-1.71-3.1,19.37,19.37,0,0,1-1.17-6.06,11.7,11.7,0,0,1,.43-3.53,8.71,8.71,0,0,1,2-3.56,10.4,10.4,0,0,1,3-2.18c1-.48,1.89-.8,2.62-1.09a6.08,6.08,0,0,0,1.3-.6.93.93,0,0,0-.22.31,1.11,1.11,0,0,0-.08.28,2.08,2.08,0,0,0-.08-.41c-.09-.3-.19-.61-.31-.92a17,17,0,0,0-.86-1.9c-.67-1.3-1.52-2.62-2.45-4.14a24.14,24.14,0,0,1-1.4-2.6,8.8,8.8,0,0,1-.85-4,6.7,6.7,0,0,1,.69-2.58,7.43,7.43,0,0,1,1.42-1.91,10,10,0,0,1,1.52-1.21c.34-.24.63-.41.92-.62a7.19,7.19,0,0,0,2.28-2.25c.1-.23.07-.18.07-.3a2.48,2.48,0,0,0-.5-.87,15.35,15.35,0,0,0-3.05-2.67c-.62-.44-1.28-.87-2-1.3l-1.14-.73c-.41-.28-.83-.58-1.25-.92a9.5,9.5,0,0,1-2.54-2.93,6.42,6.42,0,0,1-.72-2.53,6.65,6.65,0,0,1,.32-2.46,11.36,11.36,0,0,1,1.66-3.11c.58-.81,1.15-1.5,1.7-2.17,1.11-1.33,2.17-2.56,3.16-3.82a40.6,40.6,0,0,0,2.71-3.78,7.6,7.6,0,0,0,.76-1.57,1.69,1.69,0,0,0,.07-.94,16.07,16.07,0,0,0-1.84-3.63c-.86-1.44-1.75-3-2.56-4.5a12,12,0,0,1-1.21-3.08,6.64,6.64,0,0,1,.39-4.29,7.33,7.33,0,0,1,2.69-2.95,17.32,17.32,0,0,1,2.65-1.38,40.64,40.64,0,0,0,4.28-1.92,4.26,4.26,0,0,0,1.18-1,1.58,1.58,0,0,0,.36-.94c0-.14,0-.64,0-1a9.77,9.77,0,0,0-.11-1,3.51,3.51,0,0,0-.46-1.38c-.11-.18-.3-.37-.69-.85a5.45,5.45,0,0,1-1-1.93,8.8,8.8,0,0,1-.15-3.39c.11-1,.28-1.84.47-2.7a16.73,16.73,0,0,1,.86-2.79,10.76,10.76,0,0,1,1.59-2.7,10.52,10.52,0,0,1,2.32-2,11.34,11.34,0,0,0,1.65-1.16,1.07,1.07,0,0,0,.25-.41,2.32,2.32,0,0,0,.12-.72,6.47,6.47,0,0,0,0-1l-.18-1.28a8,8,0,0,1,0-1.63,4.48,4.48,0,0,1,.6-1.91,3.81,3.81,0,0,1,1.63-1.48,5.35,5.35,0,0,1,1.7-.48,14.75,14.75,0,0,1,2.82,0c1.74.12,3.38.32,5,.39.81,0,1.62.06,2.43,0s1.57-.09,2.47-.16a16,16,0,0,1,5.37.37A4.61,4.61,0,0,1,275,98.39a3.77,3.77,0,0,1,.45,3.06,14.26,14.26,0,0,1-2.5,4.63c-.88,1.32-1.86,2.93-.53,4.08.56.59,1.23,1.14,1.79,1.78A10.4,10.4,0,0,1,275.67,114Z"/><path class="cls-3" d="M264.25,167.44a8,8,0,0,1,1.56,4.46,14.27,14.27,0,0,1-1,4.72,7.73,7.73,0,0,0-.44,2,1.37,1.37,0,0,0,.5,1.13,5.38,5.38,0,0,0,1.5.91c.32.14.59.23,1,.4a11.57,11.57,0,0,1,1.21.55,6.73,6.73,0,0,1,1.29.88,3.54,3.54,0,0,1,1.13,2,3.58,3.58,0,0,1-.56,2.38,8.45,8.45,0,0,1-1,1.23c-.61.65-1.18,1.16-1.58,1.62s-.58.9-.46.74,0-.23.05-.2a3.43,3.43,0,0,1,.26.24l.27.22.26.23.34.32a4.64,4.64,0,0,1,.61.71,4.27,4.27,0,0,1,.49.78,8.33,8.33,0,0,1,.93,3.16,14.33,14.33,0,0,1,0,2.8,73.94,73.94,0,0,1-1.81,9.4,42.31,42.31,0,0,0-.74,4.19,10.19,10.19,0,0,0,.07,3.47,2.86,2.86,0,0,0,.43,1,2.47,2.47,0,0,0,.28.35,10.81,10.81,0,0,1,1.09,1.37,15,15,0,0,1,2.08,5.56,73.86,73.86,0,0,1,.83,9.64c.11,3.06.24,6,.6,8.87a31.92,31.92,0,0,0,1.88,8,18.19,18.19,0,0,0,1.81,3.41l.55.77.61.72c.19.25.44.45.65.68l.33.34.47.46a19.53,19.53,0,0,1,3.4,4.19,15.41,15.41,0,0,1,1.94,5.25c.66,3.72-.21,7.19-.85,10.06a11.63,11.63,0,0,0-.42,3.72,2.4,2.4,0,0,0,.47,1.21,4.6,4.6,0,0,0,1.24,1,13.72,13.72,0,0,1,2.21,1.49c.19.18.37.35.55.54a5.06,5.06,0,0,1,.51.69,3.4,3.4,0,0,1,.51,1.84,5,5,0,0,1-1.15,2.79c-.5.68-1,1.24-1.49,1.82a9.44,9.44,0,0,0-2.11,3.71,6.4,6.4,0,0,0-.18,2.16,9.91,9.91,0,0,0,.5,2.22,7.53,7.53,0,0,1-1.37-4.52,10.76,10.76,0,0,1,1.55-4.64c.38-.7.78-1.36,1.1-2a2.48,2.48,0,0,0,.41-1.46.76.76,0,0,0-.21-.31c0-.06-.15-.13-.22-.2l-.31-.22a11.28,11.28,0,0,0-1.77-.81,8,8,0,0,1-2.51-1.58,6.32,6.32,0,0,1-1.67-2.81,14.36,14.36,0,0,1-.19-5.41c.16-1.58.36-3,.39-4.4a13.32,13.32,0,0,0-.39-3.81,11.66,11.66,0,0,0-4.1-6l-.88-.77c-.33-.31-.69-.59-1-.92l-.93-1-.85-1.06a24.69,24.69,0,0,1-2.72-4.58c-2.82-6.46-3.08-13.11-3.38-19.23a72.9,72.9,0,0,0-.63-8.7,8.79,8.79,0,0,0-1-3.06.66.66,0,0,0-.14-.21l-.07-.09,0,0-.08-.1a9.31,9.31,0,0,1-2.31-4.71,16.51,16.51,0,0,1,.06-5.69,40.17,40.17,0,0,1,1.13-4.81l1.31-4.41a33.9,33.9,0,0,0,1-4.11,6.61,6.61,0,0,0,0-3.06.52.52,0,0,0-.09-.21.54.54,0,0,0-.11-.18l-.06-.08,0,0-.12-.12c-.19-.19-.37-.36-.56-.58a5.85,5.85,0,0,1-1-1.64,4.2,4.2,0,0,1-.28-2.44,4.6,4.6,0,0,1,.88-1.95,7.62,7.62,0,0,1,1.06-1.15c.69-.62,1.32-1.07,1.82-1.47.24-.19.44-.38.55-.49s0,0,.08.23.13.19,0,.06a3.67,3.67,0,0,0-.55-.5,8.13,8.13,0,0,0-.82-.53c-.29-.18-.72-.41-1.07-.63a7.5,7.5,0,0,1-2.13-1.87,4.3,4.3,0,0,1-.71-1.53,4.23,4.23,0,0,1,0-1.64,8.8,8.8,0,0,1,1-2.41,13.21,13.21,0,0,0,1.7-4A7.86,7.86,0,0,0,264.25,167.44Z"/><path class="cls-3" d="M264.11,98.37a7.07,7.07,0,0,0,2.53-.54,4.85,4.85,0,0,0,1.94-1.56,13.16,13.16,0,0,0,1.8-4.74c.21-.85.41-1.72.71-2.6a6,6,0,0,1,1.56-2.55,4.41,4.41,0,0,1,3-1,10,10,0,0,1,2.87.52,21.4,21.4,0,0,1,2.57,1c.83.38,1.64.83,2.38,1.17a16.59,16.59,0,0,0,4.57,1.57,5.22,5.22,0,0,0,2,0,3.43,3.43,0,0,0,.83-.33c.28-.15.53-.34,1-.63a3.52,3.52,0,0,1,1.08-.49,2.55,2.55,0,0,1,1,0,2.69,2.69,0,0,1,.92.34,4.89,4.89,0,0,1,1.45,1.51c.3.44.53.85.76,1.26l.63,1.17a2.15,2.15,0,0,0,.87,1c.06,0,.05,0,.17,0a2.35,2.35,0,0,0,.57-.26,11.38,11.38,0,0,0,1.7-1.36,20,20,0,0,1,2.26-1.89,4.34,4.34,0,0,1,1.15-.54,3,3,0,0,1,1.07-.12,2.8,2.8,0,0,1,1.35.46,3.24,3.24,0,0,1,1.2,1.53,5.45,5.45,0,0,1,.3,1.05,16,16,0,0,1,.2,3.08l0,1.31c0,.41,0,.81,0,1.2a12.15,12.15,0,0,0,.25,2.18,2.53,2.53,0,0,0,.53,1.23.72.72,0,0,0,.24.14,2.63,2.63,0,0,0,.64.13c1.22.16,3.33-.22,5.74.56a7.68,7.68,0,0,1,3.18,2.07A10.51,10.51,0,0,1,321,107c.21.49.41,1,.56,1.45l.4,1.18a14.12,14.12,0,0,0,.94,2,11.7,11.7,0,0,0,2.73,3.31,49.41,49.41,0,0,0,4.22,2.81,8.44,8.44,0,0,1,1.41,1.22,5.46,5.46,0,0,1,1.18,2.09,5.85,5.85,0,0,1,.15,2.29,9.14,9.14,0,0,1-.45,1.77,15.24,15.24,0,0,1-.63,1.46l-.54,1.11c-.15.32-.31.75-.32.78a1.56,1.56,0,0,0,0-.39,2,2,0,0,0-.34-1,2.2,2.2,0,0,0-.6-.6,2.09,2.09,0,0,0-.63-.29,1.39,1.39,0,0,0-.75,0l.12,0a6.2,6.2,0,0,1,4-.08,4.63,4.63,0,0,1,2,1.58,6.75,6.75,0,0,1,.9,1.76,18.29,18.29,0,0,1,.72,6c0,1-.06,1.72,0,2.46a9.21,9.21,0,0,0,.34,2.06,3.9,3.9,0,0,0,2.29,2.59,19.23,19.23,0,0,0,4.65,1.07,12.58,12.58,0,0,1,3,.79,5,5,0,0,1,1.63,1.14,4.16,4.16,0,0,1,1,1.88,7.1,7.1,0,0,1-.16,3.34,18.71,18.71,0,0,1-1,2.69l-1.09,2.39c-.33.77-.63,1.56-.9,2.34a14.61,14.61,0,0,0-.85,4.8,10.82,10.82,0,0,0,1.24,4.7c.73,1.52,1.76,3.16,1.9,5.06a9,9,0,0,1-1.54,5.09,8.61,8.61,0,0,0,.81-5c-.32-1.63-1.38-3-2.35-4.48a11.83,11.83,0,0,1-2-5.23,16.72,16.72,0,0,1,.43-5.59c.21-.9.48-1.77.77-2.64l.91-2.47a15.82,15.82,0,0,0,.63-2.32,4.08,4.08,0,0,0,0-1.86c-.15-.38-.28-.46-.82-.69a9.77,9.77,0,0,0-2.14-.41,22.09,22.09,0,0,1-5.62-1,8.16,8.16,0,0,1-2.89-1.85,8.26,8.26,0,0,1-1.84-2.93,11.82,11.82,0,0,1-.68-3.09c-.1-1-.07-2-.09-2.79a14.44,14.44,0,0,0-.63-4.42,2.16,2.16,0,0,0-.3-.56c-.09-.09-.08,0,0,0s-.16,0-1.1.31c-.14,0-.28.08-.52.13a3,3,0,0,1-1.4,0,2.66,2.66,0,0,1-.78-.36,2.56,2.56,0,0,1-.71-.72,2.67,2.67,0,0,1-.43-1.28,3.48,3.48,0,0,1,.08-1,9.42,9.42,0,0,1,.6-1.68l.59-1.26c.16-.33.3-.66.4-1a4.49,4.49,0,0,0,.2-.77,1.23,1.23,0,0,0,0-.32,1.35,1.35,0,0,0-.13-.17,4,4,0,0,0-.59-.48,47.48,47.48,0,0,1-4.55-3,15.68,15.68,0,0,1-4-4.73,19.07,19.07,0,0,1-1.23-2.75L316.9,110c-.11-.35-.24-.69-.38-1a5.69,5.69,0,0,0-.95-1.55,2.76,2.76,0,0,0-1.17-.79,6.23,6.23,0,0,0-1.87-.28c-.78,0-1.68,0-2.83-.11a7.22,7.22,0,0,1-1.91-.47,5.3,5.3,0,0,1-1.91-1.34,7.09,7.09,0,0,1-1.61-3.51,16.67,16.67,0,0,1-.26-3c0-.48,0-1,0-1.43l.08-1.31a12.56,12.56,0,0,0,0-2.17l0-.22a1.25,1.25,0,0,0,.45.47,1.59,1.59,0,0,0,.74.25,1.21,1.21,0,0,0,.42,0c.13,0,.06,0,0,0a20.79,20.79,0,0,0-1.81,1.43,14.78,14.78,0,0,1-2.53,1.74,5.93,5.93,0,0,1-1.89.62,4.21,4.21,0,0,1-2.4-.37,4.88,4.88,0,0,1-1.66-1.37,7.68,7.68,0,0,1-.9-1.47l-.55-1.18c-.18-.36-.36-.72-.53-1s-.42-.56-.27-.45a1,1,0,0,0,.67.08c.14-.05,0,0-.11.05-.31.17-.79.46-1.3.68a6.69,6.69,0,0,1-1.66.49,8.3,8.3,0,0,1-3.2-.18,19.2,19.2,0,0,1-5.19-2.26c-.8-.49-1.49-.94-2.23-1.36a19.29,19.29,0,0,0-2.23-1.1c-1.49-.61-3.11-1-4.14-.16s-1.65,2.58-2.21,4.2A13.14,13.14,0,0,1,269,96.67a5.32,5.32,0,0,1-2.3,1.45A7.22,7.22,0,0,1,264.11,98.37Z"/><path class="cls-4" d="M265.17,105c11.33-7.33,3-7.41,6.83-2.58,10.06,12.67,5.11-13.19,10.06-4.76s11.28-4.76,14.94,5.33,11.17,8.6,11.75,13.85,7.63-5.73,5.42,4,7.94-2.51,7.62,9.67,11.88,7.94,8.88,19.28,9.43,9.63,1.72,17.73,5,10.32,4.28,20"/><path class="cls-2" d="M282.06,113c7.61-3.67,2.68-9.13,13.28,4.54s12-25.54,20.33-8,22.76,2.78,16.72,19.14-17.13,17.78-10.59,23.65,3.46,5.84,0,15.11,10.59,20,10.59,20"/><path d="M289.12,117.87c-13.91-2.81-29.16,4.7-31.58,9.91a9.45,9.45,0,0,0-.65,1.95c0-12.59,8.89-17.94,8.89-17.94s9.46,1,12.68,1.16C279.51,113,283.8,115.07,289.12,117.87Z"/><path class="cls-5" d="M313.92,150.29l-.41,0c0,.86-.11,1.79-.24,2.76-.78,6.28-3.25,14.26-5.78,17-2.26,2.46-8.62,10.77-14.41,14.89a12,12,0,0,1-4.88,2.3c-6.52,1-9.39-5.23-13-9.65s-13-11.24-13.72-19-.19-9.52-1.65-12.72c-.14-.31-.3-.67-.47-1.08v0c-1.42-3.4-3.61-10-2.48-15.08a9.45,9.45,0,0,1,.65-1.95c2.42-5.21,17.67-12.72,31.58-9.91,4.44,2.34,9.61,5.18,14.21,7.74l5.94,17.89s.85-8.85,4.9-11.78a4.69,4.69,0,0,1,2.63-.93H317C323.08,130.94,324.7,149,313.92,150.29Z"/><path d="M314.17,131.72c-4,2.93-4.9,11.78-4.9,11.78l-5.94-17.89C307.93,128.18,312,130.47,314.17,131.72Z"/><path class="cls-5" d="M246.23,294.5C244.13,299,213.79,366.25,208,368.1c-4,1.27-11.78-.56-17.92-2a190.4,190.4,0,0,1-11.38,26.29,6.75,6.75,0,0,1,.68.78c2,2.64,12.27-1.45,12.79-1.32s16-.79,19-1.05a6.15,6.15,0,0,0,3.07-1.16h0c2.92-2.07,5.07-6.5,9.06-10.71,16.36-17.3,41.36-52.13,47-61.89,3.32-5.71,9.09-37.12,11.74-52.3-9.93-.36-19.79-3.19-29.34-6.32C250.76,271.57,247.63,291.54,246.23,294.5Z"/><path class="cls-6" d="M253.93,250.13c-.3,2.07-.72,5-1.21,8.27,9.55,3.14,19.41,6,29.34,6.32.87-5,1.41-8.22,1.41-8.22Z"/><path class="cls-5" d="M184.24,364.82a181.63,181.63,0,0,0-8.08,25.71,8.88,8.88,0,0,1-3.13-3.7l-.08-.17c-2-4.25-2-11.7-2-11.7l12.27-10.29C183.51,364.7,183.86,364.75,184.24,364.82Z"/><path class="cls-7" d="M396.49,202.13l-21.7,11.18,11.76,45.58H368.91a12,12,0,0,0-11.58,8.94c-4.37,16.67-13.66,51.78-17.14,62.31-12.59-8.34-22.24-16.28-29.59-19.28a33.73,33.73,0,0,0-13.17-2.43c2.19-27-14-49.78-14-49.78l-29.54-8.52-1.63-.47s0-30.07,4.22-40.36,33-18.73,33.76-18.73a28.3,28.3,0,0,0,2.79,2.85c4.17,3.76,12.65,9.59,22.8,6.64s15.78-15,18.12-21.7a48,48,0,0,0,1.4-4.68s29.81-10.29,42.21-4.48,20.84,31.91,20.84,31.91Z"/><path class="cls-6" d="M396.49,202.13l-21.7,11.18,1.6,6.22c7.43-2.74,15.33-5,22.66-8.19Z"/><path class="cls-5" d="M412.28,258.89l-13.23-47.55c-7.33,3.14-15.23,5.45-22.66,8.19l10.16,39.37Z"/><path class="cls-8" d="M485.07,258.89a5.13,5.13,0,0,1,4.83,6.85l-14.52,40.8h0L466,333H344.63q-2.28-1.44-4.45-2.88c3.87-11.71,14.93-53.82,18.41-67.16a5.47,5.47,0,0,1,5.29-4.08Z"/><path class="cls-9" d="M518.72,339.35c-3.43,12.13-17.94,26.11-33.24,31.39-5.52,1.9-11,3.5-15.84,4.76a81.81,81.81,0,0,0-29.88,5.82h0l1.14-2.4s-36.14-20-66.74-31.13A152.89,152.89,0,0,1,344.63,333H466l9.42-26.48h0c6.93-1.37,20.06-3.09,28.82,1.07A27.08,27.08,0,0,1,518.72,339.35Z"/><path class="cls-9" d="M440.9,378.92l-1.14,2.4h0L428,406l-.8,1.67-23.66-6.31-63.27-16.89h0a84.21,84.21,0,0,0-10.93-5.54c-6.49-2.47-14.39-4.93-14.64-5h0s-7.39-3.43-8.7-2.37a9,9,0,0,0-.87,2.73c-9.61-4.19-29.09-13.61-35.63-23.53l0-.07a13.76,13.76,0,0,1-1.84-3.93c-4-14.77,2.09-21.16,9.5-30.33,3.7-4.58,11.62-7.87,20.33-8a33.73,33.73,0,0,1,13.17,2.43c7.35,3,17,10.94,29.59,19.28q2.17,1.43,4.45,2.88a152.89,152.89,0,0,0,29.53,14.77C404.77,358.87,440.9,378.92,440.9,378.92Z"/><path class="cls-5" d="M462.27,405a6.17,6.17,0,0,1-2.36,2.24c-4.43,2.56-12.67,2.33-16.63,1.58L428,406l11.78-24.68h0a81.3,81.3,0,0,1,10.77.11c5,.53,10.16,4,10.16,4s-5,.66-2.5,4.48S465,400.15,462.27,405Z"/><path class="cls-7" d="M531.78,406.22c-10.82,4.75-29.81,3-41,3.14s-26.38,3.85-29.41,2.92c-1.73-.53-1.74-3-1.44-5a6.17,6.17,0,0,0,2.36-2.24c2.77-4.88-1.58-11.34-4.09-15.17s2.5-4.48,2.5-4.48-5.14-3.43-10.16-4a81.3,81.3,0,0,0-10.77-.11,81.81,81.81,0,0,1,29.88-5.82h0c16.75,0,25.85-.8,32.58-5s33.76-6.86,40.09,6S542.59,401.47,531.78,406.22Z"/><path class="cls-7" d="M360.58,401.33a10.35,10.35,0,0,1-5,6.28,19.8,19.8,0,0,1-6.51,2.3c-3.69.66-21.5-.27-28.62,2.52s-15,1.31-15,1.31c6.73-10,9.23-39.83,9.23-39.83h0c.25.08,8.14,2.54,14.64,5a84.21,84.21,0,0,1,10.93,5.54h0a58,58,0,0,0,7.93,4,99.1,99.1,0,0,1,11.87,5.6S362.16,395.4,360.58,401.33Z"/><path d="M314.68,373.9s-2.5,29.81-9.23,39.83c0,0-6.6,0-6.73-1.31,0-.24.16-1.76.49-4.1.44-3.07,1.13-7.54,1.9-12.31l.47.1-.43-.33c1.33-8.14,2.91-17.12,3.94-21.52a9,9,0,0,1,.87-2.73C307.3,370.47,314.68,373.9,314.68,373.9Z"/><path class="cls-10" d="M305.11,374.26c-1,4.41-2.62,13.38-3.94,21.52-11.33-8.91-30.72-43.31-31.69-45.05C276,360.65,295.5,370.06,305.11,374.26Z"/><path class="cls-5" d="M403.53,401.35c-4.93,2.12-13.14,5.29-20.13,6.31-7.3,1.07-20.18.45-27.78-.06a10.35,10.35,0,0,0,5-6.28c1.58-5.94-.53-7.32-.53-7.32a99.1,99.1,0,0,0-11.87-5.6,58,58,0,0,1-7.93-4Z"/><path d="M190.06,366.09a190.41,190.41,0,0,1-11.38,26.29c-1.36,2.41-2.41,3.83-2.88,3.68s-.32-2.29.36-5.53a181.63,181.63,0,0,1,8.08-25.71c3.08-7.68,6.25-13.48,8.18-12.55C193.91,353,192.55,358.87,190.06,366.09Z"/><path class="cls-9" d="M233.77,389.14h0c-1.18.22-38.89,7.18-48,11.27-6.2,2.77-4.13,5.33-2.07,6.73h0a12.39,12.39,0,0,0,2.05,1.1h0l-69.84-6.06L173,386.66l.08.17a8.88,8.88,0,0,0,3.13,3.7c-.69,3.24-.89,5.36-.36,5.53s1.53-1.27,2.88-3.68a6.75,6.75,0,0,1,.68.78c2,2.64,12.27-1.45,12.79-1.32s16-.79,19-1.05a6.15,6.15,0,0,0,3.07-1.16h0Z"/><path class="cls-8" d="M301.12,396c-.78,4.78-1.46,9.24-1.9,12.31l-47.45,15.82S228.8,413,214,407.71A46.05,46.05,0,0,0,204.1,405a40.83,40.83,0,0,0-18.1,3.16l-.3.13h0l-2.05-1.1h0c-2.07-1.4-4.13-4,2.07-6.73,9.15-4.09,46.87-11.05,48-11.27h0l25.52-5.34s23.74,7,30.07,8.74C293.47,393.66,297.8,395.32,301.12,396Z"/><path class="cls-8" d="M186,408.12v6.39l-70.13-7.66v-4.65l69.84,6.06Z"/><path class="cls-7" d="M214,407.71l-28,6.8v-6.39A40.83,40.83,0,0,1,204.1,405,46.05,46.05,0,0,1,214,407.71Z"/><path class="cls-6" d="M319.35,166a70.93,70.93,0,0,1-6.07-12.87c-.78,6.28-3.25,14.26-5.78,17-2.07,2.25-7.57,9.39-12.92,13.74C304.31,180.76,314.05,174.53,319.35,166Z"/><path class="cls-5" d="M319.35,166c-5.29,8.57-15,14.79-24.77,17.89-.5.4-1,.79-1.49,1.14a13.45,13.45,0,0,1,0,8.43c4.17,3.76,12.65,9.59,22.8,6.64s15.78-15,18.12-21.7C327.78,177.12,322.9,171.74,319.35,166Z"/><path class="cls-8" d="M351.39,334.86c3.68,1.57,7.31,3.22,11,4.83l10.9,5c7.26,3.33,14.46,6.78,21.7,10.16s14.39,6.93,21.54,10.48l10.72,5.35c3.55,1.83,7.12,3.62,10.65,5.49-3.68-1.57-7.31-3.22-11-4.83l-10.9-5c-7.26-3.33-14.46-6.78-21.69-10.16s-14.39-6.93-21.54-10.48L362,340.35C358.49,338.52,354.92,336.73,351.39,334.86Z"/><path class="cls-8" d="M426.79,336.62c3.26-.11,6.51-.39,9.77-.61s6.51-.43,9.77-.66l9.77-.64,9.77-.56,4.07-.23-3.76,1.58c-4.41,1.86-8.81,3.74-13.25,5.53l-13.3,5.43c-8.89,3.55-17.79,7.08-26.77,10.42,8.7-4,17.49-7.81,26.28-11.61l13.23-5.58c4.4-1.88,8.84-3.67,13.27-5.48l.31,1.35-9.78.45c-3.26.15-6.52.23-9.78.34s-6.52.23-9.79.26S430.06,336.78,426.79,336.62Z"/><ellipse class="cls-11" cx="420.3" cy="296.96" rx="10.91" ry="7.82"/><path class="cls-12" d="M325.55,156.2a7.58,7.58,0,1,1-10.83-9.3"/><circle class="cls-11" cx="478.27" cy="111.79" r="50.66"/><circle class="cls-8" cx="478.27" cy="111.79" r="43.36"/><polyline class="cls-13" points="459.63 83.44 478.27 111.79 500.06 111.79"/><path class="cls-5" d="M289.19,110.87c1.37,5.72-3.52,10.5-4.19,10.83s5.56,1,5.56,1S293.43,113.71,289.19,110.87Z"/><path class="cls-3" d="M291.51,99.87a5.32,5.32,0,0,0-2.35,1.28,19.83,19.83,0,0,0-1.92,1.91c-1.2,1.35-2.32,2.78-3.47,4.2a39,39,0,0,1-3.72,4.08A10.58,10.58,0,0,1,277.7,113a4.08,4.08,0,0,1-3.12.34,26.35,26.35,0,0,1-5.06-2.47c-.79-.46-1.57-.92-2.32-1.29a3.7,3.7,0,0,0-1-.35c-.1,0-.11,0,.12,0s.3-.3.29-.23a3.76,3.76,0,0,0,.06.87c.06.38.16.78.27,1.24l.31,1.36c0,.23.1.48.14.74a4,4,0,0,1,0,1.05,1.94,1.94,0,0,1-.54,1.15,2.13,2.13,0,0,1-1,.55,6,6,0,0,0-.6.16,2.46,2.46,0,0,0-.71.42,8,8,0,0,0-1.44,1.69,12.56,12.56,0,0,1-2.14,2.3c-.74.65-1.49,1.23-2.23,1.79-1.49,1.12-3,2.17-4.44,3.23s-2.86,2.13-4.16,3.23a13.62,13.62,0,0,0-3.09,3.45,2.73,2.73,0,0,0-.4,1.44,2.12,2.12,0,0,0,.52,1.19,4.19,4.19,0,0,0,.29.34l.45.48a11.61,11.61,0,0,1,1.1,1.33,8.53,8.53,0,0,1,1.41,3.45,9.44,9.44,0,0,1-.15,3.63,19.81,19.81,0,0,1-1,3c-.71,1.73-1.36,3.33-1.26,4.15a1.75,1.75,0,0,0,.45,1.05,6.09,6.09,0,0,0,1.48,1.17l1.16.67a10.77,10.77,0,0,1,1.45,1,5.43,5.43,0,0,1,.87.93,3.46,3.46,0,0,1,.7,2.19,3.18,3.18,0,0,1-.38,1.39,3.62,3.62,0,0,1-.62.84,5.27,5.27,0,0,1-1,.79,20.93,20.93,0,0,1-2.85,1.27c-.83.33-1.61.64-2.29,1a7.26,7.26,0,0,0-1.68,1.1,2,2,0,0,0-.66,1,5.44,5.44,0,0,0,1.08,3.39c.21.35.4.62.68,1s.56.84.82,1.28a17.19,17.19,0,0,1,1.36,2.84,11.24,11.24,0,0,1,.44,6.65,16.18,16.18,0,0,1-2.8,5.49,18.2,18.2,0,0,0-1.31,2,2.56,2.56,0,0,0-.26.69.7.7,0,0,0,0,.39,3.32,3.32,0,0,0,1.14,1.26c.3.23.64.44,1,.66s.86.53,1.28.84a6.85,6.85,0,0,1,2.34,2.71,3.91,3.91,0,0,1,.26,2.23,4.82,4.82,0,0,1-.76,1.82,12.83,12.83,0,0,1-2.08,2.26c-.69.63-1.36,1.2-1.89,1.78a2.6,2.6,0,0,0-.85,1.48c0,.35.4,1,1,1.46.28.23.7.51,1.1.84a5.62,5.62,0,0,1,1.11,1.2,2.36,2.36,0,0,1,.36,2,3,3,0,0,1-1.09,1.43c-1.66,1.2-3.41,1.67-4.88,2.62-.71.45-1.39,1.07-1.14,1.88a4.78,4.78,0,0,0,1.7,2,4.92,4.92,0,0,1-2.08-1.84,1.69,1.69,0,0,1,.06-1.54,4,4,0,0,1,1-1.13c1.46-1.21,3.22-2,4.39-3.1a1.55,1.55,0,0,0,.48-.75c0-.16,0-.3-.23-.55a4,4,0,0,0-.82-.7c-.33-.22-.69-.41-1.15-.71a6.15,6.15,0,0,1-1.25-1.06,3.52,3.52,0,0,1-.87-1.76,3.61,3.61,0,0,1,.29-2,6.65,6.65,0,0,1,.88-1.42c.64-.81,1.3-1.47,1.91-2.12a10.18,10.18,0,0,0,1.48-1.86,1.68,1.68,0,0,0,.23-.7.71.71,0,0,0-.12-.43,4.21,4.21,0,0,0-1.36-1.22c-.32-.21-.67-.4-1-.59s-.89-.49-1.33-.79a6.83,6.83,0,0,1-2.51-2.7,4.52,4.52,0,0,1-.39-2.28,6.13,6.13,0,0,1,.51-1.92,20.72,20.72,0,0,1,1.48-2.65,13.68,13.68,0,0,0,2-4.23,6.8,6.8,0,0,0-.45-4.05,12.71,12.71,0,0,0-1.07-2q-.32-.5-.69-1c-.24-.33-.59-.79-.86-1.21a13.1,13.1,0,0,1-1.5-2.94,7.64,7.64,0,0,1-.35-3.91,6.84,6.84,0,0,1,2-3.61,11.92,11.92,0,0,1,2.82-1.95c.93-.48,1.84-.86,2.7-1.21a18.49,18.49,0,0,0,2.13-.95c.09-.05.13-.1.05,0a1.3,1.3,0,0,0-.21.3,1.81,1.81,0,0,0-.2.74,1.53,1.53,0,0,0,.24.94c.06.07,0,0-.07-.05a6.19,6.19,0,0,0-.79-.53l-.51-.29-.69-.41a10.81,10.81,0,0,1-2.71-2.28,6.76,6.76,0,0,1-1.54-3.92,9.32,9.32,0,0,1,.61-3.6c.35-1,.74-1.86,1.07-2.66a7.72,7.72,0,0,0,.88-4,4.22,4.22,0,0,0-.61-1.57,6.91,6.91,0,0,0-.61-.79l-.17-.2-.3-.33a8.75,8.75,0,0,1-.57-.72,6.7,6.7,0,0,1-1.32-3.85,7.24,7.24,0,0,1,1.08-3.74,17.61,17.61,0,0,1,4.25-4.54,54.24,54.24,0,0,1,4.62-3.23c1.55-1,3.09-1.95,4.56-2.93a18.57,18.57,0,0,0,3.8-3.08,10.89,10.89,0,0,1,2.31-2.25,5.51,5.51,0,0,1,1.71-.79,6.85,6.85,0,0,1,.73-.14,1.15,1.15,0,0,0-.38.25,1,1,0,0,0-.28.54,1,1,0,0,0,0-.3l-.06-.61-.19-1.32c-.06-.43-.15-.93-.19-1.45a5.13,5.13,0,0,1,.12-1.84,2,2,0,0,1,1.07-1.3,2.14,2.14,0,0,1,1.45-.09,5.88,5.88,0,0,1,1.53.71c.84.52,1.57,1.07,2.31,1.6a28.28,28.28,0,0,0,4.45,2.82,2.8,2.8,0,0,0,2.16-.15,9.5,9.5,0,0,0,2.16-1.38,39.9,39.9,0,0,0,3.85-3.77c1.24-1.33,2.46-2.69,3.76-4A20.08,20.08,0,0,1,289,101,5.41,5.41,0,0,1,291.51,99.87Z"/><path class="cls-3" d="M264.42,106.12a37.77,37.77,0,0,0-1.4-5.7l-.87-2.83a13.89,13.89,0,0,1-.61-3.09,3.89,3.89,0,0,1,.37-1.93,3,3,0,0,1,1.72-1.44c.88-.25.67-.2.81-.35a2.3,2.3,0,0,0,.3-.77,16.55,16.55,0,0,0,.25-2.66,20.79,20.79,0,0,1,.31-3.18,5.85,5.85,0,0,1,.71-1.9,3.91,3.91,0,0,1,2.07-1.69,4.94,4.94,0,0,1,2.38-.14,9.33,9.33,0,0,1,1.81.51,16.24,16.24,0,0,1,1.54.7,10.08,10.08,0,0,0,1.12.48,5.47,5.47,0,0,0,2.08.32,7.51,7.51,0,0,0,4-1.82c.74-.54,1.5-1.18,2.52-1.83a8.84,8.84,0,0,1,1.85-.92,6,6,0,0,1,2.63-.31,6.17,6.17,0,0,1,2.5.89,8.89,8.89,0,0,1,1.67,1.35c.22.22.46.49.63.68l.36.38.35.3c.11.06.22.16.32.21a1.18,1.18,0,0,0,.87.17,7.93,7.93,0,0,0,1.84-.72,12,12,0,0,1,3.69-1.29,6,6,0,0,1,3,.4,6.65,6.65,0,0,1,2.27,1.57,10.29,10.29,0,0,1,1.32,1.7c.18.28.32.54.48.82l.31.54a2.87,2.87,0,0,0,.89,1c.18.06.16.09.7,0s1.3-.3,2.52-.58a8.06,8.06,0,0,1,2.48-.2,5.58,5.58,0,0,1,3.37,1.55,6.83,6.83,0,0,1,1.56,2.42,9,9,0,0,1,.35,1,9.57,9.57,0,0,1,.23,1c.37,2,.75,2.53,1.15,2.76a7.55,7.55,0,0,0,1.85.63,13.22,13.22,0,0,1,1.88.65,7.24,7.24,0,0,1,2.31,1.6,6.92,6.92,0,0,1,1.5,2.44,9.62,9.62,0,0,1,.52,2.23c0,.34.07.68.08,1l0,.75a4.87,4.87,0,0,0,.1.89,1.35,1.35,0,0,0,.35.79,9.82,9.82,0,0,0,1.77,1.1,11.19,11.19,0,0,1,1.74,1.21,8,8,0,0,1,1.65,2,9.56,9.56,0,0,1,1.21,4.34,20.11,20.11,0,0,1-.15,3.53,6.53,6.53,0,0,0,0,1.71c0,.1,0,0-.21-.22s-.42-.22-.3-.18a4.44,4.44,0,0,0,.87.1c.45,0,1,0,1.8.15a5.83,5.83,0,0,1,3,1.28,5.06,5.06,0,0,1,1.22,1.57,5.71,5.71,0,0,1,.5,1.52,8.48,8.48,0,0,1,.09,2.3,14.91,14.91,0,0,1-.27,1.82c-.12.57-.25,1.11-.4,1.63l-.38,1.36a19.31,19.31,0,0,0-.49,2.46,6.53,6.53,0,0,0-.07,1c0,.25,0,.39,0,.41s-.06,0,.15.22.71.55,1.28,1.12a6.28,6.28,0,0,1,1.41,2.12,8.17,8.17,0,0,1,.51,2.15,15.25,15.25,0,0,1-.13,3.54l-.24,1.48a7.64,7.64,0,0,0-.1,1.11,5.22,5.22,0,0,0,.33,1.94,8.33,8.33,0,0,0,3.1,3.41c.76.56,1.59,1.14,2.45,1.85a8.73,8.73,0,0,1,2.41,2.9,6.19,6.19,0,0,1,.39,4,11.3,11.3,0,0,1-1.34,3.17c-.14.23-.28.46-.42.68l-.41.6-.8,1.2c-.25.39-.51.81-.68,1.13,0,.07-.08.16-.08.13a1.13,1.13,0,0,0,0-.29,1.09,1.09,0,0,0-.36-.61,1.12,1.12,0,0,0-.62-.26c-.28,0-.26,0-.29,0h.07l.29-.11a5.3,5.3,0,0,1,1.81-.47,2,2,0,0,1,1.4.5,2.12,2.12,0,0,1,.6,1.12,5.25,5.25,0,0,1,0,1.75,13.78,13.78,0,0,1-.31,1.52,38.64,38.64,0,0,1-2,5.62,56.92,56.92,0,0,0,.78-5.82,6.66,6.66,0,0,0-.19-2.58c-.06-.14-.14-.19-.12-.14s.11.08,0,.1a6.65,6.65,0,0,0-1,.49l-.38.2-.28.12a1.54,1.54,0,0,1-.65.09,1.36,1.36,0,0,1-.79-.33,1.37,1.37,0,0,1-.45-.77,1.82,1.82,0,0,1,0-.66,3.93,3.93,0,0,1,.15-.57c.2-.59.4-1,.61-1.52l.64-1.37.62-1.28a8.1,8.1,0,0,0,.73-2.32,2.49,2.49,0,0,0-.29-1.7c-.54-1-2.17-1.89-3.89-2.95a19.1,19.1,0,0,1-2.68-1.95,10,10,0,0,1-2.33-3,9.48,9.48,0,0,1-1-3.77,12.51,12.51,0,0,1,0-1.83l.14-1.44a10.16,10.16,0,0,0-.06-2.34,2.65,2.65,0,0,0-.22-.69.83.83,0,0,0-.26-.28l-1-.74a6.16,6.16,0,0,1-1.72-2,7.05,7.05,0,0,1-.71-2.42,11.69,11.69,0,0,1,0-2,24.78,24.78,0,0,1,.49-3.35l.34-1.5c.1-.43.18-.85.24-1.25a8.62,8.62,0,0,0,.11-1.1,2,2,0,0,0,0-.63s0,0,0,.12a1.31,1.31,0,0,0,.32.42c.34.27.47.24.25.22s-.62,0-1.14,0a10.85,10.85,0,0,1-2.05-.2,5.89,5.89,0,0,1-2.89-1.49,6.06,6.06,0,0,1-1.6-2.78A11.4,11.4,0,0,1,329,116a13.48,13.48,0,0,0,.07-2.35,2.87,2.87,0,0,0-.33-1.29c-.12-.16-.21-.29-.93-.7a14.34,14.34,0,0,1-3.15-2.11,8.32,8.32,0,0,1-2.34-4.34,11.67,11.67,0,0,1-.25-2l0-.72a3.87,3.87,0,0,0,0-.48,2.75,2.75,0,0,0-.14-.63c0-.14-.05-.08,0-.06s.06,0-.11-.05a6.75,6.75,0,0,0-.9-.3,13.29,13.29,0,0,1-3.64-1.44A8.43,8.43,0,0,1,314,95.78a11,11,0,0,1-.7-2c-.09-.32-.15-.63-.21-.93l-.13-.71a3.76,3.76,0,0,0-.11-.48,2.57,2.57,0,0,0-.11-.37c-.06-.19-.13-.26,0-.07a1.38,1.38,0,0,0,.75.35,1.76,1.76,0,0,0-.44.06,28.4,28.4,0,0,1-3.24.63,7.58,7.58,0,0,1-4.94-1.16,9.31,9.31,0,0,1-3-3.35l-.65-1.22a4.31,4.31,0,0,0-.45-.65c-.13-.17-.16-.15-.1-.14s.2,0,.13,0a7,7,0,0,0-1.85.64,12.56,12.56,0,0,1-3.74,1.09,7,7,0,0,1-4.72-1.28c-.32-.21-.57-.45-.86-.68s-.48-.47-.72-.72l-.61-.73-.34-.43a3.85,3.85,0,0,0-.56-.56l-.23-.16s-.08,0-.27,0a3.43,3.43,0,0,0-.81.34c-.67.36-1.46.92-2.35,1.48a16.82,16.82,0,0,1-3.06,1.61A9.34,9.34,0,0,1,277,87a9.94,9.94,0,0,1-3.64-.93,14.45,14.45,0,0,1-1.52-.83,12.45,12.45,0,0,0-1.09-.63,3.92,3.92,0,0,0-1.51-.49s-.05-.05-.19.1a2.79,2.79,0,0,0-.4.81,17.94,17.94,0,0,0-.57,2.64,18.29,18.29,0,0,1-.72,3.14,4.41,4.41,0,0,1-1.12,1.77,2.88,2.88,0,0,1-1.11.62l-.3.07-.21,0a2.05,2.05,0,0,0-.23,0,.94.94,0,0,0-.57.29,1.82,1.82,0,0,0-.3.91,12.35,12.35,0,0,0,.15,2.74l.43,2.91A32.82,32.82,0,0,1,264.42,106.12Z"/><path class="cls-3" d="M286.79,100.57a6.58,6.58,0,0,1-2-1.53c-.59-.6-1.13-1.24-1.67-1.88-1.07-1.29-2.11-2.6-3.2-3.85a15.71,15.71,0,0,0-3.53-3.24c-.66-.37-1.26-.44-1.65-.12a3.72,3.72,0,0,0-1,1.75,5.08,5.08,0,0,1-.66,1.34,3.13,3.13,0,0,1-1.31,1.09,4.45,4.45,0,0,1-3.14,0A28.47,28.47,0,0,1,264,91.76a15.49,15.49,0,0,0-4.19-1.82,2,2,0,0,0-2.48,1.28,8.69,8.69,0,0,0-.67,2,18.18,18.18,0,0,1-.78,2.61,11.1,11.1,0,0,1-1.43,2.62,7.75,7.75,0,0,1-2.46,2.16c-2,1.13-4.29,1-5.52,1.22-.28,0-.44.13-.3.08a.59.59,0,0,0,.19-.18c0-.06,0-.07,0,0a5.71,5.71,0,0,0,.2,1.61,35.19,35.19,0,0,0,1.47,4.45,12.94,12.94,0,0,1,.85,2.9,6.45,6.45,0,0,1-.5,3.83,6.33,6.33,0,0,1-2.87,2.79,13.68,13.68,0,0,1-2.91,1l-2.43.57a6.19,6.19,0,0,0-.86.27c-.21.07-.25.19,0,0a1.38,1.38,0,0,0,.33-.56,1.28,1.28,0,0,0,.05-.45c0-.12,0,.05.16.25l.27.42a7.76,7.76,0,0,1,.46.85,6.23,6.23,0,0,1,.56,2.15,5.74,5.74,0,0,1-.33,2.37,7.35,7.35,0,0,1-1,1.8,15.38,15.38,0,0,1-2.11,2.27,30.82,30.82,0,0,0-3.29,3.18,4.26,4.26,0,0,0-1.14,2.73,7.17,7.17,0,0,0,1,3.3c.16.3.34.6.53.9s.49.82.73,1.25a16.39,16.39,0,0,1,1.22,2.83,10.53,10.53,0,0,1,.53,3.49,8.76,8.76,0,0,1-1,3.75,18,18,0,0,1-3.89,4.59,3.79,3.79,0,0,0-.81,1s0-.07,0-.13,0-.05,0,.05a5,5,0,0,0,.79,1.14l.81.91c.33.36.65.81,1,1.23a10.24,10.24,0,0,1,1.6,3.39,7,7,0,0,1-.37,4.53,11.94,11.94,0,0,1-1.86,2.92,17.45,17.45,0,0,0-1.26,1.64,1.12,1.12,0,0,0-.23.56,2.15,2.15,0,0,0,.28.77,6.53,6.53,0,0,0,.44.68l.38.53c.17.23.33.48.49.75a8.5,8.5,0,0,1,.86,1.88,6.51,6.51,0,0,1,.28,2.58,6.31,6.31,0,0,1-.83,2.57,8.09,8.09,0,0,1-1.34,1.71,17.83,17.83,0,0,1-2.44,1.94c-.72.49-1.35.92-1.8,1.29a2.62,2.62,0,0,0-.58.59.73.73,0,0,0,0-.24c0-.07,0,0,0,.06a4.82,4.82,0,0,0,.75,1.14c.19.24.41.48.65.73s.67.71,1,1.11a12.64,12.64,0,0,1,1,1.4,6.83,6.83,0,0,1,1,2.33,4.88,4.88,0,0,1,0,2.05,4.81,4.81,0,0,1-1,2,6.23,6.23,0,0,1-2.27,1.62c-1.18.5-2,.68-2.64.91a4.82,4.82,0,0,0-.65.26c-.12.05,0,0,.22-.26a1.74,1.74,0,0,0,.31-1.07c0-.2,0-.12,0,0a7.53,7.53,0,0,0,.91,1.39c.42.54.91,1.09,1.44,1.64s1.08,1.1,1.65,1.64,1.28,1.21,1.9,1.87,1.26,1.35,1.87,2.12a14.89,14.89,0,0,1,1.78,2.74,7.66,7.66,0,0,1,.68,2.14,5.85,5.85,0,0,1,0,1.51,5.22,5.22,0,0,1-.51,1.71,5.62,5.62,0,0,1-2.09,2.24,8.7,8.7,0,0,1-1.87.85,20.72,20.72,0,0,1-2.88.66l-1.14.21a6.83,6.83,0,0,0-.67.16,2.65,2.65,0,0,0,.27-.19l.21-.2a2.91,2.91,0,0,0,.25-.32,2.69,2.69,0,0,0,.39-1,2.15,2.15,0,0,0-.16-1.3c-.05-.13-.1-.15-.05-.09a4.25,4.25,0,0,0,.47.5,11.47,11.47,0,0,1,1.22,1.31,6.55,6.55,0,0,1,1.14,2.17,5,5,0,0,1-.16,3.34,6.05,6.05,0,0,1-1.5,2.11,10.88,10.88,0,0,1-1.39,1.08c-.86.57-1.61,1-2.26,1.37a8.45,8.45,0,0,0-1.4,1c-.1.1-.1.13-.06,0a.92.92,0,0,0,0-.45,2.49,2.49,0,0,0,.47.68,12,12,0,0,0,1.45,1.35c.63.51,1.4,1.14,2.08,1.78a15.26,15.26,0,0,1,2.07,2.35c.17.26.33.51.48.79a8.62,8.62,0,0,1,.43.95,6.14,6.14,0,0,1,.39,2.38,6.34,6.34,0,0,1-.58,2.27,11,11,0,0,1-.86,1.47,12.57,12.57,0,0,0-1.08,1.67,1.82,1.82,0,0,0-.2,1,4.59,4.59,0,0,0,.45,1.49c.16.29.28.57.48.87l.67,1.05a12.15,12.15,0,0,1,1.34,2.9,7.9,7.9,0,0,1,.23,3.66,8.44,8.44,0,0,1-1.38,3.22c-.59.86-1.21,1.55-1.67,2.11a7.35,7.35,0,0,0-.51.69c-.11.17-.1.21-.11.15s-.06-.12,0,0a1.89,1.89,0,0,0,.36.49,9.91,9.91,0,0,0,1.57,1.28c.32.22.61.4,1,.63s.8.51,1.2.82a7.38,7.38,0,0,1,2.31,2.62,4.2,4.2,0,0,1,.39,2.34,4.71,4.71,0,0,1-.75,2,11.11,11.11,0,0,1-2,2.23c-.66.58-1.29,1.1-1.82,1.61a5,5,0,0,0-1.11,1.37.94.94,0,0,0,0,1,4.93,4.93,0,0,0,1.22,1.42,15.39,15.39,0,0,0,1.85,1.34c.7.44,1.46.92,2.17,1.44a17,17,0,0,1,2.09,1.74,6.73,6.73,0,0,1,1.7,2.55,3.82,3.82,0,0,1,.15,1.79,4.61,4.61,0,0,1-.57,1.54c-.5.85-1.07,1.48-1.35,2a1.13,1.13,0,0,0,.11,1.38,6.75,6.75,0,0,0,1.65,1.47,12.31,12.31,0,0,1,4,3.39,3.05,3.05,0,0,1,.25,2.81c-.33.86-.85,1.52-1.11,2.25a2.07,2.07,0,0,0,.43,2.13,8.51,8.51,0,0,0,1.89,1.59,8.64,8.64,0,0,1-2.11-1.39,3,3,0,0,1-.72-1.11,2.47,2.47,0,0,1,0-1.37c.22-.88.68-1.61.86-2.35a2.11,2.11,0,0,0-.37-2,6.42,6.42,0,0,0-1.72-1.48c-.69-.43-1.36-.76-2.16-1.19a8.29,8.29,0,0,1-2.22-1.67,3,3,0,0,1-.55-3.29c.41-1,.94-1.63,1.21-2.26a1.67,1.67,0,0,0,.12-1.5,4.49,4.49,0,0,0-1.21-1.47,14.5,14.5,0,0,0-1.86-1.33c-.68-.42-1.36-.78-2.1-1.18a18.48,18.48,0,0,1-2.32-1.43,8.08,8.08,0,0,1-2.16-2.23,4.61,4.61,0,0,1-.66-1.84,4.35,4.35,0,0,1,.24-2,8.08,8.08,0,0,1,1.77-2.68c.64-.69,1.27-1.27,1.83-1.83a7.54,7.54,0,0,0,1.27-1.51c.11-.2.13-.33.12-.35s0,0-.07-.09a4,4,0,0,0-1.11-1c-.27-.19-.59-.36-.9-.54s-.78-.43-1.16-.66a14.25,14.25,0,0,1-2.4-1.76,6.59,6.59,0,0,1-1.19-1.47,4.57,4.57,0,0,1-.64-2.4,5.1,5.1,0,0,1,.6-2.23,9.75,9.75,0,0,1,.89-1.39c.57-.75,1-1.34,1.37-1.87a2.73,2.73,0,0,0,.37-2.66,7.17,7.17,0,0,0-.84-1.59l-.72-1c-.28-.39-.53-.86-.78-1.29a10,10,0,0,1-1.1-3.25,7.37,7.37,0,0,1,.49-3.86,16.12,16.12,0,0,1,1.47-2.63,5.34,5.34,0,0,0,.38-.7c0-.14,0-.17,0-.15s0-.1-.35-.52a11.75,11.75,0,0,0-1.29-1.35c-.55-.48-1.09-.91-1.77-1.43a17.83,17.83,0,0,1-2.25-2,7.59,7.59,0,0,1-2-3.62,5.3,5.3,0,0,1,.25-2.91A6.35,6.35,0,0,1,220,225.2a13.45,13.45,0,0,1,2.59-2c.77-.49,1.47-.9,2-1.27a4.61,4.61,0,0,0,.58-.46c.1-.1.08-.14,0,.1a1.51,1.51,0,0,0-.07.89c.05.17,0,.11-.06,0a5.62,5.62,0,0,0-.51-.5,10.68,10.68,0,0,1-1.26-1.31,6,6,0,0,1-.72-1.15,4.3,4.3,0,0,1-.38-2.51,3.94,3.94,0,0,1,.62-1.57,3.81,3.81,0,0,1,.45-.56,3.86,3.86,0,0,1,.44-.41,5.46,5.46,0,0,1,1.36-.79,11.14,11.14,0,0,1,1.73-.53l1.32-.28a16.59,16.59,0,0,0,2-.49,2.34,2.34,0,0,0,.42-.18,1.09,1.09,0,0,0-.37.46,1.49,1.49,0,0,0-.16.78c0,.07,0-.05-.1-.23a14.5,14.5,0,0,0-2.44-3.06c-.53-.55-1.08-1.06-1.69-1.63s-1.28-1.22-1.92-1.87-1.26-1.34-1.88-2.11a13.93,13.93,0,0,1-1.8-2.81,6.86,6.86,0,0,1-.65-2.36,5.43,5.43,0,0,1,.14-1.72,5.19,5.19,0,0,1,.79-1.72,6.14,6.14,0,0,1,2.14-1.83,11.19,11.19,0,0,1,1.66-.71c.94-.32,1.74-.55,2.09-.72.16-.06.14-.14-.21.23a2.19,2.19,0,0,0-.46.93,2.13,2.13,0,0,0,0,.81c.07.3.07.19,0,0a6,6,0,0,0-.46-.61c-.2-.24-.42-.47-.69-.75s-.69-.73-1-1.14a11.15,11.15,0,0,1-1.87-3.1,7.18,7.18,0,0,1-.48-2.37,6.32,6.32,0,0,1,.52-2.68,8.58,8.58,0,0,1,2.59-3.23c.85-.68,1.61-1.17,2.27-1.62a12,12,0,0,0,1.51-1.14,1.54,1.54,0,0,0,.22-.25.86.86,0,0,0-.05.21c0,.26.06.1-.18-.29-.06-.09-.12-.19-.19-.3l-.35-.49a13.2,13.2,0,0,1-.9-1.43,8.58,8.58,0,0,1-1.08-4,7.9,7.9,0,0,1,1.27-4.15,22.23,22.23,0,0,1,1.79-2.34,6,6,0,0,0,.88-1.26c.08-.22.08-.14,0-.36a3.76,3.76,0,0,0-.55-1.1c-.19-.24-.34-.48-.57-.74l-.83-1a10.9,10.9,0,0,1-1.85-3.09,6.68,6.68,0,0,1-.43-2.4,6.19,6.19,0,0,1,.58-2.55,9.72,9.72,0,0,1,2.27-2.93,13.85,13.85,0,0,0,2.74-2.86,2.39,2.39,0,0,0,.31-1.05,4.29,4.29,0,0,0-.2-1.45,10.21,10.21,0,0,0-.72-1.78c-.16-.31-.33-.62-.51-.93s-.48-.84-.71-1.28a13,13,0,0,1-1.59-6.28,9.55,9.55,0,0,1,.81-3.53,11.49,11.49,0,0,1,1.81-2.82,34.67,34.67,0,0,1,4-3.67,10.55,10.55,0,0,0,1.37-1.33,1.57,1.57,0,0,0,.29-.47.54.54,0,0,0-.06-.26,2.18,2.18,0,0,0-.13-.26l-.16-.28c-.07-.12-.14-.24-.21-.38a6.39,6.39,0,0,1-.7-2.09,4.29,4.29,0,0,1,.11-1.69,4,4,0,0,1,.93-1.65,5.2,5.2,0,0,1,2.1-1.31,11.43,11.43,0,0,1,1.55-.41l2.47-.45a9.19,9.19,0,0,0,1.85-.52,1.65,1.65,0,0,0,.76-.53,1.81,1.81,0,0,0,.17-1.06,7.8,7.8,0,0,0-.44-1.93,38.87,38.87,0,0,1-1.43-5.13,8.54,8.54,0,0,1-.07-3.36,4.13,4.13,0,0,1,.49-1.21,3.53,3.53,0,0,1,1.05-1.07,4.63,4.63,0,0,1,2.06-.68c1.07-.1,1.82-.07,2.52-.14a5,5,0,0,0,1.74-.44,5.34,5.34,0,0,0,2.37-2.79,18.07,18.07,0,0,0,.76-2.15,11.81,11.81,0,0,1,1.17-2.68A5.59,5.59,0,0,1,257,87.29a5.24,5.24,0,0,1,3.4-.13,17.69,17.69,0,0,1,4.82,2.49,31.24,31.24,0,0,0,4.1,2.49,2.69,2.69,0,0,0,1.75.28,2.14,2.14,0,0,0,1.16-1.3A5,5,0,0,1,274,88.76a2.39,2.39,0,0,1,1.67-.34A3.68,3.68,0,0,1,277,89a15.65,15.65,0,0,1,3.56,3.77c1,1.36,1.93,2.75,2.89,4.11.48.68,1,1.35,1.49,2A6.48,6.48,0,0,0,286.79,100.57Z"/><path class="cls-5" d="M274.4,122.91s-1.71-21.83,1.61-23.5c-6,2.25-7.46,24.44-7.46,24.44Z"/></g></svg>